<mxfile host="app.diagrams.net" modified="2023-10-31T08:14:06.931Z" agent="Mozilla/5.0 (X11; Ubuntu; Linux x86_64; rv:109.0) Gecko/20100101 Firefox/118.0" etag="AqaNYQzt_ddxwhYL-xnb" version="22.0.8" type="device">
  <diagram name="Сторінка-1" id="VHYZKgRt7BnOByczbGUi">
    <mxGraphModel dx="2284" dy="-305" grid="1" gridSize="10" guides="1" tooltips="1" connect="1" arrows="1" fold="1" page="1" pageScale="1" pageWidth="850" pageHeight="1100" math="0" shadow="0">
      <root>
        <mxCell id="0" />
        <mxCell id="1" parent="0" />
        <mxCell id="shO-vSXFo0OsbeSrxH-g-1" value="" style="shape=image;verticalLabelPosition=bottom;labelBackgroundColor=default;verticalAlign=top;aspect=fixed;imageAspect=0;image=data:image/png,iVBORw0KGgoAAAANSUhEUgAABKsAAAL1CAYAAAAIKmc1AAAABHNCSVQICAgIfAhkiAAAABl0RVh0U29mdHdhcmUAZ25vbWUtc2NyZWVuc2hvdO8Dvz4AAAA1aVRYdENyZWF0aW9uIFRpbWUAAAAAANCy0YIsIDMxLdC20L7Qsi0yMDIzIDEwOjA3OjE5ICswMjAw1BeGZAAAIABJREFUeJzsnddzXNd9x7/be+8V2EUjCsECipRESVQkOx7HcSb2jDMeP/sxD/kLMvw38pa3jDO2JrEdx5ElipREiqJIgCgESXRgsdjee88D5xydvbgLUhQtCuD5zHAk7N695dzdc373+2uSXq/XA4fD4XA4HA6Hw+FwOBwOh/M9QPqyT4DD4XA4HA6Hw+FwOBwOh8MhcLGKw+FwOBwOh8PhcDgcDofzvYGLVRwOh8PhcDgcDofD4XA4nO8NXKzicDgcDofD4XA4HA6Hw+F8b+BiFYfD4XA4HA6Hw+FwOBwO53uD/GWfAOd40mw2sbS0hIcPHyKfz6NUKtH3JBIJAGBQo8mnvc/hcDjfZ2QyGUwmExwOB86cOYPR0VF0u10AT+Y3iUTSN7+ROY/D4Rx/isUilpeXsb6+jkKhgEqlQt/j9g+HwznJKBQKmEwm+P1+zM7Owufz0flMaP9w24fzIuBiFee5aDQauHXrFn7zm98gFoshmUwCeDIxSaVSSCQSdLtddLvdQ5MV2Ya8z+FwOMcJpVIJl8uFU6dOQalUYmRkBN1uF71eDzKZDMCTh9FerydqrHEDjsM5vhQKBXz88cf44x//iHg8jmw2C+Cw/SMmSEmlTxIaer0et384HM6xQ6vVwuVy4eLFizCZTPB6vXQuI/Ob8G8Wbv9wvilcrOI8F91uF7lcDslkEq+//jrOnDlDjTTyjxhrwomJK+4cDuc4Uy6X8dVXXyEej6NcLqPT6fTNfcDRYhWHwzm+tFotpNNp1Ot1/PCHP8T4+Hif/QMMjpzi9g+HwznOpFIp3LlzB6lUCtVqlQYlsPMfwG0gzouDi1Wc56LX6yGfzyOTyeDChQv453/+Z8hkskMquthERSKqpFIpjULgcDic40I0GkUikcCjR49QqVTQ7XYhk8kORVXxB1YO5+TRbreRyWTQaDTw7rvv4pe//CWkUukz2T+dTodGYIpFHXA4HM73mYWFBayvryMej6NWq6HX6/XNf4OiSgnc/uF8U7hYxfnWSCQSyGQy9Ho9tNttOmmRMHeh4k5C5bmhxuFwjiNkbmu32zyVh8N5hRGWPZDJZPRv4GvBitg/xO7hD2ocDuc40uv10Ol00G63ee09zncCVws43wpiiBFxip282OgCNsqAbM/hcDjHlU6nQ6MkCMJ5jsPhnGxY+6fT6fSJVCTCQDgv8LmBw+EcZ55m/3A4LxIeWcV5boSTklQqhUKhANBfXI+NqGI/yw02DodzXCFpzCRKVNgBkGwjrGHD5z0O5/gj/K2TuYBEVYlFlHM4HM5JQCaTQS6X96UzCzsgi9Xw4/Mg53ngYhXnW0MmIWG+slgEFVfdORzOSYCIVU8z1liEcyWHwzm+sAWEyW/9We0f/tDG4XCOI2wpFzGHHHDYxuGRpZxvAxerOM+NWPcH4fvA15MUn6w4HM5JgdSoYWtWsfOaMJKUPMTyphIczvGHPLBx+4fD4bxKEHtGWEh90LzGpgfyrBrO88DFKs5zM6hVKXmPZdADHYfD4RxHSI0aYbSoMPR9UO0+DodzfHlW+0f4m+f2D4fDOe6IiVXA0fYPh/O8cLGK89wIJyLWeCOvEZFKWLeBq+scDuc4I4yUGGSM8S5gHM7Jg42WJIhFU7Kv898+h8M5KTyLAMXtH86LgItVnOfmKMWcFBntdDo0VP5pD3UcDodznDjqQZXlWSNQORzO8UDMWQeA2jgk8kDM/uHOOg6Hc5w5Kq2Z2z+cFw0XqzjPDdsNC4Co0SaTyfqMNNZ443A4nOPMUUYan+M4nJOLsLmCMIpKrPiwsBg7h8PhHEcGCVDkPQ7nRcJbEnGeG1asEnoTj3qfR1ZxOJzjztO8iYPmOV6/gcM53pAHNTFnHNvxUyhWcfuHw+GcdI6ycbj9w3keeGQV57npdrtot9t9HkWxDjlEwGKNOx4Gz+FwjjNioe7C8HYxbyOf9zic4w0RntgGC2yq3yD7h0eVczickw63fzgvGi5WcZ4bobEGoK8+A9Bv1MnlckilUq6q4+mFCcUm++dh0H6edf/f9Dy+6fG+7fkNOj5h0H6FPOs4POv2T/v88x73aXzT8eV8O55lXIknkT+only+7fzK+X7wTe6jmFjF/pd8johVrP1z3J11f631/UXZPUK+rT3xXZ3nsx7/ZfFN7aAXNX7Paj+9aLv5acd5lXnWLqdi9g8fP843hYtVnBfGoAmITFK8G8RhWKOVndSP2u5p+3nW4x31uth2YjU3jlqsvmkRxUE1PZ62n6fVAnnW8xDu53mLQH7T2iQvutgkSTURiiO8qOV3wyBvIh/3k82g3xf/3R0vnvc+ssXTyd9sNNVJiygfNB5EwCNR9E/b/tse76jtB9lTz/O5p62r3+TcngdhBoOQv8Y88yz7HBRN/Ky/H7HPC2vffttz/Dbbc74ZwvmP/D+H823gYhXnhXCUASeTyb7jszkeEK9ru92m6ZS9Xg9qtRpKpbJvu0ELerfbRavVQrvdpgVf5XI5HXPWkBqUK05eE27b6XQO1eBgjW+yP/Z94X6FRl+320Wz2USr1YJCoaDnSvbX7XYhk8nQ6/XQbrfRarWo8atSqaBUKg+NBfFct9ttaiSTfZD3er0elEol5PLBU55wfJ7FOyfmcSPHJOdNarcJjXexcRKKZM/jIWTrxgmNauH94EbEt0d4j4TjzMWLV4dB86vwIfckiRbHkafNq0+7j4MQE6zYBjTsdscdsfFg7QbysErWI7KWi4ktwjVSbM5st9t9Ngn5jDBin7UL2PMkdhL57RH7g/2M8HPs8clxhesyueZWq3WknfEsDj72HFqtVl/6KBknsTpoxFYidpLwutgxaTabtEu3VCql2zabTXr+Qptd7LrZ94T2i9jvZND3hdhKnU4HAPrsN6HjUIyj7KWj7N2jBMenfY6v4YMRjs0gEZLD+SZwsYrDeYnUajVcu3YNt2/fBgBoNBpcuXIFFy9e7BOdhAZct9tFIpHAwcEB7t+/j42NDbjdbvh8PszOzmJiYoJuSwwCdh/kb4JwgW61Wnj8+DG2t7dpCufk5CTC4TDdp/C82MWI/UeO12q1kM/ncePGDSwtLWFmZgaTk5Pwer1wOBx9Qli9Xsf8/DxWVlaQy+XQ6XTw3nvv4eLFi6JjUSgUcOPGDSwvL2NychLDw8MolUqoVCpot9tQKBSYnp7GyMhI37gIPXjC/2ffFxP7hOdBul02m00sLCxgc3MTDocDLpcLfr8fLpdLdDEXGrJi4iTbuED4OjECWWOWGPhCA5fzYmC/r0LEDDPh74NzshDOD0JjXfgQzb7GefkI516x+zlojRgUCSK2Tp4U2O8zK1awHRLr9Tqy2SySySS2t7cRi8VQLpdRr9cBAEqlEmazGQ6HA36/Hx6PB1arFXq9vu9YtVoNu7u72N7exuPHj1EsFjEyMoKRkRGEw2G4XC5RAYyQzWZx8+ZNPHjwANVqFXq9Hm+99Ramp6eh0Wj6nIOsk4EV34g4Jry/rVYLsVgMn3zyCVKpFN555x1MT09DpVJBoVD0bfssdLtdpFIp3Lp1C7u7u7BarfB6vZiYmIDX6+3bFzsua2traDQaeO211zAxMQGz2QydTte3bzIOu7u7MJlMcDqd1Kb7/PPPkc/nceXKFUxNTR3p3BP7XYjZf+R6yOvC9bLVaiGbzSISiWBpaQmNRgPvvvsuJicnDx1LaP8MEowGCU1sxJ+wHMkgG0/MRmbP41VmkAjFpjqz2560+Y/z3cLFKg7nJSGRSNBoNHDjxg3827/9GwDAarVCp9NhZmYGarUaarVadKLvdDpIJBJYXFzE7373O3zyySeYnp7G+fPnYTQa+8QqIqIQQ4sYD0c9OLdaLWxsbODmzZtoNptQqVQwGAwYHR0d+FmykIvVLev1emg2m8hms/jwww/xwQcf4Kc//SkAQKVSUbGKfKbRaGBhYQEffPAB9vf30W63YbVacf78eep5I/tut9vI5/P46KOP8Lvf/Q4//elPcfnyZSQSCaTTabRaLWg0GpjNZoTD4UNRYWIGFnuP2OsTes3Z/xLvoEKhQLPZxOLiIq5du4aJiQlMTk5Co9HA6XQe8kQOEqqE48pGuRHPI/se8LXnldxDcj5i18KNh2+HmPEtJmgSyP3jkabHn6MiDFjE5hWyHf8efP8QRswIxSb2AZWda8XWBFbEIZykOZdd98j6w0bFNJtNlEolRCIRPHr0CHfv3sXq6irS6TSKxSKAJ865QCCAcDiM2dlZTE1NQSqVQq1W9wlDtVoN29vb+Pzzz/HnP/8Z+/v7ePfdd3HlyhUYjUa4XK6B59fr9ZDNZvHxxx/j97//PbLZLNxuN7RaLQKBAGQyWZ9YJfytkqh3pVJ5qOYYiWqKx+P405/+hLW1NdhsNoRCIchkMigUioHOPDHINrlcDtevX8fNmzcxNDSEM2fOwGq1wu/399lZtVoNGxsb+Oyzz/Dxxx+jXC6j0+nAZDJBpVKJilWffPIJvvjiCwQCAUxOTtJx/sMf/oBIJEIFLHL+5LzYcxw0zsLrY51pYpHlrVYLmUwGDx8+xAcffIBSqYRgMIipqalDY8KKXuz+xcZT+Lsl95G1u8QcSs/yu2Uj707S7/mbQsRb4NWc/zjfLVys4nBeMsTo7XQ6aDabSKfT2Nvbg9frhUajAdAvlJBtk8kktra2UCgUDoXEs58h3k7iXSJG91FRQjKZjBpdwBOj0mazHVrY2eOQ11iPGjGqpFIpFAoFNBoNTCYTTCYTGo0GEokEqtXqofPtdrsoFotIJpMoFouQSCTIZDI4ODiA2WyGwWCAVCpFt9tFLpfDwcEBisUier0eLBYLQqEQ9Ho9LBYLer0nqZVWq/XQuQsXTzYCbVAElPB14rGTSCTUOGVTATudTl8KA9mP0FN41ELOGljC9DLiKRR+XiylghsLLw5WKCS/K+CwQCFmZHOOP8J5gMypg+YWAq/d+P1i0O+TzLdi91OhUMDhcCAQCMBgMADAociNQQ6QkwJrjwijdyuVCjY3N/Hw4UMsLCxgd3cXarUaY2NjmJ6ephE73W4XjUYDzWYTt27dwvLyMi5evIjZ2VkEg0HY7fa+45F71Ww2EYlEsLGxgXPnzg0USjqdDmq1GnK5HHK5HIrFIprNZt/a/DSBkpyrWPoaud9msxmnT5+G2WyG3++HRqOBXC5/pnsvFoWiVqvhdrvhdrtRrVYRjUZRqVQOfScbjQaSySR9v9lsIpFIIBqNwmazwWq10nmp3W6jVquhWCyiWq3CYDDA6/XCbrdDoVBgdnYWTqcTLpcLCoXimWp2CUUk4XvsuAlfJ+PLpn+S/Ymtp2yWgXB/YnYRO74A6H0ctB+y7SA7j8Dn7ycOZpfLBZlMRgXRdrsNAPR7f9LnP853CxerOJyXCLsQk0U6k8kgEonAYDD0ReKwRkGn00EqlcLW1haKxSJd8FnvlTCCh4glwm3EkMvlVKxSKpXQarWw2Wz0nFlYQ5E1VlijQyhWWSwWalhVKhW6PRG32u02isUiUqkUqtUqVCoVstksDg4OIJPJoNVq6TURsapUKkEikcBisWBoaAgGgwE2mw1SqRQqlQoWi+XQ2LOwkUvCsWEXXbHPkQgmuVxO98MKGWxkFBkPYiwPEpQGRXCJfX/EYD3/nBcPa1gLIwqFnlj2IVbMo8s5fohFSIo9SAnhBvz3A3aeBiAa+XHUg6/FYoHL5YJWqwWAPmfEq5R2LYwQ7Ha7KJfLWF1dxaeffoovvvgC2WwWb7/9NmZnZxEIBKgIVS6Xsb6+jtXVVSwtLaFYLKJWq6HX60Gj0cBqtR4SRiQSCVqtFg4ODqizjqyjwsiZdruNcrlMhSpSFoCdu4H+MghCEY5NhWN/z0KxamZmBl6vFz6fD2q1emDdKqGgxn4HyXiyYtXGxgZisRiq1eqhdaPZbCKZTOLg4AC1Wo2mEEajUYTDYTpeROCrVqsoFouo1+swGo3weDyw2WzQaDSYnZ2F1+uF2+2mYhU7JoNEXeE8yCKMrBFDmF7JjsegNVW4vpLPidlK5LzFxEPhdbCvseu00BZ81VEoFNR5rVarAXwt1ouly3I43xYuVnE4LwlW0AAAo9EIk8mESqVCa1CFQiG6ULMPukTo2d7eRq/Xg8vlglqtpkU5AXGPkJgQwhqBrHjmdruh0Wio0GQ0GkUX7UFCjrALJNmP1WqFy+VCu92mNSzY45dKJcTjcWSzWdTrdRgMBjgcDrRaLezv78NqtVIDudPpUFGLRFWZzWZYLBYqULHnT659kCedvR6hAUv+K/wciWZjPW7CcRB628l2bMTbIGNPzPN3FKxRKXY+z7ofzrMhNM6ENcTYYrEEPv7Hn6NEZBaxyAl+718uJP2oVqvBarXCYDD0/X6BoyNpa7UaEokE9vb2UCgU+moasakxzxJpd5xhr4lEhpfLZezs7ODevXt4/PgxTp06hWAwiDNnzmB0dBQmkwkajQYSyZMyCCRCzeFwYGNjA7lcDrdv36ZiDREDJRIJXdMtFgutVVkoFFCpVGhjGvacGo0GYrEYDg4OoFKp4PF4kMlk6P5Ye4i9T2Lzs/B7wTZx0Wg0mJqaQr1epyUNCE9zTrC2HYE4C+12O9bX11EoFGitL7YwfLvdRjqdRjqdhl6vh1qtRrVaRSwWQ61Wo8dstVooFApIp9OoVCqQSqWw2WzweDxQq9XQarWYnp5GrVaD0+k8JDCxdpyY4HPUtQmvnbwmnBfZ4wijn9jthXaSUFQTG3ehE1V4LmLXIWYzDdr2VYM8fyQSCZRKJXQ6HWoDiWV2ACdz/uN8d3CxisN5SQi9VSaTCS6Xi4pV09PTfWl0rLewXq8jmUwiEolQD69Go6H1FVjIMUgkjzA9jyzACoWC1iiQSqWwWCxU4CGvkeMLC7QLPYRk0RJ6xohY5fF4EI/HqVjFeuCKxSLi8TgKhQLa7TbMZjN8Ph9arRYikQitp0DOpVAoIJVKAQDMZjNNM9RqtWi32/RcSIoeSckbFHlGzp+9BjHvIDuW7JiTyDD23hKxil3IiWdX2M1ReFzymUajgVarBaVSeagOVa93uNsRKdBPDD/yPvkca/Rynp9B95W9R2KGGhesjjdiEQbkdbEIDAKvVfXyabVaSKVSyOVydC5k06aFD7jC+1mv15FKpWhEL2lCwt5b9gH7qIf544rwu9/pdFCv15FOp7G9vY2lpSXs7u7i7bffxo9//GOEQiE4nc5D1xwOhzE2Nga73Q6z2YwPP/wQ+/v7OHPmDCYmJqjdIZVKaUF2i8WCfD6PcrmMYrGIUqkEuVwOlUrVt+9ms4l4PN4nVhERh32wJtcgtJOE4odEIqGFx8l5kXpWwWCQRloRyHeFrAcymezQvsXsDBK54nA40Ov1UCqVUC6XUavVaLQXcVqm02lks1kEg0FYrVbUajXE43HUajV6Hu12G7lcDul0mu7DZrNRJ6dKpcLw8PChyHu2UzW5ZtZ+Ar5e/1gbh50bSV0vsi6yY1qr1focrOz+2DFkO0Oz+2ePy34PSekFEvnDpp2SbtTkfrJdqck2bHdHlUrVJ0yS+f1Vip4UQiL64vE4KpUKjVwT+z2xDl4xcZLDeRb4kwqH85IQetQ8Hg9GR0exv7+Phw8f4q233jr0QNTtdpHP52lYuFKphMVigcfjoaIIuyh0u10qCm1tbWFvbw/VahWNRgMKhQIqlQo+nw9+vx+jo6MIBoO0jsT6+jp2dnaooTI5OQm/34+NjQ3s7e2h1WpRAaTZbFLjH3jS5WdoaAjDw8MIhULw+Xz0em02G/x+P+LxOBKJBI2sAr72FB4cHECj0WB8fByBQAAulwv1eh1bW1s4e/YsgK+FgXw+j2QySfet1WrRarWwtrZGuxkqFArq4c3lckilUtjY2MDBwQFsNht0Oh329/eRTCapQUREwDNnzmB8fJzeM+DJYr2xsYGtrS3EYjGkUik6Tj6fDzqdDgcHB5BIvi7Cynr/arUa1tbWsLm5iWQyiUwmQw0hm80Gp9OJqakphMNhKBQKVKtVfPjhh1haWsLrr7+Os2fPwmg00mvN5XK0y+Lw8DCGh4fp2EkkElSrVXz55Zd4/PgxrFYrHA4HxsbGEAgEvoNv+smGGMfEeBWrFSZmuHFD7WQiFCfE6gNyXi5kjYvFYlhYWECz2UQ4HMbw8HBfmhobTcE+nBPhgdSJFKsVCRydPn7cEV6jTCZDq9XC1tYWHj16BIVCgdHRUYyOjiIQCNAOf2IPrFqtFuFwGLVaDSsrKyiVSlTwOnPmDAwGAxVOyPZqtRp2ux25XA4bGxsYHx+HTqfrm2dbrRai0SgikQjUajX8fj/S6fQhUaXb7aJWqyGbzWJ9fR17e3vI5/MolUpotVqQSqUwmUxwu92YnJzE0NAQdDodFAoF2u02Dg4OcOPGDaTTaVy5coV2A8xkMvjLX/6CSCSC2dlZWCwWPH78GPv7+2g0GgCeRNS73W6cPn0aoVAIWq0WSqUSDocDHo8HKpWKFqUvFAr0u1cul5FOp1GtVqFWqzExMQG32435+XkcHBygUqlQUaxer9O6Xb1eD3q9HmazGWazGQqFArFYDNeuXUM6ncY777yDqakpyOVypFIpfPzxx4jFYjh//jzMZjNWVlao/SeRSGA2m+HxeDA1NYWhoSHo9XoqGrZaLep8XF1dxd7eHur1OrrdLvR6PXQ6HfR6PdLpNBqNxiGnYKPRQDabRSwWw+bmJqLRKAqFAlqtFnQ6Hex2O0KhEILBIC2yv7a2hkgkglKpBJ1Oh7m5OQwPD6PX6yGfz+Phw4fY2NhANBqFWq3G+++/j+npafR6PXq8vb09Oi+89957mJycPCQunrTf8zeFTZMVKz8C8Ag0zouDi1UczkuAfWAlhpXb7cbY2Bi2t7exvr6ObDbblx4H9ItV9XqdFg4nhThZgxkATZ1bWFjA7du3sbCwgFKphGq1CoVCAZ1Oh9OnT+PcuXPQaDS020yj0cDjx49x69YttNttqNVq6PV6uFwubG9v44svvkC5XKY1IEi3nv39fXS7XajValy4cAGvvfYaFAoF3G43vQ7S1ebu3btIpVIol8s0soiIVcSQGBsbg8/ng9lsxqNHj5BIJFAoFOg4djodGlkllUrhcDhohNnm5iZu3bqFRqMBlUoFrVYLj8eDbDaL7e1tXLt2DfPz8xgZGYHdbsfKygo2NjbQbDYhkUjg9XoxNjYGrVaLUChEH0g6nQ4qlQoePXqEzz77DA8fPsTW1hb1sJ4+fRrBYBAHBwfUS8eKVc1mE4VCAcvLy/jss8+ws7PTZ7z6/X6MjY3R69HpdKhUKrh27Rp++9vfotls0uKWWq0W9XodiUQCf/rTn/DBBx/g8uXLeOutt2A0GjE0NAQAVKz63//9X1rk1mQycbHqBcDWPhGLoCP/PaorEudkIZaGK0wn47xcSH3I69evY2dnB2+88QYuXboEhUIBvV5/KHKDFauIUCVM/QMOp5mLRd8BJ+97QNZvYr+QaCPirCKIpcVqNBoMDQ2h0+nA4/Fgc3MTkUgEKysrCAaDMBqNfdEyGo0GRqMRFouFilVutxter7dv/JvNJhWrRkdHYTAYsLm5iXq93idWkXICu7u7uHnzJu7evYt4PN4XieT1enHq1Cl0Oh1oNBq43W7I5XJ0Oh3E43H893//N9bX12G32zE2NkbFnv/5n//BnTt38I//+I8YGhrC9evXsbi4SCPK7XY7JicnAQAmk4mu63a7HW63G2q1Gs1mE8ViEfl8HkajEQqFgkZK1et1aDQaTExMwO/3Y35+ntYCJePVaDSoWCWRSGAwGGijmna7jUQigf/6r//CxsYGHA4HRkdHAYC+vri4iF/+8pcIBoP485//jIWFBVSrVchkMupY63Q60Ov1fRFuxIm5urqK//u//8P8/Dy9bpvNBq/Xi/HxcUilUtTr9UOiR61WQzQaxcrKCm7fvo2VlRVEo1FUq1VYrVYMDw/j0qVLuHDhAo2AWl1dxb179xCLxWCz2eB2u2nUW6FQwOLiIj755BPMz8/DaDQiGAzi1KlTAJ6IY/F4HAsLC/jP//xP1Go1BINBTExM9P2meS3Q/pTNZ5n/eFQV59vAxSoO5yVDUrZ0Oh2sViusViuMRiOq1Sr29/dhMplgMBhoCHkikcDW1hZUKhXGx8dp/QZhykGtVkMqlcLt27dx7do1aDQanD9/HhaLBXq9HqVSCaVSCclkEp999hkcDgf8fj81mICv8/uFXshGo4FIJIJ4PA6v1wuPx4ORkRGoVCqkUilkMhkUCgV8+umncLvdCIfDtEOOxWKB3++HTqejhdSTySRMJhMAIJPJIBqNQi6Xw+/3w+/3Q6/XY3V1FYlEgnb0IaHZ+Xwe8XicRnKZTKa+tEShl4ekzOXzeRwcHECv10Or1eLcuXO4fPkyarUaCoUCNjc3sb6+jvn5eZhMJoTDYTidTqyvr+Phw4f44osv8OjRI3g8Hpw+fZoWJSWeROKd9Xg81AhrNBpYWVnB8vIy7t+/j3g8jnA4jEuXLgF4Ii6Sel23bt1CJpPBpUuX4Ha7YTab4XQ6Ua/Xsbe3B5PJBKvVimw2i2g0So3qbDZLPYtkDIjHMJVK4cyZM/QBgPP8sBEF7O9lUDQF+8Ar3I5z/BArOCwUJti/+b3+/qBUKhEIBCCTyWAymRCJRKjQsrW1BY1Gg5GREYTDYdqVTniP2RRwYeq9WDoMu5aehIddspayqfOtVgvZbBa5XA52ux1er5fWnHpaShCJTnW73dRplsvl0Gw26f7JA7JarYbH44HVakW5XEYkEqGNWtgUtmq1ikQiQddRh8OBe/fu9UUdkc7DKysruH//Pra3twGA2kqkRlk8HkepVMLdu3dRqVTw9ttvY2xsDAAORdqQEgUk8rxUKmFlZQX1eh1jY2OYmZlBp9NBqVTCzs4OyuVwe2k4AAAgAElEQVQyFhYW0Ov18Oabb2J0dJQKcgaDAUqlktpqpGlMPB5HPB6nQt/w8DBcLhd0Oh2SySTtCmi329HtdpFOp5FKpaDVamGxWOh9EUZ+kzFkBdlSqYSFhQWUy2VMTEzg9OnT6Ha7KJVK2NjYQDqdxtLSEmQyGS5evEg7xKXTaVy7dg337t1DtVrF5OQknE4nFckqlQp2d3dp/SOPx0O/C7VaDXt7e/j444+xsrJCOxa+8cYbkMlkqNfr1GmYTCbRbrcRCoVgNpvh9Xqxvb2NRCJBhUmSIphOp2lNL7Va3TdO7XYbmUwGuVwOGo2G2oaDCr2/yrDz2qs4/3G+W7hYxeG8ZIh3QqvV0noMJpMJ1WoVkUgEAPq637Fi1djYGDWKhB7LWq1GjYibN2/ivffew9zcHA1jj0aj2NzcxG9/+1vcuXMHU1NTOH36NORyOUwm06FoANbIbDabODg4wObmJux2OzweDy5cuIDx8XFsbGzgwYMH+P3vf4+lpSWcP38e2WyWFrIlxoRer+8rkE7SEolYFQqFEAgEEAgEaMcREg5PoqWIWJVMJnHq1CmEQiEqwrAd+NhrIGJVoVBAMpmEw+HA0NAQzp49i7m5OZRKJezv7+M//uM/sLy8jJWVFRiNRuj1ephMJjx+/Bg3btzA8vIykskk5ubm8IMf/AA6nQ6dTgc3btzAzs4O9cySgqasWPXRRx8hHo+j1Wrh7bffxpUrV6BSqVCr1fDhhx/i1q1bmJ+fp55aj8cDs9lM0yH39vaoJ5qIVSS1M5/PIxKJoFgsUkO0Xq8jm80ik8lAq9UiGAzSluuc50PoWWRrwQkNWmFNK1IbhHN8YWuYCOu0sBF1Yg83PMrq5aJUKuH1euFyuTA+Po5YLIYvvvgCd+7cwdLSEgqFAt56662+CGT24V34oCbs5iaWAixsfHESIM4rUsOHpKTncjkMDQ3B4/EcKVaRv8n4kEgdr9eLg4MD5PN5GnHM/s5UKhW8Xi+sVivu37+PSqVCnTPsGl8qlZBKpVAoFGCz2RAOh+k6zd6XSqWCtbU1LC4uIpvNQq/X4/z58zhz5gzkcjkVXRYXF7G0tIRMJoORkRGMjIwA+PoBnL02krZIIrE3NjagUqnwD//wD7h48SIUCgUSiQR+//vfY35+Hg8ePEC9Xsfo6CjGx8eh0WhgMBhgMpmgVqtRLBaRSCQwNDQEhUJByyhoNBrYbDYEAgFYrVbo9XraFZA440gUIVn/2cL1JI1dLN2VfJer1SoeP34MuVyOn/3sZ7h48SKUSiX29/fxm9/8Bvfv38fq6ip6vR5CoRCGhoZoxNbnn3+OL7/8EufPn8e5c+cwNzcHl8tFUwOXl5exuLgIiUQCj8dDRaVSqYS9vT0avf7OO+9gdnYW09PTMJvN2NnZweLiIv74xz9icXERbrcbOp0OJpMJHo8HzWYT2WyWdpeUSCQ0cj+RSKDZbKLb7SKZTCIajdIU0kwmg2w2S+1xrVYr+psm38lXFbH5TyxFUrgNF6o4zwMXqzicl4iYR57UdKrX69jY2IDRaITf76cpaPF4HJubm1R0IotrvV4/VGODeKMA4PXXX8f58+dhtVphMpmoOBQIBPDo0SPqYWw0Gn0Li1hBUJlMRo2k2dlZvPvuu3C73TCZTBgeHgYA3Lt3D5ubm9SAJR5CieRJMXm2e00ikYDZbIZcLkcul0M8HsfExASGhoYQCASgVCpp5FWhUKARZ41GA6VSCbVaDQaDgUZsscXPhQ+TwkKmU1NTeP/99zE+Pg6r1UofTMbGxhCPx6HX69FoNKgouLe3h7W1NTgcDszMzODcuXMIh8OQy+Xodrt48803YbFYqLFEjC+SLrm3t0drbExOTuLcuXPUy99sNnH58mWYzWZcv36degfL5TK9PlIjo1KpoNPpIJ/PI5VKQafTYWhoCOVymaYBkAgy4mFUqVQ0/J54PznPB/sASoxh8r06KnKKpxGcDNimF2Li49PSIV7lB53vC0T4cDgcmJubg9vtxoULF5DJZNBsNmlKm1qtxvj4OEZGRuD3+0ULTAsRmxfIMU8KRKRi/67VarRrnV6vpzaE8EFW+LuQyWS0yYtUKkW1WqUFsdnPks5jXq8XTqcTd+7cQSKRQDqdRqlUgkajQafTwcHBAQ4ODqBWq+Hz+Wj6HFtMH3hy/zQaDTweD2ZmZiCTyWA2mzEzMwOfz0dtnVOnTqFer2NtbY0KIGTNZx17pI4Pey06nQ7T09N44403MDY2BqfTScsKTExMoFKp0DWdNEEBnoiqLpeLlnk4ODigtg4bKUXSBRUKBTweD1KpFOr1OuLxOHw+H+2cWC6X4XK54HQ6odFo+u4lGQ/S1VGpVNL0dr1ej8nJSVy8eBGjo6Nwu93UQTM7O0tFINIUp9FoYGdnBw8fPkS1WqW/r8uXL8Pj8UCv18NgMEAul9MSCIlEgn6HiLhH0knHxsZoWQmn0wmVSgW1Wg2pVIpoNIrt7W2k02msr69jZmYGDocDcrkc1WoVyWQSsVgMer2eRs2TUgo+nw/1eh2xWAx+vx8ymYzWEDWbzRgaGqKdQk+a0PyiYOc3MZGePC+IPetwOM8KF6s4nJeAMOSaLIZSqRR2ux31eh21Wg3r6+sYGRnp6+iWSCSwvb1NC3ISQwTAIVFJpVJRo2t6ehojIyN0G2LcOJ1O6o0rlUpoNBp9i4zQ88aKVVarFdPT03jzzTfpQ5tOp4NaraaCCOnY12q1qAFnNBppgXAiVvl8Pmi1WuRyOSSTSVqknRiMJD2RiFUkmoy0dBYTq4QPFMIICIVCgYmJCVy5cgU6nQ4ajQa93pMOMOFwmBZ6J2JVs9nE/v4+Njc38bd/+7e4cuUKZmdnaU2EbrdL0ykXFhYwPz8PAFToqtVq2N/fx/b2Nq5cuYL3338fQ0NDcLvd9POkYOn9+/dp8fZSqQSj0YhAIIBoNIpoNEoL05OC8TqdDqFQCA8ePEAmk0G5XKbpf4lEAo1Go6/GGRdMvh3kftVqNZTL5T5jn/yWxQQMFm64HV/YdCMiVolF0ImlCJHP89/gy0H4OyTz/fDwMH1w/vTTT2mEa6FQwPvvv4933nmnrxMtIH4fyYMaK1axEVkn4cFXTHQl4lKz2YRCoYBGo4FUKj3UZU74OaBf5CE1jEh0Etme7IukC3o8HhrBQ6KuSe2sWCxGa1+yYhX5nbIPz8ReIV34rFYrbDYbLQovkUgQDAZpp0PiGGRtCva6iPAml8shkTwpCH/q1Cm89tprCIfDcDgcdH0YHR1FoVBAJpNBrVYTFatIl2giVhFxKJ1Ow+/3U7FKLpfD7XYjmUxSEaZcLkMul6NYLKJSqcBgMNDu0WL3gjjWSPe9Xq8HnU6HiYkJzM3N0fMnn5uamkKtVsPt27dRLBap2LWzs4O1tTXU63U4HA6cOXMGr7/+Or3XLpcLWq0WkUgEuVyORtARsWprawtbW1tQKBQYGRnB2bNncfbsWTreDocDKpUKkUiERo5tbm5idnYWdrsdKpUKjUaDpv05nU5Uq1VaI5Wkm5JxqlarUKlUSCaTyGazGBsbowXjj/rOv6ocJdYL04NP4vzH+W7hYhWH8xJhI6GkUilNT9BoNFhaWsLe3h4uXrxIQ9WJcNHtdmmBSZJORjx9ZDEnkTOdTgdKpRKZTIampVUqFZoG99VXXyGfz6PZbB4Sdcg5Cs8ZAC2mSYwe1mgnohQx1oT7kMlksNls8Pl8aLfb2N3dpQIKaYVLwrm1Wi0ajQYsFgu8Xi81hJrNJuRyOY0YMhqNNDKKFBYl58uGIpNzIca0Xq+HXq+HUqmkC6rYAkzEJtJNkYhHrEFLDG6VSgWTyQS73U5TOGu1GnK5HK2hQNIhhRFOSqWSdsnRaDSo1WrIZDLQ6/UYGhrC7u4u9vb2qGFIxD2/349AIIBcLof9/X1q3EYiEcRiMajVagSDQZriyY2Fb0+xWMQf/vAH7OzsHOoGxsf35EJq76nVauTzeVo0mEUYWUVeI/Dvx/cLMve3221aB2l/fx+pVAqdTgebm5tQKpUoFouQy+VIJBI0DU4sklL4fThpsKl8BJlMRtcuIuT3el83lRD7/pN9ECGq0Wig1WpBq9XSzngsZG1WKBTQarVwOp2Ix+N0vVMqlej1eohEIohEIrQQu9lspveYTcns9Xq0GLzBYEClUkEikaARP+VyGclkEuvr6zTS2el00vMhkdPkOojYQxx95PoNBgOdM1inGRHoiAhKIAKfzWaDzWajNSdrtRoVVFOpFKanp2n5AzIvmUwmFItFRKNRFItFaLVaZLNZlMtlmM1m+P1+mgYodOCR82Hvr0wmg8VigcPhoCUZyBjK5XIolUrI5V8/TpJ6VPV6HUajESaTCTqd7tCxlEol3G43AoEANjc3++5JuVxGtVqlXf+I8EnGnHye1HktFAooFotot9swGo3weDzI5/Oo1Wq0Jl0+n4darabHdDgctIxEtVoFAGSzWRQKBZhMpr6aa+z3l6/vXzvZWacMh/PXgotVHM73ALL4EbHKZrNhfn4em5ubyOVytLZTMplEpVKBRPKkq14gEMDS0hKazSY1+MgiQjxtjUYDjUYD29vb2NvbQy6XQzabpWHy+/v7KJfLtBUx+0/M4CbnqtPpaAtpAutVZMPgxYxaku5IUusCgQBUKhXtamgymeB0OtHrPamRZbVa+8SqdrsNrVaLZrMJrVYLk8kEi8UCmUzW1xmRnDNbo4IYWWq1Glqttk8wYsOWWcOq1WrRiLdGowGDwUBrbwlTG5RKJRXPWLGKhMiTVEgSTs8eWyhW1et15PN5mM1mmuJAjFCSaphKpTAzM0NrhmUyGVSrVUSjUezt7SEWi0GlUmFoaAhGo/GVN7ReFJVKBZ9++im++OIL0YdVYeFRzslArVYjEAjAZDIhGo0inU6LFpoVctIFjOOC2PzHNkkg0cQkDUqhUNAH3mq1CrVajXQ63ZcGOijC4CQijKZiI8iI84fUaiKF0wc5vcgYkwffer1Oo4DNZrOoWEUEFa1WC4fDAbvdjnK5jP39fdjtdsjlcipWjY2NYWRkBGazGdVqlQpKLAqFgkbqrK2tIRqNIplM0n+xWAy7u7vIZrNQqVR9YhXrACPfhXa7TVMEgScCEKnXScQq4bUQcUuYWmy1Wmm34kqlQkUcEk1mMpnout5ut2Gz2WAymXBwcIBGo4F8Po9e70ltz0ql0tfghow7+72VyWTU6UlsJrlcDrPZDJvNBrVa3WdHyWQyKJVKmhZI7ilx6hkMBjidTlr7STjupEaZVqtFrVaj34NKpYJqtUoj3dRqdZ9NSmwlIkSSZj3tdpumdWazWdqoiHy3SHF+0mQmHo9Tu5o0qCkWizAajX1iFTnmSf1Nf1OEzmAeKcz5a8LFKg7nJSIMKyYihlQqhVarpQtwPB7H7u4utra2IJfLEQqFRCNkWEGmUCgglUrh5s2buH//PhWP1Go1/H4/fD4farUa7ty5g83NTWqECBEeg/UIsp4w4QMAW2dCuA+pVErT0XZ3dxGNRrG7uwu5XE7rUZB6F8Ros9vt8Pv9yOfz2N7eptFlKpUKfr8fRqPxUG48W3OLHJeck1gIPwsx2gDQhxE21Ye9Tnbs2QgrhUIBADS0X9ia+SiPFDt+pI4GKcRPalUdHBwgFoshk8lAqVTC5/MhEAgglUrRuhGk2w4x7A0GAw9nf0EYjUb88Ic/xKVLlw6NJTdqTy7k4VOlUtGHR6Egz/n+w86D5PfbbDZRLBaxubmJ7e1tHBwcoNVqYXx8HDMzM5iamoJMJsPOzg6i0WhfNDKLWB0Xsb+PO8J13WAwQK/X03R9YZc+oN9OYTvRtVotpNNpJJNJWhNTqVT2pRSxnydrP6mXtLGxgXA4DL1eTzvMnT17lkZA12q1Q+cAAKVSCcvLy3j06BF2dnaQz+dpmYJQKASfz4dQKEQjrsjnyTWLXRv7nSBrOBGBhOM3KIqdiDlutxsSiQSZTAa7u7s08og0wyEiUqvVgsfjgcfjweLiIi0ZYbPZUKvVaOkGNkKKPW/2/Fn7g5wnez1i1zxIkCT/L7R3nue38LQIPeBJxJXT6aTpkKRsBLGrg8EghoeHqWOT7QjYbDahUqloKij5/rHXzuf5w+nswnv5qsx/nO8GLlZxOC+JQQs7MfZIdxISzr29vY3t7W0oFAqEw2GYzeY+Q4JdrLvdLvL5PLa2tnDjxg189NFHmJycxMTEBCwWC3w+H5xOJ22JnMvlqFjFGi0E1jghixPxkhFPmFjqoJhQBYCGlXs8HmxtbeHg4AC7u7vUw+jz+WhhSyKM2e12KsRsb29DInnSKlupVFKxSmgIsWHjYuKZsI4GC9sNh3yerXfBehfJMVjRjnyeeHLZ47GGurC2EXsPWOGLGM/EI0q6/sViMeRyORqVFwgEEIvFUK/XsbOzg729PeTzeUxNTWF4eBgGg4F3o3tB6PV6/OhHP8Kvf/3rl30qHA7nGRE+WLPpW7VaDfF4HDdv3sSdO3cglUpRLpdx6tQpvP7667Sg9Icffoj9/X06r7OIrXnk9ZMGu+YTp4rJZEKhUEAkEqFlC4RjQupbVatVdDodaLVaVCoVJJNJpFIpjI2N0Wgndp1lUalU8Pl8SKfTePToESqVCnK5HGQyGVKpFNLpNPR6PU17I9Fw5HzJPovFIr766ivcuHED6XQaMpkMs7Oz8Hg8sNvt0Ol0qFQqNDVQGJk1qGwC+zrpJin28D7oNaVSCYfDQcWqbDZLo8rL5TJtPGOxWOixXC4XPB4PWq0WDg4OsLW1RetXErHKZrPRe8CeMys6iYlTQjtQbCzZ7wR5jy3BIHRsCu0d4RgIyzew2w0SyUitr0Qigb29PaTTadTrdej1emi1WlgsFgwNDaHRaKBWqyEajWJ/fx+dTgetVgsajQYWiwVWq7XvOOy1v+qwouyrPP9xvhu4WMXhvCSEiz0b7UPC0gOBACqVClZWVrC5uYmDgwN4vV4Eg0FYLBYqOigUClqgEngSyRONRvHw4UN0u12MjIzg8uXLeOONN2AymWAwGGgKnVKpRL1ep4KK0JBg/19oHJDt2ZDxZ1nQpVIprUEllUqRTqexu7tLDTQS1k72R8bD7/fj3r17iMVikMvlaLVaUKvVNMycRSgmsa+xBePZ8Rf7PPGGEtFIrVbTVtKRSIQWjCefb7fbqNfrtPD56OgoNBoNdDoddDodVCoVDcuPx+Ow2Wwwm830eMSzXygUUKlUaLcqEkZvs9ngcrmQTqexuLiIUqlEuytqtVrY7XY4HA5q+BMDm0TUEVGPGw4cDudVhTwIt9ttlEolGkm1t7eHbDYLpVKJ4eFhjI+Pw2Aw0M60DocDqVSKp7wwkLVEp9NhfHwc+Xwen3/+OTY3N7G1tYVwONxXt4g0czk4OMDdu3cRjUbh9/vRbDZptz3SFMZms1H7gkRJk7EnYlUmk8Hi4iLi8ThWV1fh9XrRarVgsVjo+gqINzeo1WpIp9PY3NxEKpXC7OwspqamEAqFaM3MdruNvb09URuBpIsSu42tP8VGjYnZT0dFOJP96XQ6aq91Oh1sbGygWCxCKpXSmpes842kG5K6Ydvb28jn8wAAh8NBa4yK2XLCuotshNigCHKxyDByHjqdDslkEgBQr9chkUj66niRbsVETCK/R+BJ1LLBYKDdjUlUHHtupIFMPp+HTCaD0WiknQIdDgesViuWl5ext7eHarUKr9dL7WeHw4FSqURrnG5ubqJUKkGhUMDn80Gv14s6EQcJMRwO568HF6s4nJcMazCwoojT6UQwGES1WsXKygp2dnaQy+UQDodphBQxJoQ1BjqdDmKxGDY2NtDtdhEIBDA3N4cf/OAHdLHtdDrUi0g67wwK5RbzYLELtzCyizBI/GIjq2QyGXK5HPb29tDtdjEzM0NbBpNjyOVyWpBdIpEgmUxCIpGg3W5jfHxcVKxia8gIPbpsnQwxz55Q6CJeUbaAbLFYxM7ODiwWC/V89no91Ot12t0nk8mg1WpBpVJBq9VCr9dDrVZDJpPRyCgidrEPTiStoV6v0/Q9Uq/KZrPRegzZbBaVSoU+CBCxyul04uHDh9jb20M8HodEIoFGoxGNQONwOJxXjW63i1arhUqlgng8jvv37+Orr77CgwcPUKlU8M477+DNN9/EuXPnMDIyAuDrB/pcLscfWAVIJE+63o2OjqJYLOLzzz9HJBLB1tYWtre3EQgEqGOt0+mgVCphd3cXf/nLX7C4uIjJyUnodDrs7OwAAHw+HyYnJ2GxWGj3PWG3Y6VSCY/HQ9fZ3d1dPHz4kNbKIvWOjEYjLfbO2loA0Gg0kMvlsLu7i3Q6jfHxcfz4xz+G0+mkDjPSxIR0/mTtHGJPsKl+bEQ1G70kjBIaFC1E/pbL5dBqtTTavtvtYmtrC5lMBlqtFh6Ph4pVwBM7Ra/XU7Gq1+vR6yI2JZv+J9YxWfgeK0oJRSwx4abX69H0RCI2kVpbpMMg2X+9Xkc6naaF45VKJR1LEqGXSqUQj8dRKpXQarXoMUhNtHQ6jWw2C4VCQWuCEQef1WpFqVSiDXnUajUmJibg9/tht9sBgIqAW1tbKBQKtJwCKUNBYEU2/tvncL5buFjF4bxEhF43trOG2+3G6Ogo9U5ms1l0u11otVraipmITmw3QOLRI545UhScdAMkBUs3NjawurqKtbU1VKtVWtCS7EvoSRIL+2YjlMRCxIWeOoJEIoHRaITT6YTJZKLpiMlkEiqViha/ZPej1+tht9up96xcLiOdTuPs2bO0hhc7rmQ8gf5wfLb2FDm/TqfTl6InFo0lkTwpWh8KhTA1NYVsNovr168DAC32CgCPHz/G8vIytre3aWoJ8bzqdDoMDw9jbGwM8Xgcf/nLX/Dmm2/Sc2s0GlhdXcXKygrK5TKGhobgcrmoEdZsNuFwOOD1erG1tYVYLAaTyQS/3089gUTMWlpaQjQaRaPRoIYfWyCVG1wcDudVpNFo0NTzlZUV7O/vQ6VSIRwOY3JyEkajEcFgEH6/Hw6Ho69TG583+xGKK2azGcPDw5ibmwMAPHr0CLlcDrOzs9SxpNFoUCgUaCOUXq+Hzc1N2qE3GAzC4/HAaDRCqVSi0WiIrtsymQwajQYmkwlmsxkKhQLr6+s0LZ44Z8Qiqtni5yqVCgqFAu12G/F4HFtbWzTyjnSGvHv3Lu7du4d4PA6LxXIoOptd64UR2WScWPGHXYOF0Vas3SWVSqFWq2G322Gz2VCtVtHtduF0OuHz+frEKjImWq0WLpcLdrudOr3C4TA8Hg80Gs0hgYpNtxPaeuzrbBkEsesm+9VoNAiFQsjlcrh79y729vZw584dKBQKBAIBGI1GlMtl7Ozs4N69e1haWkIul4PH44FcLoder8fw8DDS6TRWV1exsbGBu3fvQqVSwePxQK1WI5vN4tGjR1hYWEAkEsH09DRmZ2dhsVigUChgt9vhcrmg0WjQbDaRTqdhtVppB0EialmtVuj1eqRSKdTrdZw6dQp+vx8ajUY0fZXD4Xz3cLGKw3lJsMaJmNeKiFUPHz7E2toaWq0WDQf3er1Qq9XU00c8TiRsudPpQKlU9hXjJsVBSc2jpaUl3Lp1C3t7e7TLUaFQQK1Wo4aHUHwSRiix13FULQaxsHciPplMJqjValQqFfR6PWg0GmrQsJ4tnU4Hq9UKk8kEjUaDYrGITqdDBSBWrCLHEopt5NgkSoqNRhNGhbH7IddKxKqZmRncuXMHq6ursFgstD22VCrF3bt3cfv2bVp8l4h6pLhnKBTCqVOnEIlE8Pnnn8NgMNBrrVQq+OqrrzA/Pw8AGBkZgcfjocX0e70eFauWl5exubmJubk5KlaRwvUej4ca3qRjI+lOKBZJxuFwOK8KzWYT0WgUCwsL+OijjxCJRPDuu+/i8uXLmJubw+jo6KHPsHPmoLXiVYWNQDaZTAgGgzh//jwqlQpu3bqFhYUF5PN5lEolhEIhKrqQ9DSJRIJoNIper4fJyUkMDQ3BZrNBo9H01cYU/iNCjsFgoM1Wtre3EY/HceHCBYyMjMBoNALoj7Qm50wcfGq1GhqNBlKpFIlEAhsbG7RgeTqdxsbGBh48eIDHjx/T1LFGo4Fms0n3ScQwYpMB6Is+EnPYHeUcYxvBkLQ2u92O9fV11Ot12o1Y2MmYRFG7XC44nU4kEgk0m03o9Xqa1ig2nmLpfawDldhNQrtOeM3A191SC4UCjUK/f/8+er0eXnvtNXg8HiQSCTx+/BgrKyvY2NhAp9OBz+ejYlUwGEQ6nYZUKkUsFsPS0hKUSiVmZmZgNpup0Pzo0SOa4nf69GkqVlksFlo+odvtIpfLURHTYrFArVZT4cpoNGJzcxOVSgUXLlxAIBCgYpWwWzP7fef2E4fz3cDFKg7nJSOXy6FUKvvaO8vlclitVvh8PlpTymKxIBAI0OgYkvMvlpqnVqsxMjKCTqdDo6rm5+exv79Pay5JJBKahuf3+1Gr1fDpp5/SWgGNRgNKpRLtdhutVgvtdpumChLDBUBfoXBWnCH/hKIXOU/yus1mQzAYRCwWQ6/Xg9lshtvt7jPCCFKpFHa7HcPDw9jb20Oz2YTJZOpLAyRGI2mpTMLOWaNKGMXGdvkTiyQjKBQKjIyM0Ig2uVyOeDyOP/3pT33tp0lr62q1SsPNgSc1NiYnJwEA8/PzWFtbo+l6xLtZKpVgNBoxNjaGiYkJhMPhvpoUdrudpkmSSKpAIED/NhqNtNuPTCaDw+HA8PAw9TCz18jhcDivGsRxMDQ0hJ///OfodrsIBoMIBAK0qDIAGqVM0n9Id1nhw/mrjNg6otVqMTU1RdOxdnZ20Ov18PjxY6ytrdFxrdfryGazsFqtCAQCkEqlKBQKWF1dRSgUgtFohM/no9uz6zdrQ6hUKlqLaH19Ha1WC3a7HcFgkNoRxEPaBCMAACAASURBVM4SOq2USiVsNhtef/116jC6fv06lpeXYTKZoFAoIJfLMTY2Brvdjvn5eVSrVXz55ZcAgNHRUepglMvlh8RMYRQTG6ktBrsd2a9SqYTb7cbQ0BAODg7QaDRoZJVWqz0UKU22DwaD2N7eRqVSgcvlgtfrhVar7ROnyPdZKMAKnVrsmLPHI6mPpHMysS1I2uGPfvQjOJ1OpFIprK6uIhqNQqvVUnuLRNutrKz0iZ4GgwGhUAg/+tGP4PP50Gg0MD8/jwcPHlA7q91uY3R0FC6XC7Ozs/T6yBjL5XK43W4MDw+jUCjAaDTSKHOFQkG/N0NDQ0gkEgCe1PXyeDyH0gDZe0f+5jYUh/PdwMUqDuclQuo8mM1m6tkj4onFYkGz2YTBYIBcLofD4UA4HIbdbqdFulnPIKnhQMLaiUARiUSwtraGjY0NfPnll1CpVDAYDLh48SJOnz4Nr9eLarWKTz/9FEtLS5iensbo6CiNWmI73xBPk0qlgkajoQYfqTMAfG2ckfMg5yTs1EeEIofDQWuCEHHH4XCIGn0ymQwulwtjY2NoNpsoFAqw2WxwOBw0vZEYs0qlEnq9nhaRJ8ckhpRSqYRaraYiEwtJoSTpASqVitbbGB4eht1uR7VaRb1ex+PHj7G0tIRmswm5XI4zZ85gdHQUVqsVnU4HdrudHkOpVGJ8fBx2ux3tdhvFYhFra2vY2dmh9y8YDGJsbAxzc3N44403oNfr+wxDm82GoaEhOBwOGI1GeDweWpBeIpHAYDDQiDWDwQC/34+RkREaecaFKg6H8ypDxKpAIIDLly/D4XAAEBde2ALawNfOkFc5ukp47WRtBb4e24mJCfh8Pvh8Pjx69Aj37t3D6uoq9vf3kclk+iKGfD4fxsfHoVAocOPGDezv72NjYwMej4fWayL7ViqVfc49sm76fD6Ew2HE43HU63W4XC4EAoE+sYrUjtRqtdQuUSgUsNlseO211yCVSvHJJ59geXkZ7XabFnAfHx/H22+/Db1ej1KphOXlZTx8+BCdTodGu5NC6KwgRq5Ro9FApVJRQYfYUSSKiZwbEX3IeArFuFAohPX1dZRKJXi93iPFKo/Hg+HhYayurkKhUMDj8RyKxGLFFzI2CoWi7/w1Gg19nf0ce+5qtbpvnIld6HA48Dd/8zfwer344x//iNu3b2NpaQntdhtOpxOjo6N48803odVqUSqVUKvVaNS7Xq/H0NAQ3n//fbjdbly/fh3z8/OIx+Oo1Wqw2+0IhUK4dOkS5ubmMD09DZfL1Xddcrmc3r9YLAa73U7T/sg1+/1+hMNhbG5uotVqwe1201pgQgcmW3OM21AczncHF6s4nJeIRqPBe++9h0AggJGREYRCIZjN5r76D3/3d3+H4eFhmM1m2Gw2mqJAjJjTp0/DbDbTaKLR0VFq1JlMJrzxxhtwuVwol8uoVqvUMPJ6vXA4HLQDXTAYRC6Xw9TUFAKBALRaLYLBII2aCofD0Gg0OHXqFIxGI+0+ODo62udRlEgk0Ol0ePfddxEMBmntD1IQnjV0NRoNzp07B6PRiHw+j06ng7m5ub7t2FB6tVqN2dlZ6PV6vPPOO2g2m7h06RI1EIloptFoMDExAaPRSCOgQqEQlEolnE4nFaveeecdnD17ts/4IEbOzMwMTe0jYe3seUxNTVHRj5y7TCaD0+mExWJBq9VCt9uFRqOhAhIRF41GI86ePQu73Y5MJoNCoUANPJJSGAqFoNfr+4xEUrsrGAzi5z//Oebm5mj0ldlspgKgwWDAT37yE4TDYdo9cGhoiBtYHA7nlYfUtDEajX3OALH5kRTMJusQiSThTSoOi1ZCSIQP6eZ74cIFKkoA6CsgbrPZADwprJ7P5xEIBGjamk6nw9TUFKxWK+bm5iCTyWjEMfCkRMD09DSMRiPOnDmDdruN06dPw+Vy0SgeiUQCp9OJX/ziF3jvvfdw/vx5Wi+TNKEhkTjpdJo6x0iKYSAQgFKpxM9+9jNcvnwZWq0WVqsVIyMjUCqV+MUvfoF8Po8zZ85Ao9FAoVDA7Xbjn/7pn5DJZPqOx3YzDAQCVDTp9XoIhUKH6lkplUqEw2GoVCqEQiE0m02cPn2a1v8SRqyT7ch+a7UaJiYmDqUBSqVSqFQqDA0N4Ve/+hUKhQJmZ2dpVLbf78cvf/lLZLNZaqexYhypL6pWq+Hz+QAAw8PD1CmoUChgMpkwMjKCn/zkJzh37hxqtRqtvWqxWODz+aBQKGAwGNBqtWhGALGBHQ4HZmZmqK1VLpfRbreh0WhgNpvh9XppfTMWEoX+1ltvYXh4GMViETqdDqFQiG6j1WoxMjJCnbudTqfvPgkhYwaA//45nO8QSe9Vdg9xnpt8Po+rV6/i3//933H16lX8y7/8y8s+pWOFWDj104QEYb2DbwrxCIkVyCSePjbUmXiPibEudv7kXNgoqEHnJgwjJ1Fkg45Pzpc9PglbJ6IMey3C/ZC/2RoMYucmnALJsdnUQHa7Zx17Nl2BHadvGtkkPC57Xey1kQgA4YOU2H3notW3Y39/H1evXsWf//xnXL16Fb/+9a9f9ilxOJxnRLj+ftP5cH19HVevXsXdu3dx9epV/OpXv/ornen3k0F1HsXGUmwbdh/s50g33EqlglarRWswsoLi854vSSEUs2eA/s54rChBPs86s9joGrHGLOy5PotdR9Zn9jX2PXYM2eMJ9z8oTY29fjaSXOzxjz2fQffqKAbZmYOOQ2BLSAhrdn1be4Xsl03nZd8TKyIv/LwYr6odNT8/j3/9139FPB7H1atX8fd///cv+5Q4JxweWcXhvCSEaXPsa0dtL4QstmxRTOH+WaNcaNywBheB3Rf730HnL9Y1RXge7H/Je8LCnWw0FXt+LKxnS3i97HWICVSsEThIOGL3S9I/hIKcGEIjbZCIR7YTGrmDxlfMEBYr+jlIkBv0PeBwOJxXFbF5Uex9AhEB+Nz5hEFrIisKPG2tEdoGJIqZOJtIhPgg55qYKDRIVGHXW3ZdF0ZxC2GFKdZB9LRxIecitDme5VxZm0s4xsLxFdodbOoae/5C595RHOXUY/f7/+zdWXNbV3b28QckAGIGZ5DgpFnUZGuwPMntdux0x6lUuitXqcqXyMfKRa6Sqo5T8dtut+VZkyVbg0WKEklJnGcQADG+F659euPwgCJp2QKp/6/KJRPjwXTOOmuvvbb79Xr9Xe9x6j2PvYKi/VimHYX7NdTbDvt6e9pivRh1u0m43Qw4Avh5SFYBL4DXaNhuR5DsUSHzePbz1EtS1LvcK6ByB/PbCR7dFVTu1+8OstwjjHbDefdr8qr0elbQ5DVK6X6t9ntmRiLtx9nq87FXG7LfC3fw6h7Fq5fscz/fVoFVvaSc/Rh2kgwAXnbu45BU2xDbfQx0V8C8rOz3xSuWsSufbdtJVJg+l/Zl9v1NBbFX0qje8dlOMLiP61s1zLZfj51884or7Oexn9eudvL6nrnjA6/XYl9vklVme72SKO5jvp3ccj9PvUFF9+3cr9WOW72qtuslgc1124lj7Nubz8HuqeX1u/T6PtarqHK/bq940/04XkkvAL8sklXAC+Y++G1VAeMVHJqkhztYcCdL6j2+e+TNqzKrXjLFvf1eyaLtjNJJtWX47sBjqyDXKyiqN1JuByTPstPRM/eUxHoBjd3/pN6Jkf2vvd31gr/tvBa7IS0AvOzMcc8rcVDveEmyqpb7vbOPb9u5r7vSeKu4x3589zHUcCeI3J+pGSAyl21ViWTf3z4O1xtEsv+2L3cvLmNv53beI3s7/H6/c5kdl9WLzZ71OWz1fpnn94pT3DGLHfvUG6S0X7/7fvXiG/fnbl63+3r3++/1e60X/9jxkVu9mBTAr4dkFfACuJMvXqNB9UqW7b/rJbVsXoGfPSJmRuvqBWDPqvzyGpHbapvqjUS6t8MrUbUd7sevt73u+3jdbqfJKmlzTyn349sjq1slJe1/n7Ud23mPdvp6AGC/8hoMMH+7b2dXsqCW+/3xGnjZil2JVe9YaCcZvKqq6z2u1+3rJVnM3+5KJfd93Pfz+h7VmzLmdR83r+SX/f7a1dj1kkL1Bve2qtyqN821XuWZeV3u3pz251mPPfhmb5tXxZd7euNWvcXs6933cz++1zZt9XmQpAZeHJJVwAvilQR6VpnxViPA5nqv20i10wXtUUmvnkxegZrXCNhWo3r11LutezvqjUC6A0z3+7DVttQLMu3rvbZpJ3YyArfV++q13XaQt5P3favKNAB42XmdQNc7xu10AGU/cx+X6iVO6h137IqZerfdzmCN+zbbXRzFK7lhDxZ5JZy8Bp/c27udxFS91+J+HK/kX73Yy/1824mL7NdRLwnn9f33en+283nar8H9eryu22pw13AnCL3iVK/H3cmAoJ2cI3kN/HpIVuG5cgdx9UbY2MnXJo/qJYpsXkkKr/fXDhrtoMGs8GdWi7Mfz+tvw+vgXq8yyitotG0VgJgRQ/vxvQJO8//2e7DdRJW7YswOOrxOVNxB17Nel9mu7fSF8nrv3L2/vN5r+3bb2R6v95Tf3/PlNRpuYz8INC73oI6ddNnOb/Rl/f27j0mSd+LIHbfUix/ctze3sZ/P/bhex+btPK75292LyMQhdkPveskXd+zm9brclWNer8PNnWTxirvq9dhy37/e+7ad98ydlPGKJ9zxol35tVWF1VbfBXs7vWIg9+3s6i53BZZXiwyv53hW7Gh/z591+5fVy7Lfw6+PZBWeu3ojD/VG3l5W7oqlZ+3A6x2o3bcxiSf3+1xvtZidjsDV24adHoCeNdrmvv7nHuC8XudW7/+vfUD1CkDtYNXezp0knLySofj5nvVb9Eoub3U5gF/PVsef7f427f3qdu3X/XC95N5OjlPP83m387he8dB2H3e7z7WT79NWt98qafesbdiN7cZnP/d3tJPrt3oud0/O7fbo3GncbS8AhM3qnefVW80R2A6SVfhZ6o1emR2T10mau3rlZbSbE9XtBij1AiavSpydBpbP6wT7l05UbSdw3UnC7ZcOuLeThNzNc+z2ftgee//nPnG1R3brXQ7g1/esE+zt3N8d27h//+4qXvvy/TaN6FkDWL/UQNDPjUe2ioueV3yw0+P1Tt7Hn3u7nT7OTh7/ecaJu3m+7f6On3Vb93UctzezK/HsCkv7ersibb8m7PHLIVmFXXMvWSttngZlr4pmn9ht1bAbAPYCrwS8e+l2s4/z6hkHYG961qCbOSlzV5rvtNIGABqVO/7x6n3m3v8BO0UdI3atqanJ6X8k1U5vsZNVXo0P7RU9AGCvsaeQ2AFbuVyuKXk3TLLKfTmAvelZ04x8Pp/zu39WvyEA2Gvq9RVzX+9V3ABsF5VV2JWmpiYlk0n19vYqFovVvY20eSoSGXYAe1lzc7M6OjrU19eneDxeE4T5/f5NjWXdDXMB7G31fssmIW2u327vHADYK+pVibqnP9dbBAHYCZJV2BWfz6dYLKauri6Fw+Gay+154PYKb/b1Xr2uAGAvaG5uVjKZVCqVUjQarQnW7NWjbHYlFoC9zysB5Z72YpJV5jp3DysA2GvqJavsZL3EOR6eD5JV2JVKpaLV1VVNTU1pbW1NpVLJCc7cq12ZaX/2SCMA7FXlcllLS0uamprS6uqqSqXSls1x7QQ+FRbA/uB1Iua1Gq+ZDmj/DQB7kTnHM1Oc7fM790wa9wIzwG6QrMKuVKtVra2taXZ2VplMRuVy2UlE2Q2G7eSVfV+CNQB7ValU0vLysmZmZpTJZJxkvTsRb1b9I0kF7C/1VjfeqnKK2AfAfuBOWNVr71JvJg37QewEySrsWqVScRoJmxMyqXa6i8m4Nzc3O01GCdgA7GXmhNQk6QOBQM11LM8MvBzq/b7dqwBudVsA2CvMOV5zc3PN/s0+t/OKf9wzb4DtIlmFXdsqWSVt7t1gsvAAsNfZI4p2qbt7JNEdnJHEAvYnuzeV1/QYpsMA2OtMssq9wp9XnGNub7APxG6QrMKubbUEs524MiOMpsKKkzQAe5m7J5+diPfaJ9Zb1hnA/uBOQrunxbgT2OwLAOxFdjJeUs0iEuZ69//b+0USVtgpklXYtebmZvn9fpVKJa2vr0vaXC1gpsqUy2U1Nzerubn5RWwqADw32WxW5XJZfr+/JiHvtdqXV9k7J6nA3maSURsbG8pkMp5JqHrxkKk4Z7EZAHtNNpvdtKhMvZVRzb9Mh8bPQbIKu9LU1KS2tjZ1dXXpyy+/1PT0tCTv5UrdFQgAsJfl83lNTk5qYGBAiURi0/L05XK5prKCHlbA/hEIBNTd3a1oNKqPP/5Yd+7c8VwF2XjW3wCwVywvL2tlZUW9vb0KhUKe+zKvlQEl2iBgd0hWYVeamprU1dWl/v5+3blzRx9//PGmMndJTvPh5uZmlUolFYtF53IA2ItaWlp04MABnT59WslksiYwK5VKTnm8Pe3ZlM7XmzoNYG8IBoNKp9Nqb2/XlStX9Kc//cn5zXsN2NnMPsGeRgMAe0UsFtPQ0JAGBwcViUQ8+1PVq7QiWYXdIFmFXQkGg7p48aISiYRWVla0trYmyXvE0PS2MlNlAGAv8/v9SiaT6uzs1JEjRzY1UjfTA212lRWAvSuRSOidd95ROp3WysqK0wbBCydnAPaTYDCoRCKhdDqtgYEBSZv3c9tNYAHb4auSPcAvwJ4SY+/E6NEAYL+wm6ub/zfLOdsI0oD9w45vjHq/cXtVZEnOvoKeVQD2Mvfqp9LfevnZ+zmSVfi5qKzCL8ru38COCsB+Y5LwVFAAL5ft/NapsASwn9mFCHZiiv0cnhcqqwAAAAAAANAwqEEGAAAAAABAwyBZBQAAAAAAgIZBsgoAAAAAAAANg2QVAAAAAAAAGgbJKgAAAAAAADQMklUAAAAAAABoGCSrAAAAAAAA0DBIVgEAAAAAAKBhkKwCAAAAAABAwyBZBQAAAAAAgIZBsgoAAAAAAAANg2QVAAAAAAAAGgbJKgAAAAAAADQMklUAAAAAAABoGCSrAAAAAAAA0DBIVgEAAAAAAKBhkKwCAAAAAABAwyBZBQAAAAAAgIZBsgoAAAAAAAANg2QVAAAAAAAAGgbJKgAAAAAAADQMklUAAAAAAABoGCSrAAAAAAAA0DBIVgEAAAAAAKBhkKwCAAAAAABAwyBZBQAAAAAAgIZBsgoAAAAAAAANg2QVAAAAAAAAGgbJKgAAAAAAADQMklUAAAAAAABoGCSrAAAAAAAA0DBIVgEAAAAAAKBhkKwCAAAAAABAwyBZBQAAAAAAgIZBsgoAAAAAAAANg2QVAAAAAAAAGgbJKgAAAAAAADQMklUAAAAAAABoGCSrAAAAAAAA0DBIVgEAAAAAAKBhkKwCAAAAAABAwyBZBQAAAAAAgIZBsgoAAAAAAAANg2QVAAAAAAAAGgbJKgAAAAAAADQMklUAAAAAAABoGCSrAAAAAAAA0DBIVgEAAAAAAKBhkKwCAAAAAABAwyBZBQAAAAAAgIZBsgoAAAAAAAANg2QVAAAAAAAAGgbJKgAAAAAAADQMklUAAAAAAABoGCSrAAAAAAAA0DBIVgEAAAAAAKBhkKwCAAAAAABAwyBZBQAAAAAAgIZBsgoAAAAAAAANg2QVAAAAAAAAGgbJKgAAAAAAADQMklUAAAAAAABoGCSrAAAAAAAA0DBIVgEAAAAAAKBhkKwCAAAAAABAwyBZBQAAAAAAgIZBsgoAAAAAAAANg2QVAAAAAAAAGgbJKgAAAAAAADQMklUAAAAAAABoGCSrAAAAAAAA0DBIVgEAAAAAAKBhkKwCAAAAAABAwyBZBQAAAAAAgIZBsgoAAAAAAAANg2QVAAAAAAAAGgbJKgAAAAAAADQMklUAAAAAAABoGCSrAAAAAAAA0DBIVgEAAAAAAKBhkKwCAAAAAABAwyBZBQAAAAAAgIZBsgoAAAAAAAANg2QVAAAAAAAAGgbJKgAAAAAAADQMklUAAAAAAABoGCSrAAAAAAAA0DBIVgEAAAAAAKBhkKwCAAAAAABAwyBZBQAAAAAAgIZBsgoAAAAAAAANg2QVAAAAAAAAGgbJKgAAAAAAADQMklUAAAAAAABoGCSrAAAAAAAA0DBIVgEAAAAAAKBhkKwCAAAAAABAwyBZBQAAAAAAgIZBsgoAAAAAAAANg2QVAAAAAAAAGgbJKgAAAAAAADQMklUAAAAAAABoGCSrAAAAAAAA0DBIVgEAAAAAAKBhkKwCAAAAAABAwyBZBQAAAAAAgIZBsgoAAAAAAAANg2QVAAAAAAAAGgbJKgAAAAAAADQMklUAAAAAAABoGCSrAAAAAAAA0DBIVgEAAAAAAKBhkKwCAAAAAABAwyBZBQAAAAAAgIZBsgoAAAAAAAANg2QVAAAAAAAAGgbJKgAAAAAAADQMklUAAAAAAABoGCSrAAAAAAAA0DBIVgEAAAAAAKBhkKwCAAAAAABAwyBZBQAAAAAAgIZBsgoAAAAAAAANg2QVAAAAAAAAGgbJKgAAAAAAADQMklUAAAAAAABoGCSrAAAAAAAA0DBIVgEAAAAAAKBhkKwCAAAAAABAwyBZBQAAAAAAgIZBsgoAAAAAAAANg2QVAAAAAAAAGgbJKgAAAAAAADQMklUAAAAAAABoGCSrAAAAAAAA0DBIVgEAAAAAAKBhkKwCAAAAAABAwyBZBQAAAAAAgIZBsgoAAAAAAAANg2QVAAAAAAAAGgbJKgAAAAAAADQM/4veAOwP1Wq15m+fz7fl5QCw37n3f27sD4G9j/gHAGoR/+B5obIKz5XXzqlarapcLj9zxwUA+121WlWlUmF/CLwEKpUKv3cA0N/iH2AnqKzCc2OCMXdQZoI1n8/HSCOAfaPeCehW+zVz4trc3PxLbRaAX5nZF7jjnGq16vzeiX8A7Bc7jX/sRFW1WmX/h20jWYXnyiSlDJ/PJ5/Pp6ampprS+Gq1qqYmCvsA7G1mf2aCL/Nfvdu594cA9j57sM7eB7j3B3ZSCwD2Mnf8U++8bjsxElAPySrsSr3pfva/Zmfk3nm5d24AsJe4KyfsaT5eFRTmdiZJz34P2LvqVRR4VU7Vi3/YDwDYi+xzPRP7uJP0Xvdhv4fdIlmFXXNXSLl3VPV2SGTWAewX7hNSs18zQZwJzuzLJRG0AXuYe1CO+AfAy8TEPnaSnvgHvwSSVdg1r+kvRr3VcMx17KQA7Af19mcmWLNPTn0+n0qlElWlwB7nrhQg/gHwsvHan9kVV+7kvJ3EAraLZBV2bSe9GExg53U/ANjr3COJZjqge19X73IAe4f7JKxe/ONuj8BJGoD9xh3/2DNujHqXA89Csgq7YoI0OxDbqo+D/R/BGoD9pl4llVS78s1WTUgBNL6dxD+SanraMVgHYD/xqqSyYxw7/mH6H3aDZBWeCxO4ec1ddu+Y2FEB2Ou8KqlMPwazKqrZL5rL6VcD7D/Pin/cfV0AYC8rl8uSVFNJZfZxlUrFSVa5E/UM1GE3SFZhV7YKvLZKWLlHJDlpA7AXVSoVJwnV3Nxck7CqVCpqbm6WVFtZam4LYO/abfxj/p/4B8BetVUllUliuatOvfpXAdtFsgq75tWHyqtfQ70KKwDYq8yIYrVaVblcrilvt09IzW0N9oPA3red+MfG7x7AfmD35Ky36l+95BT7QewGySrsmtlRefVicVcTsIMCsJ+YfV2pVHJGE02FleG1Uqq5XGK/COxVdmWBVD/+4TcOYL8x0/5KpVJN2wN3Lz+vaX/EP9gpklXYNXuesj1H2XBf/qxVcwBgr7BX9zL7MneFlX2yyoqowP5hYp96Sal6U1+IfwDsdWb/Ziqs7OIFVoTH80ayCrtWKpVUKBScyoKmpqaaPi3lctlJVtkJK3ZYAPaDpqYmBYNBBQIBZ39Xr6GyHazZZfMA9pZqtapisej8Z3rU2ZVVXvGPjfgHwF7W3NyslpYWNTU1qVwuO8krdxsEifgHPw/JKuxKoVDQt99+q+vXr2t5eVmrq6uSapuLemXa2TkB2Ov8fr/a29vV29ur1157TSdOnHD6ONgVFO7yeHo3AHvfysqKvv32W925c0fLy8vKZDJ1T874zQPYT1paWtTe3q4DBw7otdde09DQ0KYZNGbxGbuXFftC7BbJKuxKoVDQtWvX9B//8R9aXFzU8vKyM3fZ5g7g6vVuAYC9IhgMqqenR8PDw2pvb9eJEyc2Tf8zPW0YRQT2l7W1NX355Zf605/+pMXFRa2urjqVVDbiHwD7TSQSUW9vry5evKh0Ou0kq+xElTv2If7Bz0GyCrtSqVS0tLSk+fl5Xbp0SRcuXHB2UACwn2UyGX399deamJhQJpPxDMRMLweCNGB/KZVKmp+f18bGhn7/+9/rxIkTxD8AXgqzs7P66quv9PTpU+VyuU0xjr3YBPEPngeSVdiVarWqlZUVLSws6Pz58/r3f//3F71JAPCrePz4sSYmJnTr1i2tr697BmsEacD+VCqVtLS0pI2NDb377rv6t3/7txe9SQDwq7h+/bp++OEHTU9PK5/Pe8Y/pn8x8Dxs7voIAAAAAAAAvCAkqwAAAAAAANAwSFYBAAAAAACgYZCsAgAAAAAAQMMgWQUAAAAAAICGQbIKAAAAAAAADYNkFQAAAAAAABoGySoAAAAAAAA0DJJVAAAAAAAAaBgkqwAAAAAAANAwSFYBAAAAAACgYZCsAgAAAAAAQMMgWQUAAAAAAICG4X/RGwCg8VSr1brXFQoFlUolVSqVLW9n8/l88vv98vv9am5uVlNTbZ7c63Gq1arK5bJKpZLK5bKCwaACgYAqlYrK5bLK5bIqlYqCwaD8/u3tynw+35bXP+v1/Nz77/Tx0NjM57fd7437dnz+Lxc+/8a00/224f5dP+t3zuf/y9jJ51etVmtiCPO34fP51NTUpKamJjU3N6u5uXnT51SpVFQsxbQd9AAAIABJREFUFlUqlZzbmdjGfTvzPKVSSZIUCATk9/ud53HfvlAoqFwuO9eb2KZQKNTEOz6fb1vHn0ql4mxvtVrdMl7a7vHsWdzv107ixJ3cj99PY2D/h18aySoA25bP53XlyhXdvHlTi4uLWllZca6zDzz2Qcnn8ykcDuuVV17RyZMn1dPTo87Ozi2fp1wua3l5WbOzs7p+/bomJyf1/vvv6/z585qZmdHTp0/14MEDLSws6O2339bZs2drDojVanXTgXC7B0b7/j6fb9Pf230Mr+2xL+NAvbfxeQL7h9lPuxMI9XgdH7bzeO4TOzwfW50wm8vK5bIymYwWFhb04MEDPX78WKurq1pfX1ehUJAkJRIJtbe3q7e3V+l0Wn19fWpra6t5/MXFRX3++ed6+PCh2tralE6ndfLkSQ0MDNRsUy6X0/j4uMbGxnT//n0VCgVdvHhRw8PDam1tVTQarbn94uKivvrqKz169EixWExdXV06evSompub9dlnn2lhYUHvvvuuTp06pZaWFgUCgS1ff6FQ0PLysp48eaLvvvtOGxsbeu+993TixIma+9X7ntaLe57Xd9jrM6p3G34vjcUkdNn/4ddAsgrAtm1sbOjGjRv6z//8T01MTGh6erpm9NEO3qW/BfTJZFJ//OMfFY1GFYlE1NHR4fn45n4mWfXw4UN99NFHunLlirq7u/Xqq69qbm5O9+7d02effaaHDx+qq6tLZ8+ede6fz+dVLBY9K7m2M8JnRlrNKKn993bv7/V4TU1NzvuDvc9rZHu7lRbY235OBSXB+ovn9fmZSuF6FSvuz8tU0/h8Pmf/Xu/x3M9tTuL4DuxOvUps+311n0Sb2GB+fl6jo6P66quvdOvWLc3NzWlpaUnr6+vy+Xzq7u5Wf3+/hoeHdfLkSfn9foXD4ZpKq+XlZX322Wf6/PPP1d/frzNnzqijo8NJVpnty2azGh0d1eXLl/XnP/9ZmUxGpVJJra2tCgaDikQiNa/BPO4XX3yh3t5eDQ8PKxQKKRAI6KOPPtLY2Ji6urp0+PBhJ76p9/qln6qxFhcXdffuXf3Xf/2X1tbWNDg4qOHhYec2pqrMK27x+v7b76v7/TW3q/f52NebyjTzGC0tLZsq09z38/obvz6fz+f8FiTV3f9Jtd8r891h/4edIlkFYMf8fr/6+/vV39+vgwcPqq+vz0lYmSDd/F2tVtXS0qIzZ87o0KFDSiQSqlQqnpVP5jJ3Kb45EPp8PsXjcSeQSyQS6uzsdA6W+XxeX331le7cuaODBw9qcHBQqVTKqeTaKnngfu56f9e7v9d15jWZ7Tevm4P03ueVlLUvt08G7BFGPvv9azuVAnz+jcP+nZoqAfty+8Tb/q37/X61t7crlUopGo3K5/M5J95+v7+m6sDc194vcKL2fHgda83l9ue3sbGh5eVljY+P6/PPP9ft27e1sbGhSCSiV155RZFIxLltoVBQLpfTyMiIxsfHNTk5qdOnT+vUqVNOMioYDKq7u1vd3d3K5/OanZ1VLper2a5yuaxcLqf5+XnNzMxofX1dGxsbmpub09OnT52YxEzTq1aryuVyTsX64cOHlUql1NbWpnA4rDNnzqi9vV3pdFrBYLAmpvA6DrkHD93JJ8N9XLKTrF7HLK+klv0ZuBO07qStz+fT2tqa7t27pydPnqhUKimRSOjUqVPq7+932juY38h2Esf4dQUCAXV0dKhSqTi/HTPN1cTr9v7PTlyx/8NukKwCsGPNzc3q7e1VKpXSpUuXdP78eecgZYKvQCCgpqYmlctlSVI8HlcsFpPf76+b7LEPYHaiyr48Foupt7dXGxsb6u7uVldXlxOI5fN5Xb16VR999JHeeustlUoltbS0qKOjY1PQUy/4cSeT3H+7g75njfyZ+9cbacfe5E5WuS+3vw8mWCNhtT/VqySgGqAxmcoOM3jgdYJleFWK+P1+JZNJdXR0KBwOO/v3crnsPI6dLLATCpyoPR9en5OkTftak6x6+vSpbt26pf/7v//T7du3dfz4cZ08eVJnzpzRwYMHFY1GVSqVNDExoXv37mlkZESTk5OamprS3Nycksmk0um0fD6fAoGAurq61N3drfHxcSdZZccW5XJZ+Xxec3NzmpmZcSq+TbLqyJEjzu3Mf9lsVsvLy8pkMopGo+rp6VFra6vi8bjOnDmjdDqt3t5eBYNBp9LbHgxxJ4vcAyhe+yH3scs92FjvvbfjGvv9tq+3H88kKarVqtbX13Xnzh199913KhQKSqVS6u7uVjqddpJV5jXZg57ET40hEAiotbVV5XJZLS0tkuT0f7NjHDvuZf+Hn4NkFYAdMwFbOBxWW1uburu761Ytmb9NObv7pMAdWJlmpKaJu/S3Ue9qtapIJKJUKqVQKKRcLqdUKuVcb0rLzSi3ua+7Usrr9dgBnRnZs+9nLncnr0xwZUbU3Y9Vb6STCqu9zX0yav62/5O0aYQY+w+f7d6SzWZ1//59zczMKB6Pq62tTb29vWpra6vZRxvuE/pisailpSXNzc0pl8s51VbuKefuk3Q8P1sNINmXVyoVLS8v68svv9TXX3+tUCik3/zmN3r99dd1+vRpdXV1KZlMOou3tLW1qaenR319fbp//77u3r2r27dv6+jRo+ro6FBvb68CgYA6OzvV1dWl0dFRzc/PK5vNqlQqOdvV3NysSqWiubk5zc7OKh6PKxgMan19XY8fP9b6+rpzu1KppNXVVS0sLCiXy6m5uVldXV3q6+tTNBpVNBrVyZMnnXjHblHgHgAxSQN7Sp37mGTua9/PK15xv5dej+WVzLWf16sHnNdj2Qkqr0Edr2Qk+90Xo1gsanFxUfPz89rY2HD2f5I8939bfUeA7SBZBWBXTC8H05BUqq0mMEkcqXZan2EqsOxVearVqkqlkgqFgvL5vHO5eexq9acphaFQSNFo1Fkdx+fzKZfLaW1tTdlsVhsbG8rn88rn89rY2FCxWHTm2Nsjme5RH3tbTT8So1AoOI9jH5BzuZyKxaJisVhNDwp3wsqd3PDqz4C9ww6ey+VyTd829+0IqveXZ32e9QLzetUg+HXl83k9ePBA9+7dc5ppNzU1OSul2Qlmr5PtUqmk5eVlzc/PO9O/7EoUd4XKTnom4tm8Kha9KodMPLG4uKgrV67om2++0euvv663335b7733nk6dOlXzONVqVX19fTp8+LBOnDihW7du6eHDh7pz547u3bun3t5eRSIRtba2OsmqUqmktbU1p0m73cOzXC5rfn5eCwsLGhwcVFtbm3K5nJ48eaJMJiPpbwNxKysrWlhYUD6fd5Jh5vlaWlrU39/vxDvu5Kd5ncVisWbVQLNyc733zq6AMvGNnWC1YzYTy9mrCborw0xMZ16X6etmD+KVSiXl83nn+cw2r6+va319XeFw2Ekcev1eqFB/8YrFopaXl7WwsFCTrLJjInfsL7H/w+6RrAKwK+7Scnew6NVQ3Py/WZVnaWlJd+7c0ejoqNbW1pTP5xWNRhWPx9Xa2irppxV17MqVubk5TU9Pa2RkRPPz87p06ZKGh4f19ddf66uvvtLVq1f19OlTff3115qZmdHk5KSmp6d19OhRpdNpTU5OamJiQuPj43ry5ImzVHQsFlN7e7tOnDihI0eOKBaLKRAIyOfzaWNjQ/fu3dP4+HhNEFcsFjU2NqbV1VX9/d//vd58803PaYTmtZvXwajg3ueunHBzT88w9+Fzf/mQpGos4XBYx44dk9/v18TEhG7cuKEffvhB8Xhchw8f1oEDB5ROp9Xe3l63yqpSqTjVv/yuXxyvz8b8u7GxoYmJCf34449aXV1VIpHQ6dOn9dprr6mjo8OZtun+7AKBgNMb8/Tp0yoUCpqentbVq1fV19enrq4udXV1qbe3V+FwWIuLi06lSVtbm1paWpTJZDQ3N6f19XUFg0EdP35c3d3dunLlip48eaK1tTVnkMNOfpZKJadivbW1VU1NTXr8+LH+/Oc/a25uTu+9955Onz6tQCCgarWqTCaj2dlZ3b59W48ePdL6+rrK5bLi8bgSiYQSiYRWVlac1Q7t41alUnGazn///fd6+PChVldXVS6XlUgklEwm1draKr/fr5WVFYVCIZ0/f14HDx504qKpqSk9fvxYo6Ojevr0qbLZrKrVqhKJhFKplI4dO6ahoSG1tbWpXC5rZGREN2/e1Oeff667d++qUqmotbVV2WxWExMTeuONN3TkyJFNFTnmbzPIx+/txbGTlOz/8GsgWQVg18yBym4S6g7+3KOeZhrFwsKCHj58qL/+9a/6/PPPtbCwoPX1daVSKfX29urEiRNKpVLKZDI15e7z8/O6e/euPvnkE42MjKizs1MHDx7U7du39fHHH2t8fFxzc3NaWVnR5OSkE6TFYjG1trZqbGxMV69e1fXr13Xnzh2nfL+zs1MDAwMqFApKJBJqampyKqWKxaIePHigr7/+2nldgUBAxWJR169f1/z8vIaGhvTGG284r9kdOJv3yF5FBXuXV7LKDtrs0UX3SpJevUOw92w1/WWr6wnuX6xQKKTDhw8rFArp8ePHevDggZ48eaJKpaI333zTmYoVCoVqpoPbPXRMRWW9ChAbFQXPl1erAa8K1nw+r8nJST148EDr6+uKx+MaHh52Vg8ul8ubjtXmv1gspu7ubp04cULLy8u6d++estms3nnnHafBdE9PjyKRiJNsmpubUyQSkd/v19LSktPLKhwO6+jRo+rv79eVK1c0PT2t1dVVFYtF+Xw/NadeWlrSwsKCqtWqE6skk0nl83lNTU3pv//7v/Xjjz+qs7NThw8fdvqBzs3N6c6dO/r444917do1ZTIZVSoVpxm7WdEwn89vakNQLpe1srKisbExXb58WVeuXNHc3JwKhYK6u7udXlLBYFAzMzPOFMmhoSFJUiaT0cOHD3Xjxg199dVXunv3rlZWVlSpVNTV1aUjR47o3XfflSSnGmt0dFTXrl3TrVu3dP/+fee9XllZ0fr6uoaGhpzXZz5bu+E6A32Nwb3/cycWbez/8HORrAKwK+VyWYVCQWtra1pcXNxUXm6YUvCWlhYFAgGnP8OXX36py5cvK5PJKJ1O6+zZs85IdrFY1PT0tG7evKnp6WmnxNgcFN0NcQOBgN566y1FIhEnaDt48KCOHDmi8+fP6+TJk6pWq7p27ZouX76sGzduqL29Xb/73e8UCoXU3NyshYUFra6u6urVqxobG9OHH36oS5cuOSOY0k9Jq5mZGa2urqq7u1sdHR26ePGiWltba5aDdifn7FFBAq39wQ6cvXoy2NexCuT+t1UCks+9sfh8Pifh8NZbb6mvr0+zs7PONKybN2/qxx9/VGtrq44cOaKhoSF1d3c71b6SaqY4eam3khrfhefDXVHl1cOqUChoeXlZy8vLCoVCSiQSCofDNdU5W/1eg8Gg2tvb1dHRoWq16lR/V6tVhcNhJZNJJZNJhUIhLS8va2pqSh0dHWpubtbMzIxmZmYUCoWclZNTqZRisZhmZma0tLSk6elpdXZ2qlAoaHZ2VnNzc4rFYkokEopGo5taCdgLzlQqFS0sLOgvf/mLrl69qmw2q2PHjimVSikej6tYLCqbzerhw4eamZnR9PS0UqlUzetbXFzUp59+qu+++04LCwsaGBjQuXPnFI1GtbGxodXVVU1OTmp5eVktLS3O9980ih8dHdWnn36q0dFRpVIpHTlyxImXTEsGE8N9+OGHOnbsmIaHh53338R77e3tunDhgs6ePasDBw54fib0qmoc7sS9tHnfxmIyeJ5IVgHYMRMIrq+va25uTo8fP3YCKbsHlfRTwBcKhdTR0aFEIqFCoaClpSV9++23+p//+R+dOnVKZ86c0euvv66TJ09qbm5O4+Pjun//vtMQtbe313leu5+CSRIEAgFduHBBR44c0fz8vJ4+fapz587pjTfe0CuvvKL+/n5du3ZNN27c0NWrV3Xnzh394Q9/0Pvvv6/u7m6Fw2Fdu3ZN165d05UrVzQzM6P+/n6dPXtW0WjUeW6TRHv69KkCgYDS6bTOnz/vNGq1Ry69pv549drA3mT3ZjPVe+7r7d41XquN8fnvfebztHt0kJhsbGb/HIvFdObMGQ0PD2txcVHj4+O6fPmyrl+/rpmZGfl8Pr3zzjva2NhwjjMtLS1ORc5WiydQXfDLq1dRJf30ezTJqtXVVbW0tKi9vV3hcHhT/0yv47HP51MwGFRra6va2tqcKXf5fF6VSkUtLS3ONLlwOKzV1VVNTU3p4MGDCoVCmpmZ0ezsrMLhsNrb29XX16f29nbFYjFJ0tLSkmZmZhSNRlUsFp3eVrFYTH19fYpEIjXHD3drBZPg+uKLL/T111/rlVde0dmzZ/Xaa6+pp6dHMzMzunv3rn744Qd99913klSzEE6pVNLCwoK+/PJLffPNNzp06JBOnDihN954Qz09PXr06JFu3bql69eva3R0VENDQ852FAoFPXnyRD/88IO++eYbLSws6F/+5V906dIldXd3q1qt6t69e7px44Y+/fRT3b59W4cOHdKBAwd08OBBdXZ2am1tTaFQSJVKRT09PfqHf/gHnTlzpm4yyt6/Ej+9eGaGQL3Pq97+j88Mu0GyCsCOlUolTU5O6tGjR3r8+LE+++yzLYP2eDyu3//+97p48aKePHmi0dFRp4fE+fPn9bvf/U69vb3q6OhQPB5XPB7XxMSEVlZWNDMz4zT+NCf7pgTZrPrnXu3P/s8EdmZJ6mQyqUuXLuncuXM6fvy4otGoAoGAzp07p3g87iwdvbi4qJGREQ0ODjrN3M1zRaNRvfLKK/rggw+USqXU2dmpcDi8qb+CVH/VnXoj8tgbqtWflkQfGxvTN998UzPiXa1Wa6YL2aOOJKv2B1NVY6ZCmAS91xRgNLZyuaxcLqfV1VVFo1EdO3ZMbW1tymQymp6e1ieffKIrV66oq6tLJ06ccFaYswdlnvVZe1VfYvfqvd/mPTbH11wup2w2q2Aw6KzIZ9/X/H69qp6bmpoUi8UUj8edJI290IpphN7Z2al8Pq/Z2VltbGyoXC47fazi8bh6enoUj8cVCoXU09OjqakpZTIZTU5OOgmklZUVra6uqre31xlAc8cRZiDQ9MO6e/eustmsOjs7dfHiRf3mN79RT0+PM40wGAxqenpaxWLRmeZq4qGFhQU9fvxYS0tLCgaDOnv2rN5++2319/crFospGo3K7/drbGxM+XxesVjM2Zb19XXdu3dP9+/fV29vr4aHh3X69GkNDQ0pEok4VWB+v1/T09OanJx0klsmIWV6vpl4zrzfXj3ivCrn2Le+OO6eVRLHOvyySFYB2LFyuazZ2VnNzMzo/v37NT2Y7Konc9vW1lb19/dreHjYaXiayWTU2tqqV155Re+//35NkNLe3q4nT55oeXnZqXQyU6mkvx0s7WSVmx3gmGBtZGREw8PDTjWXaeQpSW1tberu7tYPP/ygkZERLS8va3R0VLFYTOFwuCYJEYvFdOrUKacfg9km87xbcZf2Y28yyapHjx7p2rVrzkijabpslrI3vavqTZPF3mNWjjOft9kXuaurvLhPuvDrs5OJ9u/R5/MpFAppcHBQ8XhcMzMzevDggb777jtls1klk0n94z/+o3p6erSyslKTrHLbqn8L+/3nY6v30cQghUJBGxsbCofDzsCUvcKd+QzdC2GYxzD3M49lVrALBoNOsqqjo0O5XK4mWbWwsKDFxUUNDAyov79f8Xhc4XBYqVRKXV1dymQyevz4sY4fP65QKKSVlRWtra3pyJEjSqVSCofDNa/HXj3ZTO+7f/++8vm8urq6dO7cOb399tvO++Lz+RSJRDQ9Pa2VlRWn96epEJ+bm9OTJ0+0srKiYDCoU6dO6dKlS078lkqlFAwGdevWLc3NzdV8z7PZrO7fv6/R0VEnnhoYGFAymXSeP51Oq1wua2BgQIuLi5qamtK9e/c0MDDgTP+zE/2G+/foTlaZ94HpgC+W+3Nzc+//7H0tnxt2imQVgB3z+/06cOCAjh49quHhYWd1GJtd2RQKhXThwgWFw2FtbGxoeXlZkUhE/f39ToNSO/jw+/1O6fy9e/c0OzsrSc5Jvyk/tsuQ7eSYmaZh9xRZXV3V/Py8/H6/uru7nTJ7OzANBAJKJpPq6OhQsVjU7Oys8vm8M+ra1NSkeDyuaDSqUCi06fV6TQG0gyx3OT/2tkqlomw2q+XlZed7ViwWa1aZcgfbJCj2PpOs8vv9KpVKTsLKJKsk76SUO3DHi1MvmWQ+m42NDW1sbDgnx7lcTj6fz5kKJqnm+OI+EfNKUnGi9stxH3tNfGCqhHK5nJaWlmqmbJsYwWvAy1T+mMoss3JfS0uL00Q9EAioq6tL3d3dGhkZ0czMjLLZrLN64PT0tI4dO6be3l7nPmYlwbW1NWdALhaLaWlpSevr62pvb9fAwIAikUhN837zekyj8vX1dWWzWWfVPrMYjHkvfD5fTSP4eDxes4qxqeQKBAJKJBLOYgKm0sm+f3d3t5aWlpzBQVPd9fTpU62vr+vRo0e6ceOGksmks71+v1+rq6u6deuWlpaWVK1WlU6nnVjPvJZisVizQI/X8dL+fJhm/eLZlXP14hr2f3ieSFYB2DG/369UKqWhoSF9+OGHeueddzxHvtwB4NramgqFgrMMcltbm1O1ZJI40k/z4VtbW9XT0+OMahrmdnaTdXdgY0Z87JX31tfXtbi4qObmZnV0dDgjl3YwZAK39vZ2p6fDxsaG8zwm+PX7/QqFQpsOvva0L/syc3m96QbYu8rlsjY2NmqmnBaLRUl/Oxmi2ej+4vP9tJJWvWTVVtVTfAdePLsXkL0/rlQq2tjYcE6gTbLKXuDDfM7mhM2rYtLrM7ZP1vgOPH9eFcvmeB2LxbS8vKylpSWn/5jh1bvKfD9KpZKy2azW19ed33soFHIGqkyyqqurSz/88IPW19edJJLpWRWJRJxklSTn9jMzM8rlclpcXFS1WtXy8rJyuZza2tqcQTx3paaJQaSfqptyuZzi8bgzbdD9fgQCAbW2tqqrq0uxWEyFQkE+30+rD66trWltbc15TWZ6pHntJhnR1tamzs5OZTIZpwrNTJudm5vT9PS0fL6f+nuZ6X3VatVJAuZyOWf6oz1V2sRmpsVDvdWkzXvgdR1eHDsGl569f2P/h5+DZBWAXbErnNyVAvZlXiNk5iTPVECZoN89Mm0no+ykj7mv15QqcxCtVqs1U3PMdWZE1CtpZLbP3h779Zrrtko4eR2M7QCNA/X+0dLSolOnTunDDz90gm07WelVWSUxFWivs/d99vLdW039su+LF89dsSH9lAAYGRnR6OioHj16pKWlJXV1dens2bPq6elRf3+/jhw5okKhoE8//VSzs7NbVlO58dk/X16DQnbCyefzOavrmSRkNpt1qnvsz95Ma7KTLeVy2VlJr6WlReFwuGaQylQedXV1Sfppdb2JiQn5fD4nEdTe3u5M6yuVSurp6VFPT4+uXLmi+fl5jY+PK5/Pq1AoKBQKOU3bTaWTHUvZ22eus3s/ee13TLxi306SE0OZBXBMAt4eNDTvqzvuMfu/jo4OZ7XMnp4eJRKJms/EbLN5n9LptNLpdM17bSeuvJJRptqL307jcLfhYP+HXxrJKuAlVG+0fydTU7xWQtoqqDAnB6YxaTabdUbVTHLJHei4T/olbQq63M9rgh9JNT1FvKYNeh1k65102smz7Sar3KO9HKz3l5aWFh0/fly//e1vaxr1mu+f13fJ6zuNvanetF97tNn+11zP5/5i2Z+LmTZuKmnX19edxT0WFhZ0+PBhnTt3Tu+8845OnTqlpqYmp5ehfbLmHtxwcw/G4PlyH8vNVGyT/CmVSlpfX9fq6qqy2axCoZACgUBNIqhQKDhT/qLRqLLZrJ4+faqpqSlnRWN7IZVAIKD29nZ1dXWpqalJy8vLGh8fV6VSUSaTcVYgNNcXCgV1d3crlUo5K+o9evRIpVJJhUJBkUjEmdZnts0dS5jBN1P5ZO5r90WUatsOmEE+r95QZvDO3MdUAtvP5x7EMxXD7e3tOn/+vN5++22dOHFC6XTaeWxzPLSbp5v94tTUVE0vx2etKlcvPuW39OLYq36z/8MvjWQV8JLyGlm2L693UmUfmOxeA+Y6923t60xZfjKZ1MzMjNNU1Izo2YHVysqKpqenlclkaqqjtvO67O0yrzEej6u9vV3ZbFaTk5Pq7OxUX19fzX0rlYoWFxf19OlTHTp0yFnlz35s9/vwLNsddcLeVm8Z+2f9jb3NHajX22ei8eRyOT169EhjY2O6f/++pqamFAwGlUwm9c///M9KJpNKp9Pq6+tTKpXa0WCOG9+B5+tZ1YqmOfrAwICWlpZ05coVLSws6Mcff1RPT4+OHTvmJFekn4798/Pz+vzzzzU5OanBwUFVKhV9++23evTokQ4dOqTTp0+ro6OjJq5IJpPq7OxUPB5XqVTSjz/+qMXFRTU1NTmN1e32BolEQp2dnU5/p5GRES0tLUmSent7FYvFNq2KZxLgdlVTMplULBbT5OSkUzFmvzfV6k+N1BcWFpwph+Y6sx3xeFyZTEaZTEa5XG7Te1osFrW4uKjZ2VmnP5ZJcCUSCUWjUWUyGc3OzurAgQM177/P99MKh7du3dL8/LzS6bR6e3vV2dm5abDQ/buyBwGY+rc/8Bni5yBZBbykvKoCzOWmQsTNTrzYpdxmhMxcbt/W/tskq9ra2pwmpEtLS87S0oFAwOkVYpZWXltb27LayWv7zDbZo4ImqDQnKAcPHlSpVHLua5plm+Du6NGjTiN2877Uez/qIVH1ctgqsYv9a6t9Ub3L8OKZKeKrq6u6f/++vvrqK12+fFlTU1N66623dOnSJf3mN79xKqnMFCmv46WNaTC/vq0qnEOhkPr6+pTJZNSZEMDDAAAgAElEQVTZ2anR0VGNjIwoGo0qFoupvb3dqRYylXWXL1/W1atXderUKYVCIV2/fl35fF5vvfWWXn31VbW3t0tSzSBYR0eHsxLe6OioZmdnlUgk1NfX5/Tc9Lq9z+fT2NiYZmdnFYvFnB6dptLcPRBokl5+v1/JZFLJZNJZ4GN1ddXpr2m+r9lsVrOzs5qenlYul3MG3sz9E4mEcrmcMpmM00/UVE1VKhXl83nNz89rdna2pkrd7/ertbVViURCa2trevr0qdbW1lQsFp3XWiqVND8/ry+//FIPHjzQhQsXVKlUnPfDTlS5+3xKmyvD0PjY/+GXQrIKeEm5R7fqrVZnX24vn1wul1UsFrW+vq6VlZWa8nu7nNz0RmhpaXGWRD5x4oRu3bqltbU13bp1S+3t7Tp06JDS6bTW1tY0MzOj69ev6/r165qdna1J+piklwmK6iXbNjY2nP4Ufr9f/f39On78uGZnZ3XlyhUnYIxGo2pqatLExIRGRkb08OFDSVJPT4+Gh4fV1tZW8764m7oDAPaO9fV13b59WyMjI5qdnVU4HNYf//hHJ8HQ39+vnp6emn283Tvn51RY4flwV+XY083sz83v96ujo0Ovv/66JOnx48f67LPPlMvlNDk5qXQ6rfb2djU1NWl9fV3xeFyxWExjY2PK5XJaXl5WV1eXBgcHdejQISWTyU19lILBoLMq4MrKipaWltTb26uenp6aymxze9PvqbOzU6urq1pdXVV3d7c6OzsViUScx7dfj11pZFZSXl1dVSQS0czMjL755hv5/X4dPnxYbW1tymQyevjwoW7evKnbt29rdXVVsVhMPp9PLS0t6unp0dDQkNra2rS4uKhbt24pGo06r3FxcVH37t3T6OiopqamlEwmnZUIQ6GQjh07prW1NWe15ng8rkqloo6ODvl8Pk1MTOiHH37Q999/r7W1NbW0tDiN4HO5XE2j+LW1NafxvYnx7EVJqLQCXm4kq4CXlPuAb/oM2KuX2ZfbfXjMCmhmhb2pqSnnOrtxp9/v18bGhsrlshKJhDOaGQwG1dHRoUqlovv370uS0ytibm5Ok5OTunv3rkZHR1UqldTW1rYpYWWez95O6W+9qfL5vJaWlpxphOl0WidOnNDTp0917949DQ4OqrOzU21tbQoEArp+/bpu3rypqakphcNhpdNpHTlyRC0tLdrY2HAem2AJAPauXC6nH3/8UTdu3FAwGFRPT4/ef/99vfrqqzW385r2Xa8iGS+OXZ1jf05mYKu1tVUXLlxwkijff/+98vm8ZmdndeLECQ0NDSkUCmltbU2BQECRSEQ//vijZmZmFA6HdfDgQXV2dqq7u9tZNc+OAQKBgNOLan5+Xtls1qmUMpXZ9uCfSaB1dXVpaWlJuVxOkUjESea4G5yb12iSNSY+WV9fV2trqzY2NnTz5k0VCgUVCgUNDg5qYWFBIyMjun//vsbHx50eXj6fz9negYEBdXd369GjR7p//74zdbCnp0eTk5O6c+eOJiYmtLy8rFgs5sSAoVBIR48e1erqqq5evaqHDx+qq6tLfr9fBw8eVHNzs65du6abN29qbGxMkUhE0WhUnZ2dCoVC2tjYkN/vV3Nzs5MQXFtbUzabVUtLy6YY1K6Sp9IKePmQrAIgSU75t7uiSpJzuT3V7/HjxxofH9fTp0/12Wef1TTkNNMIzWo1gUBAhw8f1pEjRzQ8PKzu7m69+eabkqS5uTk9efJEH3/8sb788kvnfj09Pfqnf/on3b59W8vLy5uCNhOImqDGjKz29/dreHhYS0tL+utf/+okrZLJpC5cuKB8Pq9oNKrV1VV99NFHTgCXz+dVKpX06quvqq+vT6dOnVI4HHaWV7aDJAImANibotGozp8/r3Q67UxN7+npqamWcU9nR2NxJxLtRVrczcYDgYBSqZReffVVlctlnTp1SktLS1pZWXEGqcy0t6WlJW1sbGh4eFjHjx/XwsKCyuWyrly5Ip/Pp/Pnzzv9mez4qL29XT09PXr48KHy+bxSqZT6+/sVjUZrtttMT0yn0xoaGtKTJ09UqVTU1dWldDq96fZ2k3JJNZXqvb29+uCDD9TR0aGZmRmNj49reXlZkUjE+S4fPnxYnZ2d+u6771QsFmuamnd0dOi9995Te3u7JicnNTo6qidPnigSiSgSiahSqai/v1+JRMJZSbm5uVmhUEipVEonT57UBx984FRu/fnPf1Y4HJbP53MGCS9evKhDhw7p2LFjikQiTmP4VCqlVCql8fFxjY6O6qOPPtLMzIzefPNNHT58eFOfUvcAKr9L4OVBsgqApNryeRP0mYoquyQ7FAopHA5rdnZWU1NTGhsbc5JS7gDDJHWi0ahee+01FQoFpVIpHTp0SBcuXFBnZ6c++eQTffHFFxodHdXy8rK6u7vV39+vt99+W4cPH1a5XNadO3fU0tLiPGZzc7PC4bDi8biCwaCzzaap6alTp/TZZ5/p9u3bTi+sd999V6dPn1apVFIgENC3336r69evOxVdfX19OnjwoF599VW9+eab6unpcZ6zqanJWeK5WCzK7/c7JfEAgL0jEono9OnTOn36tHOZOX65p1159W5EY7ArbdxtCEwVdLVadSqJWltb1dPToxMnTujy5cu6ceOGHj9+rPn5ea2vr6tSqSiRSKi3t1enT59Wa2ur7t69q+npad29e1fFYlHpdFoHDhyoqa7z+/1O3NLZ2alsNqu+vj6nZ5XN7qV16NAhjYyMqLm52WnkbxJN5vWZ5FIkEnGqm8xrSqVSevfdd5VKpfT//t//05UrV3Tv3j3lcjklk0kdOnRI77//vuLxuBYXF5XJZGpWMm5tbdXrr7+utrY2/e///q+TrCqXyzp58qQGBweVTqeVTqe1sLCgQCCg5uZmtbS0qKWlRcFgUNVqVclkUp988om+//57ZTIZSVJnZ6eOHTum1157TRcvXlRfX5+zkqL5PNLptILBoObn5/Xtt98qk8loaGhIhw4d2rTQjz0oSbIKeLlwtgXAk738eqlUUlNTk0KhkF5//XW1trZqdXVVmUym7uqB9uWBQEC9vb3q6+vT0NCQU5rf1NSkDz74QMePH9fa2pry+byzWmBfX59aW1vV0tKiS5cuOScWqVTKafC5tLSkkydPOsFMKBTSoUOHFIlENDg4qPn5efX09CidTqu/v19+v18DAwNqbm7W4OCg/u7v/s5Z9jkej6u1tVUDAwNOubp5HX6/X8ePH1cikdDGxoZ8Pp+GhoZ+/Q8FAPDcuZMe7mOZSYKYk31OlhuT/bnYC79IP/WKisfjGhwc1DvvvKOjR48qm80qn887VUfBYFCxWEypVEqhUMipwspms05zdPM8JqkZi8V0/Phx599isajTp08rlUrV9KySfvouBYNBHThwQMFgUAMDA8rn8xoeHtbAwIBT0WSY2/zrv/6rlpaWdP78eUWjUafaPZFI6PDhw2pubtYrr7yiTCajYrGocDistrY2DQ0NKRgMKhKJqFgs6vjx405Pz5WVFWcRm4sXL+r06dNORZR5naOjo5qenlYoFFI8HpfP99MqgSZp1dfX5ySfPvjgAxWLRVWrVef5Dxw44EyHNO9ZKBRST0+PmpqalEgkNDc3p2AwqM7OTieuooodgEGyCngJuXs+uUeq7MDdlJ37fD4Fg0GdO3dO586dc25rmq179RmwV7JxBx2JREKJREL9/f1bPs6RI0dULpedxzG9I0zQZUa+m5qa1NLSosHBQQ0ODurixYueSbTe3l4n4WVGKQ2794Xdo8vv9+vQoUM6cuRIzTRHAMDeZice6jHHJ/vYhBfL/szMMd5UU3kNojU3NysajSoajTrTPu1KI6l2+qfP97dV9Z4+fap8Pu+sBmhvQyQS0eHDh3Xo0CH95je/qbne3g7z+MFgUP39/RoYGNCbb765qaLdPdCXTqf1hz/8wfM9MA3hTbWXWbXPHUfZVYSlUkmFQkErKysaHx9XLpfTa6+95iS9TKX8xMSEpqamlM1mndUH/X6/SqWSEw/29vaqt7dXZ8+erdkud48p+z02Dem7urp06tSpmtu7e4KSrAJAsgp4ydnl7F5BgQke7KalNjMtzz0S7RVkeJ0M2EGmV3WW+/Htf92BTb2km329CcZM7y33bdwr/djP47VaIgBgb7EbVtvqrYprTv7tKYJ4cexElT1901xn38YrHnEf56XN8Yn5frS0tKizs1PlctmZpuceiDPcSRf3Knbu53Uns9yJU3ds5vXcXgkhd3ziTsKZRWhu3rzpJKwymYz6+voUj8e1tramR48e6e7du5qYmNC7776r4eFhdXR0KBAI1Lw+9/PYvx+vbbFfh/1a6iWqzCCi1/sNYP8jWQW8hNzVRCa4cAceJqjxCizMfe2gxA6wvHpgbZUU22oaoddottft7W2qlyjz6n3glYDzCh632h4AwN7grmBxX+4+LphBDvvEGS+GV3LIvtyOZ9zJIvsxvD53+29zG7N6sbncPK+kmupsuzLbHTd49V+yb296bLlfo7uXmrtnkzsWccdd9muz3we/369isaixsTFdu3bN6f1ZKpXU3d2t+fl5jY2NaWxsTAsLC+ro6NCxY8fU3t6uQCBQ8x7Z75ldme6OC93s35J7wNMr2WYqxkhWAS8XklXAS8wrqDKelcTZKgDxOgnYKhDxur97tPBZ0wq9klP1trHeaKT9OO73wv24JKwAYG/aav/vPs7Zi4eYpAInzI2h3udgJ3m82hO4B+fsqif7dvU+a/fx3z0YZieTzLaYBWvsFgJ2pVW9QUR7G+pVhNVLynlVOkk/VQp2dXXpt7/9rRKJhPL5vL744gvdvHnTWVimVCppYGBAZ8+e1fHjx9XW1uZc537d7kTcVvGR/V65q+HciUf358DvDnj5kKwCXlL1ysvtQKJewsZ+DK8kkZle51Wp9axtqjeyXa1Wnd5ZXiXj9R6rnu0m3ryCSPs6AMDe4lWVK20+yTaJhlKpJEnOFCi8OFsdr82/pneTV6sAuzLO3Mes7luvGsrN/g54Tc0zTKxiGri7vztecYi9jdvt4eSVhNvqcfx+vzo7O/X2228rHo/rL3/5i7777jstLS2pWCyqtbVVg4ODev3113XhwgUdPXpUyWSy7ntuv1b3de4Y076sXnWbPf3PXakF4OVCsgp4SXmNZLkTM159Ap5VffWsEbCtgsCtKqV8Pu/eVe7Hdk/fq/f8Xo/hFXS6pxZs9fwAgL3DqwpYqt9L0VTK4MWzPzd3UsZMz6sXn9iP4f5/u8rKJL7qxTXuaX9ejcXN9rirvOztdj92vV5qXr2ivCqa6n2v7dcYCATU2dmpU6dOKZlM6tKlS8rlciqXywqHw0r+f/butDmO6zz7+DXTs2DfBztBUgRAUqQoShQty7aiJbFlJxXbcV74dfIF8sFSFdtVLtsVx644eiQRoijuIAGCJLhgI/ZlsMz6vFCd1plGzwCESKIb+P+qVBQGs3T3NHq6r7nPfRob3QlpGhoayv6d+IWHJiz0Du+zl827vOb5/NaL8y3g8CKsAg4hv2/yvCcF5htlvwBpp7Bpp4onb0NU73Pspuze73n9lsXvfuUqpsyJY7mTrErPCwAIF79h636VLN4QoFLVLl6+csPFvO+XV6XKJLvyyYRVJnTxe5x3+J39PGYZzJA/e+if33A/+/d+VeXeXlXe190p3PJ7XDweV0tLi5qbm3XmzBk5juPbQ8v7+n7nWt6KqErbzd4G3nXy68EF4HAjrAIOOb+TdWn77Cz28L5KlVM7qTSEr1LFk/fkzXuSWu45vb0r/Kql7OWyl8PvAqbcMgIAwqFcLx+j0nGeY//+8w4T835+7/b8otzsj94wqFw1lvd8yJ5t2H5cuf3JrweV37p6l8Ov8tvv/n7rbr+WCcnM9ix3fuf35Z6XHeKa5/Ub9ljuZ+829guvmBUQOHwIq/BClPuWsVwJcrnf49XzhlCG9+TPNAg1U3ib2227eb/LnUSW24e8t/v97Lf8hllu+yTM+3p+J5Z+v+fbdPjZ7X7B8Q4IBvti2O/CvtJwce9t5T4HdzoucDzYG7+wyVRC+zVW936e2xVC5Wav89s//M5TvF+S2RVS9uvZ/3oDJ/t+lUKtcvwqvPyqqezfe0Ml+/fl9styYZL9xaG9vJXOEyuFVvZzeavW/CrREAw7XQdy/Ye9IqzCC7XTN0QInt3OsvKyZ2PZzQmS3887LZf5/U7f8O11eQDDe7HBvgIE004VLd4vMOzbvV982MPl+Zt/tbzvY6XKIC+/iiX7d7t9nt3Y7f6xl+cvF35Vet7nXa+dto/3HOu7/h34vS/mNbjOCC+7txywW4RV2LNoNKpYLFa2PJgPk+Db7QV1ufu9qBOv77Kv7PRYv2/gCKrwXdnHP6n022v7G2dvLw8b+xPw6u30ubdTsOBXpcsF9Kv3PKFUOeXOD/ZyvlPOywyqdvPY7/r6u90WL/K8qdzz8zcWPOVGP3grqkywb37He4ndIqzCnkSjUbW0tKivr08NDQ3bLtgKhULZBtUAEGaxWEypVEp9fX2qr6/fVk1ljoNm+Gml6bwBhI8dUHHhBeAwK9c6w/s7ZnfEXlCHhz2JRCJqaGhQR0eHamtrS243YZU9vrxSTyIACBPHcdTU1KSOjg5VV1dvC6vMUAW/Ke7tPikAwsl7AebtEQQAh8VO13p2uM8QQDwvKquwJ4VCQQsLC3r8+LFWVlYklR6M7GaX3hJkuwEmTRIBhE0ul9Pc3JweP36stbU1328JHcfxHRpEJQZwsHh7Jpnb/O5n7sPfP4CDwntM82t5sNOkFUA5xJvYk2KxqKWlJU1OTmptbc29zVQSmBDKW2Flbsvn83z7CCCU8vm85ufnNTExoXQ67XuBan+D6Hc7J2vA4WFXHVBZCeAg8U48IZXODumdkILjH54HlVXYM7+LLnMwsnu12EGV+QYyFotRCgogtLz9qQxvA1H7BM2+HUB4eWdC81ZR7tSAmmMAgLAyxz9TkGDfZv9/uQkQOP7heRBWYc+8ByP7wq1QKLiBlF1d5Q24SNcBhJV9HPMGU/ZxzpzUFYtFhj4DB4h36MtOMwia+9n/AkCY2MeyfD6/rXH6i5xNEyCswp55yzntSirvhZq3AotpngGElXcqZjucKne88/t/AOHkDae9QZQ9FMZ7TgQAYWYf5+yZ373HP79gnupyPC/CKuyZOeBsbW1pdXV114+jyR6AMFtbW1Mul3NP0iqdiDEjKnCwmAu0aDSqzc1NLS8vu2GU+Ts3lQb5fF6FQkGO47hVlRwHAIRVOp0umSTLbuliDwm0b6NvJ74LwirsSTQaVUtLi9rb2/X5559renrat5LAvpCzxzhTWQUgrDY3N/X48WP19vaqoaGh5JtFL7vyghM0IPxisZhaWloUi8X0pz/9Sbdu3XL/tu3zG+/fut95EQCEycrKilZXV3XkyBHV1NRUvK93ohl6VmEvCKuwJ9FoVO3t7err69PIyIj++te/bms4XG7Kdm/ZPACESTKZVF9fn86cOaPm5uayk0XYQ6Wj0ei22QE5BgLhE4/H1d7erqamJl25ckX//d//XfK3bc5v7CEy+XzenXgGAMKqvr5er732mo4fP666ujr39nIBPAEVvivCKuxJIpHQ9773PTU2NmppaUmrq6sl3yx6GwxLpWOYqawCEFaO46ihoUGpVEoDAwPu7d7eVH6TSjArIBBujY2N+vDDD3XkyBGtrq5qY2ND0va+LJK2VVrxNw8gzOLxuBobG9Xd3a2enh63ybqZQKbcKBtgryJFapHxHdi9WLxTmdqVBABwkHmDKnv2P2/VhbeHDYDw8Dtt9gulCoWCMpmMOztyLBYjsAIQaiackr754q5YLCqTyahYLCqRSJSc1/j1sDI/cxzEblFZhReuXG8WEnYAB5Ffpah3Kme7yWilHlcAwsWvR5X5W4/FYtsqDjgXAhBW3j5UxWJRsdg3cYL3doYA4kUgrMILYX+b6HfC5p0Ji4orAGHlNx2zVL43gzn+UVEFHBzlZgHdqbLS9LDjAg5AGJmKKrvCynuck0qDLWCvCKvwne3mhMturs4JGoCD4HmOZebilOMfcDBU+lsu16OK3lUADgpvBflOtwN7Qc8qAAAAAAAABAa1eQAAAAAAAAgMwioAAAAAAAAEBmEVAAAAAAAAAoOwCgAAAAAAAIFBWAUAAAAAAIDAIKwCAAAAAABAYBBWAQAAAAAAIDAIqwAAAAAAABAYhFUAAAAAAAAIDMIqAAAAAAAABAZhFQAAAAAAAAKDsAoAAAAAAACBQVgFAAAAAACAwCCsAgAAAAAAQGAQVgEAAAAAACAwCKsAAAAAAAAQGIRVAAAAAAAACAzCKgAAAAAAAAQGYRUAAAAAAAACg7AKAAAAAAAAgUFYBQAAAAAAgMAgrAIAAAAAAEBgEFYBAAAAAAAgMAirAAAAAAAAEBiEVQAAAAAAAAgMwioAAAAAAAAEBmEVAAAAAAAAAoOwCgAAAAAAAIFBWAUAAAAAAIDAIKwCAAAAAABAYBBWAQAAAAAAIDAIqwAAAAAAABAYhFUAAAAAAAAIDMIqAAAAAAAABAZhFQAAAAAAAAKDsAoAAAAAAACBQVgFAAAAAACAwCCsAgAAAAAAQGAQVgEAAAAAACAwCKsAAAAAAAAQGIRVAAAAAAAACAzCKgAAAAAAAAQGYRUAAAAAAAACg7AKAAAAAAAAgUFYBQAAAAAAgMAgrAIAAAAAAEBgEFYBAAAAAAAgMAirAAAAAAAAEBiEVQAAAAAAAAgMwioAAAAAAAAEBmEVAAAAAAAAAoOwCgAAAAAAAIFBWAUAAAAAAIDAIKwCAAAAAABAYBBWAQAAAAAAIDAIqwAAAAAAABAYhFUAAAAAAAAIDMIqAAAAAAAABAZhFQAAAAAAAAKDsAoAAAAAAACBQVgFAAAAAACAwCCsAgAAAAAAQGAQVgEAAAAAACAwCKsAAAAAAAAQGIRVAAAAAAAACAzCKgAAAAAAAAQGYRUAAAAAAAACg7AKAAAAAAAAgUFYBQAAAAAAgMAgrAIAAAAAAEBgEFYBAAAAAAAgMAirAAAAAAAAEBiEVQAAAAAAAAgMwioAAAAAAAAEBmEVAAAAAAAAAoOwCgAAAAAAAIFBWAUAAAAAAIDAIKwCAAAAAABAYBBWAQAAAAAAIDAIqwAAAAAAABAYhFUAAAAAAAAIDMIqAAAAAAAABAZhFQAAAAAAAAKDsAoAAAAAAACBQVgFAAAAAACAwCCsAgAAAAAAQGAQVgEAAAAAACAwCKsAAAAAAAAQGIRVAAAAAAAACAzCKgAAAAAAAAQGYRUAAAAAAAACg7AKAAAAAAAAgUFYBQAAAAAAgMAgrAIAAAAAAEBgEFYBAAAAAAAgMAirAAAAAAAAEBiEVQAAAAAAAAgMwioAAAAAAAAEBmEVAAAAAAAAAoOwCgAAAAAAAIFBWAUAAAAAAIDAIKwCAAAAAABAYBBWAQAAAAAAIDAIqwAAAAAAABAYhFUAAAAAAAAIDMIqAAAAAAAABAZhFQAAAAAAAAKDsAoAAAAAAACBQVgFAAAAAACAwIjt9wIAAPA8CoWCstmscrmcCoWCisXifi8SALwy0WhUjuMoHo/LcZznemwkEnlJSwUAwItFWAUACJX19XVdvnxZN2/e1MLCglZWVtzfRSIRRSIRFYtFN8QyP5f7PQCERTweV3Nzs44cOaLvfe976u/vd49n0eg3Aybs4x0AAGFFWAUACJX19XV9+eWX+s1vfqPp6WktLCxI+ubCLBqNKhKJlK24sn9fKBRe9aIDwHeSTCbV3t6uc+fOqaOjQydOnHCPZcVisSSclwisAADhRVgFAAiVfD6v+fl5rays6MMPP9SZM2fcEMpcmJWrmqLiAECYLS4uamhoSM+ePVM6nVahUHCPffZxzQRXAACEFWEVACBU8vm8FhcXtba2pvfee0//9m//Jsdx3CEwht/Fmqmo8rs/AATdyMiIHj16pOvXr2t9fX3b8cwMCSSwBwCEHWfqAIBQMj1aHMdRoVBQLpdzL8SKxaIbTHmHxDiOw4UagFAqFovK5/PuBBMAABxUVFYBAELL9KnK5/PucBjHcXwrC7zDZAAgjPL5vPL5fEn1qN/xDgCAMCOsAgCEjvfCzAyDMc3TpW+bqUtcuAE4OBzHcf8zxzlvBalfDz+OgwCAMCGsAgCEkl09Zfq1mGF/puLKe3+DizYAYWSObXZQJZUe3yod++jVBwAIC8IqAEDomAu2cqGT9wLOriwgqAIQVqYfnxkGaJQ7rtmhPsc+AECYEFYBAEKn3FTt5nc2uwkxF2sAws5v8ghJ24b+7TQzIAAAQUZYBQAIHVNdYC7E7PDK3GZCKvpWAThIvBVV5cIoc8xj6B8AIIwIqwAAoeMd3meLRCLu7IBmqKA3yCK4AhBm9nHMr8LU2G0FKgAAQUNYBQAIHbvBsKRtVVTRaNT9nQmp7PAKAMKqXABl/x4AgLCjLhgAEDomjLIv2kwfF/v3JrCyhw0CwEFW7jhH/yoAQJhQWQUACJ1ys2F5K6dMgBWJROQ4DhUHAELPr5LKO7zPb6ZAjn8AgDAhrAIAhI43rLL7UtkXayasisViikaj9KwKgOet7PC7+H4Zyr3Obl/fu0/t1PR6r6/zovA3EG67Gfpnjnd2lSkAAGFBWAUACL1yF97eoYJcoONF8s5G+aIeX65KZjev4XdfehodPvYxj/cbABBGhFUAgFArdyFmhv4heCqFL95gxVTR5XK5bdV05l/TcN9U0JnniUQiKhQK2traUi6XUyKRcO9jB0H2MCq/Zai0HoVCQY7j7Kkiyn58ue1gz2LpXW7D7zZvBSGB1cFU6X3kPQYAhBlhFQAAeKXsAMa+zf63UCgom81qdXVVd+/e1cOHD7W4uKiVlRVls1lJUn19vRobG9XR0dxoZ5gAACAASURBVKHOzk4dPXpUHR0dkr4JZ3K5nObn5/WXv/xFDx480Pvvv6+33npL1dXVSiQSJctgX9ib5cvn85JUdhiVCcq8FVJ+61VuO/j1UvNuC7/nqBREmdu8w2R3s0wAAABBQFgFAABeGW8DfFMx5FUsFpVOpzU5OanLly/r0qVLmpqa0tzcnDY3N1UsFpVKpdTV1aUTJ07o1KlTSiaTam5udiuVTFj1pz/9SX/7299UW1urgYEBxWKxbWGVd9nsnmfxeNx3PexQq1gsuq9rV0L5rVe51yu3nXY7/M8blpnlYHIBAAAQNoRVAABgX1Tqp7O6uqrPPvtMly9f1sTEhLLZrE6cOKG33npLdXV1qqqqUjab1cbGhubm5vTZZ59pa2tLKysrOn78uLq6utxQyoRIZkhhoVAoeX2/xvvRaFSxWKxs6ORdD0llK5l26kFlQrty/dXKVU55A61yFVl76X0FAACwnwirAADAK1OpssgOb1ZXVzU0NKQ//vGPqq+vV3t7uwYGBnT27Fn19vaqoaFBExMTGh0d1ZMnTzQyMqJcLqetrS1VV1ers7NTjuMoHo+7YZM9i2S5KiRvYLXX9bADIu99vT2oTBWX9/XKbR97mcsFfjvNDkdgBQAAgoywCgAA7Cu7sqhQKCidTmt2dlazs7Pa2NjQu+++q3fffVfHjh1Td3e3GhoalEgkFI/HVV1drXw+r7a2Nk1MTGhoaEinT59WJBJRPp9XNptVoVDw7ZNleIMlv4or733s0Kdczynz/37N2+3bvb2r/IKzSrNa2uGVfV+/ZvTMDgcAAMKAsAoAAOwrO0TK5/NaW1vT4uKi5ufntbGxoRMnTuijjz5SS0uL6urq3Mc1NjaqtbVVVVVVqqur03/+53/q7t27WlxcdJ8rm82WhDm5XE4bGxvuDH526GQaqcdisZKKJ3O/XC5XMiuhPQOhdzZCSe59Te8re13tICkWi/nOZmgHePl83n0u73I7juM+zqyHNySjmgoAAIQJYRUAAHjlvEPjylU+5XI5raysaGFhQdXV1W5YZYKceDyu1tZWDQwM6Mc//rGePXumEydObKtmyufzSqfTevr0qb788kvNzMxobW1N2WxWtbW1SqVSeuONN9Tf36/a2lpVVVUpEokol8tpcnJSExMTevTokSYnJ7W2tqZMJqNkMqm6ujp1dXWpt7dX/f396unpUSQS0cbGhh48eKCnT59qY2NDGxsbymQy2tjY0OLiotLptBKJhGpra9Xd3e0+vqurq2T9t7a2NDU1pYmJCT148EATExNaX19XLpdTfX29UqmUTp48qddee00NDQ2qra0tmcnQbF8AAIAwIawCAACvlB1K2RVCpvrIVCqZoXyLi4uanJxUbW2t6urq3Aoo05OqublZiURCNTU1Wl9fV19fn/taJqjJ5/NaWVnRkydP9MUXX+jatWuan5/X+vq6mpqadOzYMRWLRbW0tCgWi6mqqkrSN2HR+Pi4vv76a129elV37tzR8vKyNjY2VFVVpebmZg0MDOjcuXOqrq5WR0eHHMfR1taWxsbGdOXKFS0uLrqPWV1d1eTkpJaWltzHnzx50n18W1tbSY+t9fV1jY+P6+rVq7p8+bJu3bql5eVlZTIZtbW16fjx4/roo48Uj8d17NgxN6zyG75obw8AAIAgI6wCAACvlAlMcrlcSahihsQ1NDQolUqpq6tLDQ0NGh4eVjqd1qlTp3TixAm1tLSora1NqVRKzc3NchxHtbW16uzsdCuOzHA+M6RvfX1dt27dUrFYVHt7u/7lX/5F2WxWq6urGhsb0/Lysm7fvi3HcfTee++prq7OrcQaGhrS0NCQamtr9c4776i+vl7JZFKbm5tu+HTp0iUdOXJEvb29amxsdIftbWxs6OHDh5qenlZbW5va2tp06tQp1dfXu+HV7OysLl26pJqaGkWjUfX29qqpqUmzs7MaHx/XZ599ptu3b6uhoUGffPKJEomEotGo0um01tfXNTw8rImJCf34xz/WO++8o5qaGiWTyZJt7e2BBQAAEGSEVQAAYF+YXk52JZUJrFpbW9Xb26tUKqUnT55obGxMjx8/Vn9/v44ePapjx46pv79fklRVVaVEIqGmpqaS5zHPFYlEtLW1pQcPHigWi+kXv/iF3n//fSWTSS0tLel3v/udLl26pNHRUW1sbOj48ePq7+/X2tqapqendevWLd28eVMffPCBLly4oP7+fqVSKT179kyjo6MaGxvT2NiY3n77bZ09e9btQVUoFLS5uamnT59qfHxcDQ0N6urq0g9+8AP19/drZmZGY2Nj+sMf/qCRkRE1NzertrZWNTU1qqur0/T0tIaHh3XlyhU9ePBA//iP/6i/+7u/U2dnp6qqqnTv3j3dvHlTf/nLXzQzM6Pu7m4dO3ZMHR0dqq6udrez3/BKgisAABBkhFUAAGBfxGIxdxigLZ/Pq6qqSt///vdVX1+ve/fu6enTp8pkMnry5IkmJyf19ddfq76+Xk1NTWpvb1dXV5cGBwd17Ngx1dfXq7q62m2QLn0TaA0ODuq9997TyZMn1dHR4TYjHxgY0MrKiqanp5VOp5XJZNwQrb6+XufPn1dzc7PeffddnT17Vs3NzaqurlZDQ4Mcx1F3d7empqa0ubmphYUFtbW1qba21m2ankgk1NzcrIsXL+rHP/6xuru73WCqtrZWc3NzSiQSWltb0/Xr13XixAm1t7drdHRUt2/fVlNTk9577z299dZbGhwcVG1trVs1lkwmNTk5qUKhoLm5OQ0PDysej6upqUmStvXu8tveAAAAQUNYBQAA9oXjOO7/2z2sCoWCksmkLly4oMHBQV2/fl03b97U8PCw7t27p7m5OS0uLmpra0uRSERHjhzR4OCgPvjgAzmOo97eXiUSiW1h1cDAgC5evKgTJ04olUopl8spEono+PHjWl1d1crKilZXV0vCqoaGBr355pvq7+/XmTNndPToUXdGvrq6Om1tbbkzEm5tbWlpaUmZTMYdiug4jpLJpJqbm3X+/Hl9+OGH7myC7e3tamlp0eLiojKZjK5du6bbt2/rww8/1Obmpu7fv6/h4WENDAzo9OnTOnbsmFKplLutTOB25MgRTUxMaG5uTiMjIzp69GjJNrW3sbeXFQAAQBARVgEAgFfKhD2msbo3VIlGo4rH424gNDAwoKamJp0+fVqLi4taWVnR8vKynj175gZXCwsL+t///V89fPhQP/3pT/X9739f8XjcDWVM8NTW1ubO9GcatNvD9kyAFY/HVVdX5zZ5X1pa0uzsrKamppROp7W6uqrFxUU9ffpU165d09ramnK5nDsM0a5iampqUn19vWpqatzXlb7tI9Xa2qquri5du3bNDeEKhYLS6bSmpqa0tram8fFx3bx5U6lUyn2sJKXTad2+fVvPnj2TJHV2diqbzfo2VDf/T1AFAACCjrAKAAC8UibIsZt+l6sCSiQS6uvr0/Hjx90QaGtrS6urq3r48KFGR0c1NDTkzpZ3/fp1HT16VGfPnnXDJumbsKqurk4tLS3uTH92E3bHcVQsFpXP5yV9M0TRzDqYyWSUyWR0//59PXr0SIuLi5qfn9eTJ080MTGhqakpN+yygyATVjU2NioWi7lhlRmGZ4KxpqYmdXR0qFgsanl5WVtbW8rn80qn05qbm9P09LSKxaKuXr2qeDxesn0KhYKy2ayqqqq0ubnpBoHehuoEVAAAIEwIqwAAwCsVjUZLhv1JcoOoTCaj6elpzc/Pa3NzU9FoVH19fers7HQrseLxuGpra3XkyBG3d1RPT4/+9Kc/6dGjR5qZmdHDhw/V19fnhjfmdR3HccMiE055f2+qqZaXlzUxMaHPP/9cd+7cUTweVzweV1VVlY4ePaq+vj4tLS3p8uXLmp2ddYceetnDEe3QyHEcd3nsJujm31gspubmZp04cULHjh1TZ2enmpubS57XPLfjOEqlUurs7NSRI0eYBRAAAIQaYRUAAHilTM8kvx5K2WxWU1NTunfvnpaWlhSNRlVVVaX29nb3fo7jqKamRjU1NWpvb1dfX596eno0PDysBw8eaH5+Xk+fPlVzc7NbMWUqmkwYJX07HNH8a+4TiUSUy+W0sLCgsbEx/c///I++/PJLnT17VidPnlRbW5t6enqUSqWUzWa1srKiXC6nZDLpWyFmgirzGt5wzK7osreRaZR+/vx5/ehHP9Lp06e39aMyQxfz+bwbfNlhnP18AAAAYUFYBQAAXilvSGX3sJK+GR63urqqe/fuaXNzU6dOnSoJdczjzH+xWEzxeNytVEomk6qpqXH7XpkAxw5x7Nc3gZIZFhiNRrW1taVHjx5pdHRUjuPo5MmTev/993Xx4kXV19e7Mw4uLCwomUwqn8+7j5dUElAtLy8rl8spnU679zOva0Kx2dlZSVJjY6MSiYQ7E2FDQ4PS6bQmJyfV19dXsh0LhYJWV1d1+/ZtTUxMqL29XalUSl1dXSUVWGY5JEIrAAAQDoRVAADglfL2VCoUCm6/J3ObCYtmZ2fd2fEkudVP3sDH9H8yvaHq6uoUj8eVzWZLntc7PM4MwTMhWCwWUyQSUTab1eTkpMbHxxWNRnXs2DFdvHhRH374YUkVWCaTUTQaVS6Xk/TtEEcTVhUKBa2srCidTmt5eVnr6+tKJBKKx+MqFAra2NjQ7OyspqenFY1G3Z5ajuOosbFRzc3NWltb05MnT3T69Gn39SQpk8lofn5ely9f1s2bN/X666/r9ddfV11dnZqbm0vWleGAAAAgTAirAADAK2VXRUkqGb4Wj8fV3d2t/v5+Xbt2TePj4/q///s/pdNpHTt2TD09PaqpqVEikXArsMbGxjQ8PKyZmRk1Nzerp6dHfX19qqur0/z8fEnfKr/XN3K5nDKZjHK5nIrFott8fX19XRsbG5qbm9P8/Lzi8bgymYwePHigmzdvanR0VAsLC1pcXNTa2po7JM+EaWY2wS+//FI1NTU6efKkOjs7tba2pqdPn+qLL77QtWvX1NTUpKNHjyqVSqm6ulonTpzQwsKC7ty5o6+++kotLS3u0MBYLKbHjx9rZGREX331lSYnJ3X+/Hn19vaqrq5Oktx+XCbYI6wCAABhQVgFAABeKW9oYsIUSYrH4+ro6NDm5qba29slSVevXtWTJ0/07rvv6o033lBjY6Oqq6u1ubmp+fl5DQ0N6datW1pfX1dnZ6d6e3vV29urYrGoubm5bX2pvMGNXeGVzWbdKq+qqirV1NQok8konU5rampKT58+dWfeu3Hjhi5fvqwnT54onU5raWlJCwsL2tzcLBl2VygUlE6ndfPmTUnfhGLZbFbz8/O6f/++rl27ptHRUf3kJz/RW2+9pfb2dlVVVen48eNaXV3VjRs3dOfOHXV2dqq6ulrd3d1KJpO6fv26bty4oeHhYeVyOfd3tbW17jqbdTHVWAAAAGFAWAUAAAIjEokokUgolUrpk08+UU9Pj+7fv6+ZmRmNj49renpa+XzeDWGKxaK2trbU0dGhI0eOqL+/XwMDA26PK7uhuqlyMkP0DLtXlQnOqqurNTAw4Paaunv3ri5duqSRkRHV1NSourpasVhMXV1devvttzU7O6ulpSV99tlnamlpUSwW0+bmphKJhNrb21UoFNzw7bPPPtNnn33mVnLV19fr/fff1/e+9z2dOXPGbQzf3t6uU6dO6f3331d9fb22trb06aefun2x1tfXlc/n9c4776ivr0+nTp1SMpl019mv4brdGwwAACCoCKsAAMC+syuR4vG42tra9MEHH+js2bP685//rM8//1xTU1Oanp7WwsKC0um0qqqq1NDQoNdee02nTp3Sj370I7399tuqr693w6p4PF7Sw8rLvF5VVZVqa2uVy+WUSCTcyqZkMqnJyUlNTk5qZGREc3Nzqq2tVXt7uy5evKjBwUG1t7drfn5en3/+ue7cuaPz58+ru7tbW1tb7rrE43F1dXUpkUjo+vXrevjwoaqqqtTa2qo333xTb731li5cuKDBwUE3YGptbXWruGpqajQ0NKSbN29qeXlZmUxGqVRKx48f1zvvvKPvf//76ujocJuzS6UVa37VZQAAAEFFWAUAAALBnhXQVAbV19frrbfeUiqVUjqddvtHZbNZxWIxJRIJNTY2qrW1VX19faqtrXUbnkejUTU1NemXv/yl3n77bZ0/f17Nzc2qqqpyX9P0yDJVUplMRgMDA26FV1tbm37wgx/oyJEjWlpa0sbGhhuAdXd3q6WlRfl8XhsbGzp9+rT7b0tLiyYmJpTP5yVJNTU1Onv2rAYHB3Xx4kUtLS25Qw27urrU2dmpVCq1bda+RCKhI0eOKJlMqre3V3/3d3+nzc1N5fN5VVdXq6mpScePH1dnZ6dqa2vlOI4k+TZUNyEWQRUAAAg6wioAALBvvDPW2T2WHMdRbW2tzpw5o9dff33bkDbDO9tdLpdzZ/drbGzUJ5984vvapol6R0eH2tvb9eabb5YEOfF4XM3Nzbp48aIuXrz4XOu1uLioqqoqd8ihaaz+0Ucfua+dy+VUKBTcIYjmZ5sJ07q7u3X+/PmS9TXbwK6gkr6dXdE73I+KKgAAEBaEVQAA4JUygYxfo3O7x5ThDWe8vzOPtcMbO9jyY4db5rFmubzhz04qLZeZ4TCRSLhVT4Z5HbuSzK/HlGEvr9+/9rawt63p0+U4zrZlAAAACCLCKgAA8ErZjb7tMMYOl+ywyA5tvBVV9n3NMEK/wMv7GL/X2UtPp3IhmnnuWCymZDLpNj63l8E7LK9cuFYpsPK7r738dlN5GqsDAICwIKwCAACvlB1SmWF/drjiDWIcx3GDpHw+X7byqVzI5Bf22NVa9jBCv6om87yVQiPv/R3HUXV1tRoaGlQoFJRMJpVIJErW1xtyecM3v3Xyhnh+y2OHdyak2qnSDAAAIEgIqwAAwCtlApV8Pu9WQkn+VVPm/tFo1L2/5F+FVKnayFRy2fc1YY4Z/meG4dkz59mv5fc8fq9l99tqaWlRPB5XMplUVVXVtuGHfo+3t1G5dfSGbN772+tg1sv7/AAAAEFFWAUAAPaFdxjgbsMmbyWW3QPLfoxftZHNhGBmOUzTc79G7pVCIfs1zPPEYjEdPXpUDQ0NymQychxHnZ2dewqNvKGUvfx+FWnlhhkCAACEBWEVAOBAKNeLqFKPojB6UetTrs9SOS9ju9lhi19TdfOvHVZ572c3Rze9qvyG8FV6bembIXN2bydvNVW5Kiv7+cy/Zoa/np4eHTlyZNt6Pe+2tyukvMvvXT5veOU3e+J3cZD2v4PA7323HdTjIADg4COsAgAcGOai3htqMPTJXxi2i191lHe5/UIZO8jZTcN0e1Y+v0DM/td7u99zVWrybpbNO6SvXKXUbpa90r9BFYb9L4h22p/LDVfdzTBWAACCgrAKABBKfhUD9mxu3v5Hfj2LUDkw8AY/5e73PHb7+J2ainsrp/yW0a8iqdLr+d3veYOqnX7ndx9vWFWpMswvqNvN8gV1f3/V+99BUakS0QyL9R4D7dvZjgCAoCOsAgCEjhmm5dejx1zo27PGVapgOcy828XcZgcgL2r42Mvm17PJrpYytwfx/bfDNfOzX9gUpGV+EfzeF/v2MO1/r5oJn8zsktL22R/9bj+I+xEA4GCiDhgAEDqO4ygWi5VUSpmLXcdx3LDKrrQyF772jHIHgd2zyNu/qNL9DW9QUu4x5R4fBH7L4zeszp75L0js/dPeZ6Xt6xE0L2L/s9e73GPKPf4wskNYu6LKHPPMfSrdDgBA0FFZBQAIFcdx1NTUpM7OTtXU1JT8zlyIOY6zrS9LpZ5Eh423t5e3AskOdIK4rcpV4Jgg0l6vYvGbGf5MA/ZKvaReJXu4qllub68rv1DxIPDuf6YiMiz7336Kx+NKpVLq7u5WbW1tyd+tGcbqPfZ5Z90EACAMCKsAAKHiOI7q6+vV2tqqqqoq93ZvjyO/IUTeSpuDrNL62cOH7P/sx9rDi/yG1+339vMbJmeW29tgP5/PK5fL+Q4d3Q92NYxZ5nw+r0Qisa1asFzPrf3e/jupVCW10/7nrS4L4v63X2KxmJqampRKpVRTU1Oyjcr1ZgtLw30AAGyEVQCAUMnn81paWtL09LTW1tZKQghvzx9vjyIu1r7hDW38gh+7/1fQLnbLVRyVq5yLxWJuVVUQeJfPVALupudWuecIC2+Fo9/+Z+97Qdz/9lM2m9X8/Lymp6e1urqqXC5X9tjm7T/H9gMAhAlhFQAgVPL5vFZWVjQ7O6t0Ol1SSeOtrLErhLwX/oeZqd6xK3z8KtOC2OPJDjH8hjt5RSIRxWLfnu4EZSY0exnsEM3b7H6n9yqMdrv/HbT+ci9CLpfT0tKSnj17pnQ6rXw+X7KfSN9uT4Y9AwDCjLAKABA6dohiB1D2RZsJqRzHqdi8+TDyBiJGuV5WQZpFby+v7220HzTe5StXcXRQKoz89j8TLEva1suqXDh5WNmz+9lBrHf4c9j3EwDA4canPgAgdEyPH29Dam9PKu/FP4HVN7yzr9mNrb0zh9nhX1C2n1/FUSVmvYKy/FJphZjf8tn78UEY/mfzVuzZ62pvBzuwCtL+t9/ssMoMIbX/syeYYCZFAEBYUVkFAAidSkP6yjVqDsoscPvNO0TI5hf2mdvNxW8+nw/McEq74sYMW7R/NvexK8WCstzSt9vbbFvvcvtVXIWdeT/KDf3z9pqT/HtYHYRtsRf2+ntDPO/fpTfkPKzbDAAQToRVAIDQMQ2zM5mMVldXJW2vOCkWi8rlcioUCorFYod+CNFuqnO81SumUsM83lS92LfvJ7M8Joj0e7+DVpVkV7eUmxjA3M9UudnD4uxhXmFyEPe//WD69MVisW0Vo36VU36hIAAAYUBYBQAIlVgsptbWVjU0NOivf/2rxsbGfGdLk7bPCnjYeYf9latk8atskUor1YLAW6FUrjdV0Hr4eMMqv6F+3gb33rAqjPvzQdv/9sPa2pqePXumnp4e1dXVuVVn0reBnreSMGj7PwAAu0FYBQAIlVgspo6ODnV0dOjmzZv685//7NvfJxKJKB6Py3EcZbNZ5XI59/aDbKcQw644SyQSisVi7nYzFUrenkKmksUeihWEsKTcsEW7QsdbYRek4aBmm5r9MxaLuVVhdvhm39/v9iA5TPvffqipqdHRo0d1+vRpNTQ0+A4J9A4bNb8LyvBdAAB2g7AKABAqNTU1eu+995RKpbS8vKx0Oi1JvsOjDnNlVbn1XV9f182bNzU1NaU33nhDr732mm9PJG9jZml7OLRf/JbHZsKOSCSidDqtW7duaWZmRmfPntXx48f3/aLd3nZra2u6ceOGnj17tu39CLNy+4dZ37m5Ob3xxhs6duxY6Pa//RSPx9XY2KiOjg4dO3ZsWy+vSr3owr5PAQAOl0jxsH7aAwAOJL/+LXYT67Dby8e2eUwul9Ps7Kx++9vf6tatW/r5z3+u999/X4lEQvF4fNtFr3lsLpdzK18cx3mh6/O8vO+rHzO7Xj6f1+zsrH73u9/p7t27+vnPf64f/ehHbkVPJc8bivj1TKu0DoVCQblcTlNTU/rNb36je/fu6Ze//KXef//9kgowb4DjfX9ete+6/01NTem3v/2txsbG9M///M/6wQ9+oGQyWVJhFeT9LyjMtrKr7PyqBgmoAABhRWUVAOBAsquqDssFW6XZ0jY3NzU+Pq7h4WF9/fXXGhkZUXd3t2pqatTf36/u7u6SXkI2v9nb9psdWHnXOxKJKJvNanx8XHfu3NH169c1Njamrq4uJZNJ9ff3q6enx30uvwbn5V5rN7fvJBKJKJPJuO/HrVu3NDY2pp6eHnf57PfDb/2CqFIT9Y2NDT18+FC3bt3S1atXNT4+rq6uLlVXV+vEiRPq6uoK1f4XBCbUoycVAOAgIqwCABwoh7WywDscyGtra0ujo6P6/PPPdf36dY2PjyuVSqmurk719fXq7u6WpLKz6AUpJLHX064usauRstmsHjx4oKGhId26dUvj4+Nqbm5WVVWV6uvr1dXVVbKuhUKhpDLFOwzNzELnDZDM7c9ra2tL9+/f1+XLl3X79m13+ZLJpBoaGkrCtCBUVO1kp+2xsbGhkZERffHFF7px44aePn2qtrY21dXVqaGhQV1dXZLCsf8FQblgDwCAg4KwCgCAA8A7w5pUGiCYsODSpUuamprS+vq67t69q3g8roGBAZ07d25bv5tKlVr7ydtIPRKJbBsCtbm5qTt37uiLL77QxMSE0um07ty5I8dxdPLkSZ07d64kBPEGUZVezzT8tn9XbjY7v2qsSCSijY0N3b59W59++qkmJia0vr6ukZERJRIJnT171vf1g/QeeO20/5n97csvv9TU1JTS6bSGh4eVTCY1ODioM2fOhGb/AwAALx9hFQAAIVIpUPE2mTdT2efzea2ururevXu6evWqstms8vm87t+/r2w2q48//lgbGxtKJpOKx+Mljw/i8CuzPPl83p3lz9vjaHV1VaOjo7py5Yq7DcbGxpTJZPQP//AP2tzcdNe3UoNv+3bzet7wyO6TJqmk0stmtqd5P+7cuaPLly+7jxsbG1M+n9fU1JS2trYCN3uh9Hz7n2l0n8/ntbKyopGREV29etWdDXBsbEzFYlF///d/H6r9DwAAvHzBrCUHAAA7KjfLoX17LpfT48ePdevWLS0sLGwLZsxwua+//lrPnj1zH29CmSAOOzMhSDQaLQmqpG8qqu7du6evvvpKs7OzbmBkQg97fWdnZ32f3686yFRvxWKxbaGM97HRaLQkZDKBjSRlMhndv39f165d08LCQsn9otGostmsRkdHNTQ0pJmZmW1NtINkp/3PbO9Hjx7p9u3bWlxcLKmeMr27xsbGdO3aNc3NzbmPt/c/wioAAA4fKqsAAAixciGGCQtyuZzGvyjnHwAAIABJREFUx8d148YNzc3NlVz4m7Dg/v37unLliurr69XT07PjMDbz2P1i90by9jgyvbkuX77shlV2OJLNZjU2Nqavv/5aDQ0Nbq8uL2/jdqm0n5Lfdig3XM8eDmd6VZlwJhqNlgwvzGQyGhkZUWtrq+rq6tTZ2bmtcsvvNfbLTvtfJpPRw4cPdfPmTTcstZlwsaOjw+1dFfT9DwAAvHyEVQAAhJQ3HLF7OJnbTG+kv/3tb3r06JGy2ax7PzMc7fbt24pEIhocHNT58+crhi5+t79q3tnh7OXa3NzU2NiYrly5osnJSW1ubrpVTfl8Xmtra7pz545isZgGBgb0xhtvuNvLOyugPbTNbzY+7+3eIWveoYTRaFQbGxslvbTs98MMX7xz547i8bjOnj277fXM8wWBvZ94G/yb36XTad24cUOffvqpnjx5okwmU7L/rays6NatW3IcR6dOnSp5P4K6/wEAgJePsAoAgBAp1/zbDJ0yPZykb4YArqysaHh4WENDQ26vKiOfzyudTmt0dFSbm5v6yU9+okwm4/ZK8ntt76x4+8EvyDAByNramu7fv68bN25ofX1dmUymJMxLp9O6d++eMpnMtl5J9qyA5nXs57Yruezb7W3lF1iZ5TXh4MjIiK5cuaKtrS3lcjn3viZMu3//vorFoqanp5XNZuU4jhzHcZdvP7d/uf1P2r49crmclpeX3f0vl8tt2//W1tY0MjKiXC6nTz75JBT7HwAAePmC14gCAABUVK6Pkd1jygw3+/rrr93hf34X+JFIRLFYTIVCQffv39eXX36pmZkZ39cz9w8Ssw1M76MrV65oamrKreCRSiubTNCxtbWle/fu6cqVK27vKnMf02PKPLd5nLd/l3ebeiux7NvNcDfTG8z7/nmX0QwHvHTpkqanpwPVw6nS/mdX9N27d0/Xrl3T/Px82eU2+59pgP/VV1+5vdO8r2fuDwAADj4qqwAACBm/ChtvcLK1teX2ZpqdnXXva1dimZ8dx3HDgsuXL6uurq6kl1O5YXD7yRv0eMMqU7Hk3UbmXxNWffXVV2psbFR3d7e7brlczn1+0/OqXNBSafnsx5nhiSasKtfzylRRmbCqpaVFNTU16uzsDEzDe7vSrNz+Z9b36tWrbm8uv+1omuTncjndu3dPqVRK9fX16urqcu8TxP0PAAC8XIRVAACEjLfCxlQB2RfzW1tbunv3rj7//HNNTU0pEomoqqrKbfKdz+eVSCQUj8fd4YB37txRNBrVqVOn9NZbb/m+blCCArvHlPRNODIyMqKhoSHNzc0pkUi4y2qvrwlGTCP2qqoqnTlzpmT4nhlyt1OvKO8QTLuyyr5PsVjUxsaG7t69qy+//FLPnj2T4zhuFZcJx8zwNzNccXR0VIlEQq+//rr7/EFgB2Z2lZW9/21sbGh4eNitDPPb/5LJpFtVtbq6quHhYcViMZ0+fVrnzp3b9rpB2v8AAMDLRVgFAECIeAMRu1eVqQIqFApaX193K3ni8biqq6tVXV0tx3E0Pz+v9fV1NTY2qra2Vmtra1pfX9f4+LgymYx++tOfur2SgjDsrBJTdWPW9/r164rH42poaFAymZQkzc/Pa2NjQ/X19aqtrdX6+ro2Njb0+PFjFQoFzczMKJvNKhaLla0AKjfrndneptLNvq95n0xvptHRUV27dk2xWEy1tbVub7HV1VVlMhnV19erqqpKGxsb2tra0qNHj1QsFvXs2TNls1m38mo/Pc/+Nzo6qqtXr7r7X01NjaLRqObm5rS5uanGxkbV1NS4+9+DBw9UKBT0s5/9TLlcrmTYJgAAOFwIqwAACKlcLudW3MRiMbeJ9/z8vB49eqR0Oq2GhgYNDg5qYGBAR44cUSKR0O9//3vduXNHn3zyiS5cuKDx8XGNj49rdHRU2WxWCwsLevz4sVpaWtTQ0FDSINw00N7v0MTI5XLu+q6tram2tlaDg4Pq7+9Xb2+vHMfRH//4R42NjemnP/2pzp8/r8nJST169Eh37txRNpvV/Py8njx5otbW1pL1NbxNxO3b7aGU9m0mpMpms1pZWdH09LTS6bSqqqp0+vRpDQwMqLe3V5L0xz/+UQ8ePHCXb2ZmRo8fP9bNmze1tbWl+fl5TU5OKpVKqamp6RVt2Z2Z/c8M5TNDKOfn5/X48WNtbGyoqanJfT/6+vokSb///e/18OFD/exnP9O5c+f06NEjPXz4UPfu3VMkEnEf39LSovr6+m0VhEHa/wAAwMtBWAUAQAiZMMQe3ibJDZtmZmYUiUTU2dmpCxcu6Ic//KHOnTuneDyu0dFRPXnyRB988IF+/etf68aNG/r666/lOI4ePXqkzc1NTU9PK5lMqq6uzg0GTOPxIPRNMsPO8vm8FhcXNTMzo0KhoFQqpfPnz+uHP/yh3njjDTmOo4cPH2p2dlYffvihfvWrX2lkZEQ3btyQJI2Pj2tjY0MzMzOqqqpSXV2dbzWPqRiym6eb7VJuexQKBW1tbWl5eVmLi4sqFotqaWnRm2++qQ8//NAd6nb//n09e/ZMH330kf71X/9VDx480I0bN9w+XBsbG5qbm1NdXZ0aGxvd5dlPZv+zwyrpmyGXCwsLevbsmSKRiLq6uvTOO++470c+n9fdu3c1Pz+vjz/+WL/4xS9048YNXblyRdFoVFNTU1pfXy95P0wA6K1gAwAABxdhFQAAIWSqqcxQPSMWi6mjo0PRaFRVVVX64IMPdOzYMR05ckStra1aXV0tCTri8bj6+vqUSCTU0dGh5eVlDQ4O6tixY2poaHCHdklyX2u/wwJ7SJ5Z7mg0qurqas3Nzeno0aPq7e1VW1ublpeX3ceYvlDd3d1KJBJqbW3V8vKy+vv7dfToUTU0NJQM5fPrWWWqpnbqn2Sqraqrq9Xa2qpTp07p17/+tT7++GMdP35cfX19amlp0cLCgqLRqLudzft3/vx51dbWamlpSYODg+rr61N9ff3L2qTPzSyrqXQy4vG4Ojo69Oabb6q6uloLCwvu/tfS0uLOTGkkEgkdPXpUiURCXV1dWltb0+DgYMn7EbT9DwAAvHyEVQAAhJAJC7xisZja2trU2tqqwcFBt5eQucBfW1sruX88Hld3d7e6u7t17tw5FQoFNwSTSoMhO7jabyYwMuvb1tamU6dObQuS7HDOBCudnZ3q6enRm2++6duLyq6e8s6eWC4o8T7GDhMTiYSam5s1MDCwbfstLi6WBDCO46i1tVWpVEpnzpwpub89K95+K7f/xeNxpVIptbW16eTJk+42N+s3Pz9fcv9EIqGenh51d3fr/Pnzodn/AADAy0VYBQDAAWWqe/yGtPld9JdrLi4pMCGJ9G2A5Lc8fstvh0x2qLTb56/0en6Pe57ltZllM8vqrezazXMEiXc9jErvUaXm9mFadwAA8N0QVgEAcADtZpiaXalTaaa5ncKdV8kb/JQLcuzZ6ipVRO0UMO10v90+j9/yPs/z7WboYZC8yP0PAAAcPgz6BwAAB1YYwh17VsGd7gcAAHAYUFkFAAAOHDvYOQghz0FYBwAAgN2isgoAABwaQRrS6GUPXQQAADjMqKwCAAAHXlAqk3bTZB0AAOCwo7IKAAAcWOVmlgsSu1+V3/IFJWgDAAB4VQirAADAgWbPPCcFN7Dazc/2egAAABxUhFUAAODQCHLQQxAFAADwDXpWAQCA0PCGOWEY5reTSsP8Kg0PBAAAOKiorAIAANhnDPMDAAD4FmEVAAA4FIIeBAV9+QAAAF4VwioAAHDgBXlGvSAvGwAAwH6gZxUAADgUghwKeXtTBXlZAQAAXjYqqwAAwKFggiCG2gEAAAQblVUAACC0Ac7zViLt93rudjbD/V7Ol8nvvTrI6wsAAJ4flVUAABwykUjEDQwKhcKOQYF9/zCKRqOKRr855QliKLKbbRvE5f4uDtP+BwAAnh+VVQAAHDL2xf9uQ5CghAU7Lbff7yORSElYFcTgx96+3uXzrkvYmf3ved6Lg7DeAABg96isAgAACDCCGgAAcNhQWQUAAELnoAY4O1WMAQAAHAZUVgEAgAPL2+8oqEMAzbA4AAAAUFkFAAAOIG8lUlAqk4KyHAAAAEFGZRUAADgUgtpc3RaGZQQAAHjZqKwCAACHStDCIO9QRe/vAAAADhsqqwAAwKERtKDKK+jLBwAA8CpQWQUAAELPG/L4VSQFNQiyK6u8y8jsgAAA4DCisgoAACAAghqmAQAAvGpUVgEAgNDYTQWVl32foAZC5SqrAAAADiMqqwAAAPaRN0yzAyvCKwAAcBgRVgEAAOyTSlVfBFUAAOCwIqwCAACHCiEQAABAsO17z6qdThjL9XBgFhwAB8VOxzeOf0B55c4jnvf2V4XZ/YD9x/UHAARfYCqr7A+DQqGgXC6nQqGw7T6FQmHfTzQB4GWodGwrFovK5/Mc//BCRCIRRSIRtz/STvteWJl1i0ajisW++X4uiOcR5v0w74n39p3eo7Ax6yVt79FlO2jrjWDx7l+FQsH3c5b9EAD2x75XVkmlHwKRSMT9sPCetJn72bfzDQeAsPE76fVrqGwf3wqFggqFAsc8vDDeygG/ir4gXqDttuLB/n00GpXjOL6PCwI7vJEqHyOi0cB8z7gn5dZ1p4pS4GWw9zMTVJW7/rD/9vgsBoCXLxBhlffbtUgk4vsNaCQSUTQaLbkfHxYAwsgc27wVFX4nxQAgcYEMvEje4Nt87npHctjXH/bjAAAv175eDXlL3SW5lQOO47hVVnZZbrlvVAEgTPyG9XkDq3KVLUGteAGwMzugNuc03mFx5R4H4Lvxfn6az91CoaBoNOoGVvl83r0GMfeTgjmMGAAOqkBUVhnmmwtJ7oeD/S2H+UDxnuQBQNiYY5t3WLNdZWVOns2x0dyez+fdnwE8Hy40AdjsURuS3C/NbVx/AMCrF7iwSvr2Wwv7Gw6pdJggFVYAwsycDPt9yyuV9qiy/zPf9nKyDOyO38VlUM8ddtPwHsCLZX/uStr2ZZB32L4U3GMIAOwkTNcQgQqrpNJx4WZD2hdnfKMB4CDxhlOO47hBvV1lZe5n3w6gMr+/kyBeZO50Eext+AzgxfIOy5VKrz/oIwkAr96+hlWZTEbZbHbbt4jeE7JsNusOe7Ev5DhxAxBW5ngWj8cVi8Xc3nz28EC/C1SCKmDvwnLe4Bde8XcPfHfFYlGZTEa5XK7k+sN7bCgWi8pms+6XSKaXLn+HAMLKBO/RaFQ1NTX7vTi7sq9h1f/7f/9PN27c0MrKilZXV0uG+RnmNiqrABwUjuOoqalJHR0devfdd3X27NmSE2H75Nl7G8c/4PmE7W+GYYDAy7O4uKihoSENDw9reXlZ6+vrklRy/WH+/rzN1cN2LAEAWzKZVEtLi1pbW/Xv//7v+704u7KvYdWlS5f0X//1X1pYWNDS0tK2nlTlelRxIgcgzGKxmFKplE6cOKGWlhadPXu2pGLU2+jVixNmYGfl/k6CeP7gPe+Rti8nf/fAd7e8vKxPP/1Uf/jDH7SwsKC1tbWSUMrMRG7/LHH9ASD8amtr1dHRod7eXsKq3VhZWdHS0pLee+89XbhwwfebC78LNr9GhwAQFul0WkNDQ5qamnK/1ZV2rqSiugrYG7+qxaDg7xl4dXK5nJaWlhSJRPRP//RPGhgY2Hb94TfpSbnJUAAgLKampjQ0NKQnT57s96Ls2r6GVaurq1paWtKFCxf0H//xH7ueit2uuKLhIYCwmZ6e1szMjG7cuFEyBMHmN3uZOe4RWgF7F6Sgyg/VG8DLk8/ntbKyIkn6+OOP9atf/eq5rz92e38ACJJLly7p9u3bunPnzn4vyq7ta9JjGgpLckMnb6P1fD5ftsEwHxQAwsoc/0ylqLS9iso+/tkzpdqPAXAwhGnYIhBW5jPUe/1hM7PzMsEJgIMmbF+I7XtYZWbj8Dv4l/uwkKgoABBufmGV9/feIMsc90w/DQDPL4gnabsJquyeOUFcByAs8vm8G1Z5h/7ZEzv54foDQJiF7fxhX4cBlmM2oimz9evZIvGBASC8TKWU33A/83szQ6D9u3KPAxB+BFHA/vF+OUTPSADYX4EMqwy7JxUncAfLbt9Lv2aXe/GyTy7KLV+55edkB36hk3cWQO/xz4RVjuPsyzLj4NjLMShoF2s7LUdQzxmCulxBF7T9DweX/dnsvf4oNxoE4bDfx1/2HeD5BCqs2ukPmD/wg8fvQ9++KPf7nV+lyfM8PxAE9jADe183DdS9+63fbKnAXvjNfLVT4B5WdkNkE/IGsedbuS/nvF94hP39sO1mXQ7S+iK4uP44XHZzfK00I6S3z7LfZ6l9XncQj9/AqxKYsIoPisPH7g9gH9DNhYRpJu29v/1zpQ8Av9nTvPa6X5V7vt1+IPHBBTus8jZ4JajCy/Y8QUHQgp29sMOqoFVq21/O7PTli+TfEDpszLpW6sF1kPY/BBfXH4eTfR5eKXQyIpGIe87mvW7xe5x31ki+PAf2JjBhFQ4fv4O2PeOZfUK+U5P9ShVa5ncmBHuRs0n6BWjlKmO8j+FDCwBevaCGH7sJZ/jcAIDvxhsu+R17vV9029cl5b5A9F5b8EUj8N2F/+s5HDj2cAipclP9nYaxeL/lyOfzL+xCxTszk/06fq9fbrkAAIdXuSHvfvcDAOyd/YW1tx2DVHlIoN+x2htORaNR30lwdjPsHsB2VFZhX/mV2ZYbJ17pRN0eTuAdImE+jPxmV/sudloe+/W9H34vqrILALB7Qb9I4EIGAF6+nYYee687duqhW+l1ON8H9o6wCvvGe1JuB05+Pz/Pc/p9I2K+7XiRFwK7/aAyYZl5DB9cAPBq7KZq6VUqN9yPzwUAeLl2c/w31xKO42xrpm7//07H8N3eD0B5hFXYN5WaSPtVV/l94+E96TdhlAmH7FLclzF2vFy5sB2YeZfDLJ9fmTAA4PApNwuV/fv9DtkA4CAodx1hDxGs1Hf2eb8A4Vwf2DvCKuyL3c6+Uu5DwQ577OF/ppF6oVAo+UbkZag0I6D3g9BeDrN8fHgBwIuzU2PyMBxz/YaNMykHALw43usG73G3XN/ccm1KvM/th+M3sDeEVdh3JrwxHxrPM3W33+x+9u/y+fy2EMsMB/yuyi1npWa5dpUVH1wA8HLtNCtrkPCZAAAvn/e6odLIDUnbZhP3e75yrwPguyGswr6wLxQKhYLy+bwklUwL672YyGazyuVyyufz7v3Nh4cdPnnLeOPxuGKxmPu4WCz2Uiuu/IIqv2GBAICXL2g9q3ZCfxMAeHnKHVPNdYK5xkgkEnIcx50x0H6sX0VVNpstuZ6Jx+Pbel5xPAeeD2EV9pVdhuvXg8qEVtlsVmNjYxobG9ODBw/05MmTbQd+x3HkOI4aGhrU3Nysvr4+9fX1qbOzU21tbW4/qxf1QVFp9kF7ufhgAoBgCGpQFbZADQDCzHs9kM/nlU6n9eTJE3322WdaXl7WD3/4Q50+fVo1NTVKJpPbKqvs8/2VlRUNDw9rcnJSktTU1KTXX39dXV1dBFXAd0BYhX1TaXy490Mkm83q4cOH+vTTT/Xpp5/qypUrbsWU4TiOEomE2tvb1d3drQsXLujtt99WNBpVY2OjJL2wpubFYlFbW1vKZDKKx+Putyc7NYf3W3cAwItXbgbWoAZB3t4pVFgBwIvnd4zN5/Pa+P/s3VlzW8eZN/A/9h0EuID7LkqiqM3aHMuy4y3OjHOTqlSlpqbmZq6m5lvMp5mrVCqpmcSuWHbeWLIkW5ZEiVooiqS4iBR3EiQIENvBe6Hp40bzHJKSKOEc8P+rYkkEAeIAPOg+/fTTT2cymJiYwB//+EdMT08jGAyipaUFXq8XgUDA8PeISetUKoWHDx9iaGgIANDa2opEIqEHq9TJbbbnRHvDYBVVjHxhLtJmAexY08npdCISiaC9vR3vvPMOjh07hmKxqNejKhaLSKfTSKfTGB0dxdjYGC5evIj19XW0tbWhubl5XzqIbDaLa9euYWhoCL29veju7kZjYyPq6+vLXpfRGnezjCwiIiKrBtOIiKqBUVF1h8Ohr9BQV3vI5UrE/eXHlUoleL1etLS0IJvNAgDq6+sRCoX0DZXkyWwGqoj2jsEqqiiHw1G2PlzcpgZy5I4hHA6jpaUFn3zyCX7zm9+gWCyiUCggm81ic3MTo6OjGB4expUrV/DgwQO9yLrb7UZzc/O+HHcul8NPP/2EP/3pT/jggw9QLBbh8/lQX1+vH6e6a6GgBrKIiOhg28syQGZaERHtDzlgJe/cLYJV4j5igyYxTlHr4qrBKo/HAwAIh8MIhUJlv99sXEBE5hisooqSa1YJcjFCo4COmP3w+/2IRqP67cViEfl8HpFIBK2trQgEAqivr0cul8PVq1fR1taGU6dOAXixZHA/X4PI7BKdkDhOo0CVOmNDRERERERvj1H2VKFQ2DYxIHYRV3cQlLOz/H4/mpub9bIjXq8X4XBYr5cr72bO63+ivWOwiipGbrjNfq7OQIhgjwhWRSIRuFyust8h0nD9fj/C4TAuX76MH3/8EZcuXUIul9N39xC/r1AooFAo6MEmQXRObre7bKYll8shnU4jl8uhWCwim83qSw+3trbg9XrhdrsNC8YDnA0nc7st/+G5Q2+SXTN3zD43Zq9HHjhUgtlz2+X9flPUJTJcDklEb5IcqBLBqmKxuG2iXEw+q+MVMWZwOp3wer2Ix+OoqanRJ+LdbjdKpZI+XpDHM5qm6eMcdRmiOq4R5N0KxePl45PHK2b9yUHvZ8h+GKyiijG7IJVnLeTOQW18jRpj0cG43W60t7cjm81icHAQ+Xwec3NzGB0dRXNzMxKJBDRNQzabxZMnTzA6Oornz59jcXFR7zDq6uqQSCRw+PBh9PT0wOv1QtM0/Pjjj/jhhx/www8/4NmzZ/jhhx8wNzeH6elpzM3N4ciRI+ju7jZ8TfLrZYdBRsxqnRHtN6M2WFwAG83+2nXpsvp5sloQZK8F4O36/htR/x67BRyr5XUTkTWIQBHw83hDrlklr5oQ91HbYJE1BQDJZBIjIyN4/vw5CoUCotEoBgYGEA6H8fjxY8zNzemBJlG2ZGlpCZubm3o93ra2NnR1deHQoUNoaGgoO95MJoPnz59jenoa4+PjmJubw9bWFkqlEkKhEBobG3H06FF0dHQgFoshEAhs6/PYjpIdMVhFlmU2WDdaLw6UX+C7XC40NzfD4/GgtrYWhUIBS0tLePr0KYLBIBoaGpDL5ZBMJnH//n189913ePLkCSYmJsqCXb29vSgUCojFYojFYnA4HHjw4AG++uorjI+PY3FxEevr65iamkI2m0WpVEIsFtsWrCIyYnTumg3c1J0m5ccTvSyz9lUEq9Tzzej/djr/5FqIlc6sMmO05B3Yfrx2et9fhtF5J99era+biN4euV0V/Z1YDSEv9xPtrhqskgNWck2rVCqFBw8e4N69e8jlcmhubkZDQwMcDgeGh4cxNDSETCaDra0tZLNZrK2tYXJyEsvLy3A6naitrcWJEydw4cIFRKNR1NXVlWVhbWxsYGxsDHfu3MGPP/6IkZERbGxsQNM0xONxHDp0CJubm/rr8Pl8hitT7Nh/08HGYBVV1G4zxfL2skYD9Z3WfouU2FAohGg0ilKphM3NTeTzeeTzeX2L2cHBQTx79gw9PT149913AbxItV1YWMDCwgJu3LiBxcVFXLx4EcePH8f58+fh8Xjw9ddfAwB6e3vR19eH06dP48SJE2hvbzcdWFTTzDi9HjlrUMzeiYyWnXaKZIFO2g9iyYO84QPwItCvtlPy92zDKsMoiFMtjAZPctCU5xsR7TexikLelVzuE+X7Gf0fQFkgSw1mqddomUwGY2NjSKfTaGtrw6FDh3D69GmUSiUsLS1heXkZz58/xw8//ICuri40NjYiEolA0zTMz89jZGQEV65cweTkJJqamtDb2wuPx4NSqYRUKoWtrS3cvn0bs7Oz+Pzzz+Hz+RAMBuHz+QyPncguGKyiijHqDMwyTIw6j90uYkWGVDAY1Auxp1Ip5HI55HI5PHr0CN988w2eP3+OdDqNS5cu4dNPPwUApNNp/P3vf8f169dx9+5djIyMoLGxEadPn8apU6fQ1dWFxcVFTE1N4cyZM7h48SIGBgZw6NAh08DaQZgZp71TMz1EDQKPx1N2vqjnjQhs8RyiVyUHqIzaqt2WpNk1YGXVjKq9suN7vhuz6wARrJJrtzCzlIhel9yOiGV8ch0ouRbUbr/HqM6e2UZKW1tbmJqaQjqdRldXFw4fPozTp08jGo3iyZMnuHnzJv7yl7/g+fPnePfdd3H06FF4vV4Ui0VMT09jaGgIN2/eRCqVwm9+8xucP38e9fX1KJVKGB8fx+DgIL799ls8ePAAnZ2daG9vh9vths/nY1tJtsZgFVXUbumoaqqt0fI/0cGoBQnFfTweD3w+H4rFIlKpFNLpNDY3NzE5OYnh4WEcPnwYR44cwTvvvIO2tjYAQD6fRy6XQzwex3fffaevQ19aWkIwGCwrglgsFvXiiUavRX4Ndh4o0f6S08vlQpwiIGUUNBD3lwv+E70s0S56vV79fNupZpBcw8qO551R7S2rseP7+jrkc0ne2EQwyvAjItoPar8m6lWpfdxOE+PyhKN6PzlzWb5vIBBAJBLB6dOn8e6776KxsRE+nw8ejwfZbBa3b9/Wa1Gtr68jHo8jk8lgZGQEExMTaGpqQjwex8DAAHp6ehAKhQBAH5c8e/YMz58/x9zcHEZGRvQdCdmOkp0xWEUVI89AmNXokf+vBq4E0SmoHQfwIgggBmXFYhHpdBqZTAabm5t49uwZxsfHcenSJXz22Wfo7OxEc3Oz/juj0Siam5tx//59zM7OYm5uDktLS2hsbITH49GDY5qmIZ/Pl11w7xZ845pxEsGnra0tpFKpstvU4KuceSWCpES+UA4RAAAgAElEQVSvanNzE6VSCT6fr2wZhNHyP7PsK7ux0jHvtX+oViLr2eVy6YMyMWDbiZrJYKW/KdlHKpVCPp+v9GFQBYnrdTkLSl62ZzbeUK/djSan5Qx4uU91uVwIBoOIxWI4fvw4Tp8+rf+srq4O2WwWTU1NWF1dRTabxcbGhr77+NjYGCYmJtDT04OjR4+ira0NtbW1+jEHAgFsbW2hra0N6+vrmJ+fx5MnT9DR0YHW1tY3+E4SvXkMVlHFvMqFprp8Ra7dIzoIObtKDPILhYJ+gZzL5bCxsYFsNgsAiMViaG1tRSAQQD6f12dX/H4/otEowuEwgsEgisUi1tfXEYvF9HXiYpmCx+PZsc4QkZGNjQ387//+L6ampvTzWA1KybvRMNOA9kMmk8GTJ08Qi8UQDAbh9Xr1AKjIEJVnnNVgll3PQase914ChNXE7XYjFovB6/Xi22+/xaNHj7Zl7qlBKfV9serfkqxveXkZDx8+5KTPAWa2AkK1180t5Os0UXdUnmwU13R1dXWor6+H3+83vJ5TM7ycTicKhYJejD2ZTGJ6ehr3799HTU2NHhArlUpIJpN4/PixPvnZ1NSEfD7PtpJsj8EqqhijQc9Og3E1SKVusS432vJjCoUC8vk8nE4nvF4vCoUCNjc3kcvl4HA4EI1G0dTUBE3TyoJaPp8P4XAYoVAIgUAAhUJBn+lQg2Vut9swWMXgApkplUpIp9P4/vvvcfPmTT2TSl3WKteokmfsiF6V1+tFS0sL+vv7EY1GyzJaRLumLrmWM/6sHjDY7bisGAgymr2vhow2Ix6PB4lEArFYDPfu3cPly5e3ZSGI164O+Ihel6ZpyGaz6Ovrq/ShUIUYZUaZjUnUZfJqG2UUSJeD73KwKhaL6cEq9XmAn4NV8uPFRPnc3BwWFxcxPj6u1zbN5/P6ckNx/2g0inQ6jVwuxzaTqgKDVWQbRh2CUUcj7lMsFpHNZpFKpbC+vg6Px6N3EiIgIP8uMZthtgY9n88jk8noAS11JkXu1NQMhGoZZND+CofD+Pzzz3Hx4sWyQZlZBoEVB9lkPy6XC+FwGPX19Th8+DAAlLWHRjXR5Cwr8b0dmQWCrMBsSXy1iUQiuHTpElpaWpBMJpFOp00zGHYK2B2E94r23/z8PP72t78hl8tV+lCoQuQgkvhe/Gs2rlBXbsj3EcElNbglTzbKQSj5OeXnERn18k7RpVJJD/AfOXIE3d3daGhoQCQSMczC9Xq9iMViaG5uRktLC4Dthd+J7ITBKqoIowvRnS48zX6mFlQX9xUzZ5ubm9jY2EAqlYLP50NDQwOCwWDZsipR88rtdsPt/vkjoR6bWE6oPlZ+btGxiE5N3bqWSBYMBvHZZ5/hP/7jP8puN6pRJWcecMkp7TdxUS1qCanUDCs7t21WD3KYLQOslkyrcDiMCxcu4Pz589tekzoZJbeDHGjRfnj48CEmJiZw//79Sh8KVYA8VpDLeZjdV10Kb3Y/eRwgyEEis0CV+lzyZJH4XV6vF4lEAmfPnsV7772Hw4cPo6mpqex3apqmZ1OJflwNeql1fYnsgMEqsgyjxlOdaZUDQGYzrGJANTs7i8ePH2NpaQkulwu1tbXo7OyE3+9HJpNBIBAAAKyurmJ6ehr19fWIx+N68CqXyyGZTCKVSiGbzSIUCqGpqQnhcLjseOSglVgiY5QCLM+8yJ0GHVzy+SDIFzfyxYaa6Ue0n+RZX7Ply/LMLM/D/XVQM4bMziNxu9pv8vwjov0gX8OL9qRYLJYtqxPBI3XDG/k63iwLWX6cHFCSg1lGQSQxhhEbR/l8PsTjcYRCIaytrWFmZgZtbW3b+ozl5WUMDg5ieXkZbW1taG5uRiKRQCQSKXudbDvJbhisooowmk2VG1GjWQx1Hbh6P/lra2sLU1NTuHfvHlZXVxEMBlFfX4+2tjY4nU6sr68jHA7D4/FgdXUVT58+hcvlQjQa1Wtcra+vY3FxERsbGygUCgiHw2hqakIwGNSPR1xEi6LERh2BWnNIPk52GgeXWTBAXLzIF0dm9+f5Q6/CKBgiz8AaZU6ZLb+m/XNQ3tedgnFGAz+g/LwU5yonfOhVHJTPGRlTxxXyeEINVhn1gfI1P7C9HZIn1uUJdqNxjVk9LHnc4PP5UFtbi2g0qk+u9/f36xtCAUChUMD8/DyuXr2KyclJPWs1HA4jEomwLAnZGoNVVHG7Lf8zqx21vr6O1dVVfYBfKBSQzWaxvLyM2dlZfP/997hz5w6i0Sg++ugjdHd3w+fzweF4sc1rV1cXjh07huXlZXz99dfY3NzUAwSFQgH37t3DvXv3sLKygra2NjQ2NqK2thY+nw9bW1t6ZyKORdxmdLEtp/VyZpgA88H/TmnaDHDSfjK6SFbbJwbW3z6zyZxqotY+M9swRc2wIiJ6XXIJD6PMTVESRExai9Ii6vWaCKAHAgF9ybL4EkEv4OeMLXk8IGd2qZNF8v1CoRCOHj2KVCqFBw8eYHV1FfX19QCA2tpalEolTE9P48GDB3j48CG2trYQDAaRSCTg8XhQKBQM61AS2QWDVVRRZkVVxc/U24AXwarNzU0sLy/j2bNn+u8QNaqePn2K0dFRXL9+HSMjI/jiiy/w4Ycforu7G16vV78Q7urqwokTJzA+Po7vv/8eoVAINTU1egH227dv4/vvv4fL5UJ3dzeam5sRi8VQLBaRTqf1jiadTmNpaQnr6+vIZDLweDxlu2upnRs7DDJjFsRUlwnyHKLXpc7yGi2vlu8n7iNuA+zZlu1Ud6SS5EETYO1C8PtBXQ5vlIEsfy8yFBg8JaLXYVSrSu3nXC4XisUiVlZWMD09jUwmg0gkok9oi5IfuVxO37xJ1LRVM7TkGqTyChHxXEbHJmeQBoNB9PX1YW1tDTdv3sT09DSam5vhdrvR1taGUqmEu3fvYmhoCBMTE6ipqUEkEkFDQwO8Xi+KxWLZc9q5/6aDicEqqii18dyJKB6YTqexsLCAv/3tbxgdHdUfLy52RWPf2dmJo0eP4uLFizhx4gQaGhr0C1+Px4OjR4/C6XQiEolgaGgIY2NjWFhY0DuIZDKJeDyO/v5+HDt2TN/m2Ol0wuv1oq2tDUeOHEEymcTVq1eRz+eRTqdx+PBhdHV1mb4m1qwiwPxCQa1xRvQmqMERI0aZrXa90OUSCGsxyiiVzzGRWSDuK26XvyciellyRpNaAF0Eo4rFIpaWlnDlyhWMj4/D7/frk93ysr5isYjGxkZ8/PHHqKurM91h0qgMiBl5+WCpVILb7UZDQwP6+/vx8ccfY3h4GKlUCt999x2cTqe+wsPhcODMmTPo7e1Fd3c3AoGAXjeLbSjZmeWCVXudReQHzd6MGs7d/qZOpxNutxsOhwP5fB6Dg4O4ffu2/ngRRGpubkZ7ezvOnDmD06dPo7+/H4cOHdLvAwButxuHDh1CIpHA1tYWVldXMT4+jtu3b+uzEJ2dnTh06BAuXLiADz74AH6/X38ur9eL9vZ2HDt2DN9//z0ePXqEQCAAr9eLeDyOrq6ustdqVmOL5/HBZvT3VzMMjB7D84Zeh5rpadQmGbXNuxWWrRSjbLC93M+qqjWbSjAauKkDSLm/tup5R9WF44+DQc3elNsbt9sNr9eLQCCAQqGA4eFhPH78eFttKeDn86Wvrw/t7e0IBAJ6mZFCoQCfz6cHnXw+n3671+vdFkASxxAIBBAKheD3+/XxjtvtRl1dHdxuNwqFAqLRKG7cuIGHDx9iaWkJxWIRTU1NOHz4MM6ePYszZ86go6MDfr/fcKKJYw+yG8sFq3bDD1n1Mft7yjP6Ho8HR44cQSAQwKlTp/Q15OqAyul0IhwOIxqNorGxEY2Njaivrzcc4DudTgSDQZw8eRKxWAxra2tYX1/Xz7FoNIp4PI7u7m694xDcbje6urrg9XrR09ODxcVFNDU1obm5GW1tbXt+XXSwmRW6Nlo6Ks/G8dyh/aaeU9XWfrlcLr0Nl2uJWIVciFdW7TPiasabWQZctb1uspdq/fwddHJ/5nK5EAqF0NfXh3/7t3/DBx98YFiaRBWPx3Hq1Ck0NDQgGAxiYGAAmqbpO4gHg0GcPn0ara2t+s7izc3N244jkUjgN7/5DVZXV9HV1YXm5mZ9Jz8RyBI7mre3t2NpaQmZTAaapiEcDqO2thZtbW36ruVmk51EdjsPKh6sMlsGZhSU4mCt+uw2IBI8Hg96e3vR29u7b8/rcrkQCATQ39+P/v7+l3q82+1GR0cHOjo6Xvp5ee4SsHv2B88Telv2eq7Zrf2SP2NynRGjWfJKkidbgO0DY/VY7fQ32MleA1NsE+lNeNnxh/o4sje1P3O5XAgGg+ju7kZ3d/cr/c729nbD2wcGBnY8DgCor6/Hp59+ano/v9+P1tZWtLa24syZMy99bGxHya4qGqwSKZdqqvdOHyRmVhFRNRCZHntt/7h0lKi6WSmARlTNjGr5sH8lIrKeilZ4FoM1tXbBToWp5f/zwo6I7Epkeuy1/ZOx/SOqTi/TDhDRyxOZ9S/b/8o1f/j5JCK7slv7VdHMqmKxiHw+D03TAJSnZIoORPxf/peIyO6KxaK+1THA9o/obbLixdpOn3G5TSCiVyd2cdut/1XrRhIRVQO7tWcVDVZpmoZisVjWWeyEgzYiqhZs/4jeLLPPjNWDPnbfzZDI6orFYtlGC0afLTlgxf6XiKgyKroM0KhmlcxuxVyJiPZKLENg+0f09lg1UMXPOtHbI5chAXbvf63abhARVbuKF1iX14zvdrHGzoKIqoXc/u0F2z+iV2OXgadaP0e+nYj2h9h50+l08rNFRAeOVa+BzFQ0s0rTtLI14yp1i2lmGhBRtZBrZhh1HGz/iA4mu11IEtmJ6FvFMvyd+l+B/S8RUWVYomaV0QyimFnUNE2fARG3ExHZnaZp+pfA9o/o9dlxUGk0GN7t827H10lkBUY1q+T+VwSxRBaWuJ2IiN4uy9Ss4qwFER0komaVWArI9o+IAA6Kid40UbOKSwGJiKytoplVbrcbXq93xyKHAi/eiKhaOBwOuFwueL3esrpVbP+I3jy1JpQViIC1Uc0qIto/DocDbrcbHo9nx/53t36ZiMiOxES5XVQ0WBWLxdDU1IRQKATg57RcOdtAzHrIF3CcCSEiO3M6nYjFYmhsbNTbP1G/Sp7tZftHRHvZgIaI9sbj8SAejyORSCAQCKBUKulLAsUOvU6nUw9SycFjZkETkZ35fD40Njaivb290oeyZxUNVoVCIdTV1SEQCAB4EazK5/N61oE60yivIWdnQUR25XQ6EQqFUFtbC7/fr18sFwqFsl2KRPsn2j62f0TmGRCv8lgrko/RDsdLZCculwuRSASxWAw+nw+lUkmfLJInidT+FwAni4jI1rxeL2pra9HU1FTpQ9mzigar1tbWMDs7i42NDb2QsFgWA2Db4EwUOQSgdyrsNIjIborFItbW1vD8+XNsbGxsm9EFyts/eZYXgN5eEtHLYwCI6ODK5/NYWVnB/Pw8Njc3AbwoSwLAcPyh9r/MdCQiu8pms5ifn8fU1FSlD2XPKhqsSiaTmJubQyqV0gdrcgeg7oYlfiZnWBER2Y2maUgmk/rF8k7tn1qAXc2yIjro5CU6RrdbjdlxqZ9/Itp/hUIBa2trWFxcRDqdNux/RT9r1P+KcQn7XyKym1wuh8XFRczOzlb6UPasosEqNb3W6OdqNoE808GOgojsymjmVtSkAmDazonv2f4R7Y34XKlZE1YkBsbq59wsIEdEL2+nNkCuESn6aI4/iIgqo+LBKrMOQ+0sxG2iALu8VIaIyG5EsB7AtiLq6oBVxuXPdNC9zC5dcpBH3rDAysw+33LdHCJ6dS8TsJYn1veyey8REe2figarBLUelbhN7hSKxSIA6LdxCQwR2ZXRRa4chFLbN7Z3RPvDDgPMnY6R7QDR61Mzm+XPlZrtrN6P/TER2ZUdroFUFQ1WiVpU+Xxer1slyIO2YrGo125RM6rYYRCR3WxsbKBQKJQF5M1ma9Vts4no9VjxYm0vn21+/on2h+h7s9ksNjY2yn6mjj/kjCqjcQoRkV3IdfrsoqLBqvr6erS2tuLHH3/Ef/3Xf5nej1u2E1E1yWazePr0Kdra2hAOh8t29+PSP6L9Y4fPjdExWjGgRlQNvF4vEokE/H4/vvzySwwODpreV16qb4e2hIhoJ6urq9jY2EBHR0elD2XPKhqsam5uRk9PD548eYJvv/12z49jh0FEdub1etHe3o6jR48iGo1u293PbDkgEb08uww0WQuH6M3zer1obW1FPB7HzZs3sbCwsKfH2aENISLaSTQaRUdHBw4dOlTpQ9mzigarfvGLXyCRSGB1dRXr6+umF5RGmVUcxBGRXTmdTkSjUdTV1aG/v79styF51zKZ/HO2fUSvx6oBIbPCz3YoDE9kB7FYDB9++CHa29uxtraGzc1N0/GHmlnFJflEZGderxc1NTWIRqOVPpQ9q2iw6uzZszhz5syugzD151wWSETVRK7NZzYoFfdhu0e0NztNflWS2VJfYaeAFRG9nmg0il/84hd49913X2n8IfDzSET05llmN0C5A1BnLsSuHHJWFTOriMjORDsn2jOx4YS8iYQclJd3TJVrXBFRdVB3JCOiN08NFMu3if5XHX+w/yUiejsqGqwy2/1P/let4SI/lh0GEdmRaN/ErK3YmUMOVImfiV2IxJf8GA5oiX6mZiPtNOC0qp2OjZ93otenjj3UiSNxu/yv2WOJiOzEytc/ZiyTWSX/q94uBmfyBSfrthCRnYl2TO44RH0M8XOjJX9s94iqj1H2BhG9eTstrTcaf3ApPhHR22OJYBVgHqgCfq7VIpbIqEtiiIjsSL7o1TRNr1m1WyYIL5aJds56MCKCQFYMBhktRVKZZY4R0avZbewhB6vE+IOfOyKit8cywSq1ZpW6jbu8FEbchx0GEdmZ2s6JTCuzGn68UCYiIto/O40/xMQ4+10iqiZ2iqNYIlhl1FHIGQZy0WH1/kREdiTXyVBrUonlgPJ9XC5XxY6ViN4OK2Z9EVUrdfyhLvtTS46wXiQR2Z3drjEqHqxSG31R7FDONlB3xTLb2p2IyC5EOyaCU6LAutkF8k7fE5H9mS0F5OedaP8Zfa7kiXF5rKGOSYiI7Mpu1xMVD1YJZls2y/UluK0zEVUDuf3SNE2vybfbMj+13g7bQSJzZrsLV3qwuZfaWnu9LxG9PKNd/cx2Hdc0rWwCif0uEdmVHduviger9vKmiToudnyDiYh2Iurx7XXTCF4wE+2dGJQ6nU59Ka0Vl9qZBarVABs/90Svb6+fI9aKJCKqrIoGq/bS+HNgRkTVSmwesdd6VGwPicyZ7Q4oJrvE50zUhLMKo90/jYJpcuCNiF7NywaqiIiocnjFQ0RERFXNLJBlFXsdGHPwTERERAdFxZcBEhEREb0uswCU1QNVqr2+DiIiIqJqxswqIiIiogpjMIqIiIjoZwxWERERUdWzSzDI6plfRERERG8Dg1VERERUleyyKcFuSxWtfvxERERE+401q4iIiKhqqbvsVTpzySzwtFtAigErIiIiOkiYWUVERERkAVYIphERERFZATOriIiIqOqYLQG0YkBIPkZxbGZLA81+TkRERFRNmFlFREREVcMsEGX14I7D4bBkII2IiIioEphZRURERLaxU/FxuwaqZAxYERERETGzioiIiA4IqwaC7BRMIyIiInobmFlFREREVGHyroXyv0REREQHETOriIiIiIiIiIjIMphZRURERLZlloHEzCQiIiIi+2KwioiIiKqCUe2nUqkEp9MJl8sFANA0zVKBLIfDoX8J6vGJ71nbioiIiA4KBquIiIjINtSAzV4yqxwOh2WDVcCL43M6X1Rm2O31iPsRERERVTNe8RAREVFVY0YSERERkb0wWEVERERUQQymEREREZVjsIqIiIjIIkqlkulSQAa1iIiI6KBgzSoiIiKqOiKws9caV5XmcDh2PDYGqoiIiOggYWYVERERkUUYBawYqCIiIqKDhplVREREZBuvkxkllthZLbtKDkaJYxO3qd8TERERHQTMrCIiIqKqZodAz27LAImIiIgOEgariIiIqGrZIVAlY8CKiIiIiMEqIiIiOgBE5pIVg0HqMkArHiMRERHR28SaVUREREQVslugym6ZYURERET7gZlVRERERBXGoBQRERHRz5hZRURERFRBRoEqZlgRERHRQcbMKiIiIjowrFoPSgSjWLOKiIiIiJlVREREVEXkoI96m1DJYNCrPrd4HDOsiIiI6CBgZhURERFVrVKpBIfDAafzxSWPpmkVPqLtGIAiIiIiKsdgFREREdmGw+HYc3BHzkZyuVz6bVZcZidel/oFWPeYiYiIiN4UBquIiIioKolgj50ylxiYIiIiImKwioiIiKqYHQJVL5MtRkRERHQQMFhFREREZBFGWVUMZBEREdFBw90AiYiIqOqJ5XWVXmK3U+Bpp2NjwIqIiIgOEmZWEREREVWQWkydiIiI6KBjZhURERFVHbPi6lbIrjIjZ39Z9RiJiIiI3gZmVhEREVHV4zI6IiIiIvtgZhURERHZzsssm7NDoGq312OH10BERES0X5hZRURERAeCFZfXyfWqAGseIxEREdHbxmAVERERkQUwSEVERET0AoNVRERERBVmtgyQASwiIiI6iFizioiIiGyrGmo5mb0GBqqIiIjooGJmFRERER0YVg8AWf34iIiIiN4GZlYRERGRbanBnZ121RO3VTIgtNNz73R84rZqyCQjIiIi2g2DVURERFS1SqUSnE4nXC4XHA4HNE2r9CFt43A44HQ64XA4ygJVauCNgSoiIiI6KLgMkIiIiKqSCPKIYBUAaJpmuaV2TqdTD1YJDoej7PtSqWS54yYiIiJ6UxisIiIiIiIiIiIiy2CwioiIiIiIiIiILIPBKiIiIqpKYimduqTOqnZb6meH10BERES0H1hgnYiIiA6MStd+UgNOajDN7PgYqCIiIqKDhJlVREREdCDYtUA5A1VERER00DBYRURERFRhDodjx6wvBqyIiIjoIGGwioiIiA4Mq2dXVXqZIhEREZEVsGYVERER2YYayJFrPcn/itvljCSrBoGMsqbMXicRERHRQcDMKiIiIjowrBqwAphVRURERCQws4qIiIgOFCsGhHbLnGKmFRERER0kzKwiIiKiqmb1wI4dlioSERERvU0MVhEREVHVY8CKiIiIyD4YrCIiIqIDw+qBIPX4rH68RERERG8Ca1YRERGRbZkFc+wU5DHL+rLTayAiIiLaTwxWERERUVVzOp1wuVwAAE3TLBkEMgpYidvE8Vp9KSMRERHRfmGwioiIiGxDDuDIQRw1kCN+XiqV4HQ64XQ69dutTA1McRdAIiIiOohYs4qIiIiIiIiIiCyDwSoiIiI6MOSMLKux6nERERERvW0MVhEREVFVUpcHWjUYZLSEcaefExEREVU71qwiIiIiqjC1RhUDVkRERHSQMbOKiIiIDgyrZVftllVFREREdBAxs4qIiIgOBKsGgox2ODS7DxEREdFBwMwqIiIiqlp2rFtl1WMkIiIieluYWUVERERVR81EskMwyMo7FRIRERG9TcysIiIiIluqlqVxIvvL4XBsC1YxeEVEREQHETOriIiIyLbUXfTU2+3CKPNLfk12f31EREREL4OZVURERHRgWDVTSSwBZGYVEREREYNVRERERBW1W5YUA1ZERER00DBYRURERFRhXNZHRERE9DPWrKIDbbfZ6mqphUJEZGa39s2u7Z9Vs5F2Oy6rHrcZs/Njr/0rEZFd7LW94/iBaH8ws4oI5Z2JpmkoFAqGdUM0TXvbh0ZEVHGapkHTNNsFUgSn0wmXywUAlnwdYidA8X+5dtVegz+VpGkaisWiYb+pFom38usgItqNWTtm936SyIqYWUUHnjooEBfd8uBBvp/cCXGGhIjsxuhCWm4D1SCJ+LmmaXrAxwpeJojjdDrhdL6Yn7PqYELtc8RtQHk/JV5Hpck7For3VD5/1PvJQTin08n+k4hsS7R38vdiQtvlchnu5Mo2j+jlMVhFB546GHA4HHC7X3w05EGNw+GA0+ksu9gmIrIjObggvoyyeaqNFYNUKjsco0r0h+rgTdymBtuq9fwiouq3U/sljyU4uU30+jjapgPJLENK0zQ4HA64XC49y0pkWsn341IGIrIzo2Vb4uJaBLLM2jm2f2+OnK1kB3IASg5CyYEq+bwyyh4jIrILeYIHKO8PjZY9i2wrtn1Er4aZVUT/R2ROAdA7F/G93BGpHRURkd2IgLwIJMj1kuRMGPG9CEQw6PBmmC3/2+1+lSafK+p5pN5utWMnInod6qSO6CfV/pRtH9GrY7CK6P/I2VVimZ+81M/ootsus99ERDKRQWoWUBBZpXJQy+FwoFgsolgsWqp21W6sPlCQBzaAeX0Tq74OkYWsHrd8u9GAjf0nEdmZ6CeBn/tUuZ3babxg1facyGoYrCKSyHWpREdSLBbLMgnYwRBRtTAL0qszxILZ7XZixyCJUeFyKzBa7qcufTGqZ0VEZHdq+7ZbzcdqrwlJ9CYwWEUHVi6XQz6f37beXJXP51EsFvWtz1kclojsTrRnHo8HLpdLr2Hl8XgAGC8HlG+3KysEfIzeP6OdZ/fyOCsQ2XaFQkGf3JF3xVKX0xMRVQPRprlcLrhcLrjdbtP6ffJjrNqWE1kRg1V0IGWzWdy4cQN37txBMplEKpXaNigDtm/JbfeBGhGRy+VCPB5Hc3MzLly4gP7+/m01rIDyGn12nxE22qXOauy4vLxUKmF9fR23bt3Cw4cPsba2ho2NDf1nRETVqlQqwev1ora2Fp2dnTh37hx6enpsU3OQyA4YrKIDKZvN4qeffsJ///d/Y2VlBclkclvdFrMaVdwJi4jszOPxoAYwz5EAACAASURBVKGhAUeOHEFdXR2OHTtWtgRabuN2ywKqhFdtf60csFKDglamHmMqlcL169fxl7/8BUtLS0gmk/r95CwrIiK7U/s/v9+PRCKBs2fPorm5Gb29vS/1eCLaGYNVdCCVSiVsbGxgY2MDH3zwAU6fPr2tyK24n3rbTgVjiYisbmNjAzdu3MDCwgIymYx++26ZVHbPrhKsHhCy+vEJ4nwpFotYWlpCJpPBZ599hv7+fsNMZSKiaiD3hYuLi7h+/TqeP3++rT+VdwmUb5M3byKinTFYRQeSpmnY2NhAKpXChQsX8J//+Z97rkUlX4SzwyEiu5mamsLMzAyePHmiX1zvtlOR3O7ZNWhl5axYo8kPK7+/8jmgaRpWV1eRyWTwwQcf4F//9V/191rdHUtm5ddHRGREzj52Op24e/cuHj16hImJCWxtbW27j/gegJ5lykA+0d4xWEUHligoLM9yyB2IWMKgBrGMMrCIiOxEtH8iUxTYnkEqbpO/jJZH0/6yclBNUJfGqz9Ta58ZPZaIyI72utufaAfl3XbZdxK9HKaF0IGlaRoKhQIA445H1Nqw065MRER7YRSskpVKJT2YD5Rn/ti9BpGVA0E7Bark2XorvQa1xpn4Mss8ttKxExG9it3GAXJbKNfu447iRC+HmVVECvmiW13CIF9ks7MhIrsSwQSj5X7i53L7J7d9Oy3tooNjt11yudSFiKqZWhZEndARt7lcLgAcNxC9CgariEzIHY/VZrLtzmxZyOvevps3daGwl3o/b+M4XpXdj59enlGQQc2QkZdHi3/tXKvPKuftXtstK/c5u03c7HTsVvk7HFR7Pa9263/Nft9u/fOr9us8b8hK5CxXtT+tlj6TyAoYrCL6P3tJ6aX9Y7Yryk67pZjN1Ku1xtTHv60Z/p2eh7vAkJUYLd0S/zc6j+1eq8/pdG7bkclKdspQEqyUqWR0HEa1Hckedts04VV/zmx0qlZqnymf66Kv4TlP9PoYrCICA1WVYFZ7ZbfbzX6PGqxSdy4TP5O96t/V7Dh2+7l6rJWy0/Gr75nRz8n+RNFXANsCqFYPVL1KZoZRppjV7Bao2sv93oaXDVRZ9f2mcmobb9QH7+XxO91u1ieb9Ts7HR9RJahtnXrtaZSxTESvjsEqIqoIdXcxeSZK3kFFzfowGgjtloqtXgjvx8WuWQaX+n/1mKxyoW0U5BN2G4wS0ZvFAQ69bUZ9p7hd/lfuN9RdQ9XHyo+Tf2bWH5r9PhanJiI6mBisIqKKMMuEki+CRbBqp+1+1aCW0SyXfF+zZU4vyyiDSw1WiWDWbst7KsHoeAEGpcg+Xicz0qrBICsfG1Uvo75TnUSSfyaokzLqz3eriyeTn1cUpBbErqXyxBP7KiKi6sdgFRFVlFkgRwR5dls6pxbCF/++6Ywmo9+vpoeL4xGzwvLPKs2oTpH4v2C2nIrIbqx83u4lmL2XZVJEL8uslqLZ+ajergaz9tp/qM9rloksbne5XPpjNE1j7UciogOCwSoiqqidLoodDoc+o2pEDkqpta6MBoDqzO/rDGCN6hYYLX8Qxy9+5nQ6LTEzbPTemGW7qcdv9juIrMDo3LYDo+XLRt8T7Qe5nTcLLL3KkvDdspdFvyiOQZ0sMcq4Ev1OsVjcVh6AiIiqF4NVRGQZ6vIDs1lW9f9G2U1qvQt1Od5+LQPcaZmDfExq/SyrXGjv9jrEMkxmdZDdGS1TIjrI1D5WrRklZysb3W6U1SzfT5B/L1A+aWP0eZSX/VmlryQiorePwSoieuuMgk/CTjWoxO3yY3cLPsm1r+QL5dcljkcsT5BvNwpWGdX8qPRFuHgNokaI+vcwK7pupWAbUTUwWj7FoBq9SXutGSUXOFdrSRk9Fti+PN9sEsqov5QfY5YhTUREBwODVURUUepFqXyRK9emUO+3lwwpcX9xgb2ftS7EscrPI243GgTIx2qV2eKdjkO8b2YDGnEfIruxahCIdamo0swybNXaVGbk/lVewi/3l+oSerPfY1TzUe3/iYioujFYRUQVVSwWUSgUUCgUUCwWAZRn/IjglciQcrvdcLlcZf8aBaDU4JZaOwp4/ZpVZnWqzI5DfpzViWPM5/MoFAr66xTvux1eA5EZKweFdqohRPQmGS2jlwub5/N55PP5bRMWRssH5SytYDAIj8eDfD6v9/MOhwMejwculwvFYhHFYlH/3T6fD263W+9/CoUCACAQCMDj8bzV94SIiCqHwSoiqhhN07C+vo6FhQXcuHED9+7dK1sCo2ZSuVwuBAIBRCIRdHR0oLOzEx0dHWhqajLNZhL2e6BntmTOisv9zKgF6uXaXgCQzWYxPDyMp0+fIpvNwu1248SJE+jr67PsayLaiVVrVpnV5iN6E9TJIKC8ppu8ZD6Xy2F5eRnT09P46aefMDo6arpETz53XS4XwuEw2tracOnSJbS2tuLRo0eYnp5GPp9HKBTCqVOn0NjYiLm5OUxPT2N4eBjZbBYfffQRDh06hIWFBTx79gzDw8PI5XL48MMP0d/f//beKCIiqigGq4ioYjRNw+bmJp49e4Yvv/wSf/jDH+D1euHxeLZdBLvdbni9XgSDQcTjcZw6dQqnT5+G0+lEXV0dXC6XaT0N4U0GrDRN02eHNU2Dx+OB2+3e07LASlAzzIxqe2WzWTx58gTXrl1DKpWCz+dDbW0tjhw5UqnDJjL1pgPU+8XouIyC3ERvgpiY2GlXPTkYVSgUsLy8jAcPHuAPf/gDrly5UtZPy1/i9wKA3+9HIpHAqVOn0NPTg1gshocPH+LWrVtIp9NoaGhAY2Mj4vE45ufnce/ePXz11VfY3NxEZ2cnurq6sLy8jJGREXzzzTfY3NxEV1cXg1VERAcIg1VEVFFyJlUgEMCFCxdw8uRJ+P1+eL1ePfgDvFgymEwmkUwmMTc3h6+//hperxexWAz19fWIx+MAthcr3q+lfzL59xQKBSwsLGB2dhYjIyNYXl7GpUuX8M4772x7PqMZ7UqQZ9Hl4rlqQXvx5XQ64fF49q3mFxGZUzdtsGrgjexHrg1ZKpXKluWpNaHk/kosAY/H43j//fdx5MiRbfUjRf8gNh+pqalBa2sr2tvby3aXdblcZcXW5d8vbnc6nQgGg0gkEhgYGEA2m0VdXV1l3jQiIqoIBquI6K0zyxzw+Xw4e/Ysfve736GmpgbBYLCsZkUmk8Ho6CgePXqEb775BsPDw+jo6EBvb6+e9SOoQZe9FmV/GfIF/eLiIoaHh3H58mWMjY0hkUjgzJkzhq9d3tWwEuTnFsEoMUiQqbXDRH0wK2SGEVUrNVBl9H+Anz96daKtlyeD5OARsH0XP9H+x2IxfPjhh/j1r39ddg6K+4hsLOBFdlUgEEA4HEYymdwWrJIfK7KjjYJVx44dQ7FYZLCKiOiAYbCKiCpCDtqIjB6Hw4FQKITa2lpEIhEEg0E9mFIqlVAoFPSfT05OYnZ2FqlUClNTU2hqatJ/L4Bts71qLY79OH55lyRB3SVQvh3YPiCoNHmWHSivFeZ0Ostm4OUi9VY5fqK9sMP5aodjpOqh7par9ktGmVbiMYFAADU1Nfpyd/kx8v3cbjfcbndZUXS5D5EzeOUML3FtEI1G4Xa7EY1GoWmanj1NREQHA4NVRFQRcrBKDuAEAgHEYjGEQiEEAoFtF9CNjY1IJBK4fv06bt++jUwmg+fPn2Nzc1O/jwiqaJqm7zJYKBT03QTlL6PleCIwJh4r73QkZn5FgE3skLS1tYVMJqPvdpROp5FMJuHz+eD1evXnEL9Xru0hgl5iqZ1a60rTNGSzWeTzeX33JHmHJHFs6uPloJkYDMiPk59Xfu0A9GNWj0PeRlweaMjvlZzJJt5no8wtDs6tZbdaSVb5e+01w8jsflapCWWV49hv1fq6qon4G+20HF3d4ES+n8/nQyQSQSAQgNfr1W83W+aubpyiPo/oO+T7iesBv9+PSCSi7xIofofYPVBkBouMLrm/Fn216DfF7eJY1X5enaiR+1OZ6OdEf68+VvR57PeIiF4Pg1VEVBFyxlOxWDS8mJUvKuVMKRE08ng88Pv9CAaD+uyuCCDNzs5iZmYGT58+xfT0NNLpNHK5HMLhMOLxOI4dO4a+vj5Eo1GEw2H99xaLRWQyGQwPD2N0dBQLCwtYWVnRL1ybmprQ0tKCw4cPo6WlBUtLS3j27Bn+3//7f/j+++8xOTmJ1dVV/PnPf8bs7Cw++ugjnDt3DqVSCZlMBg8fPsTo6ChWVlawtraGQqGAUqmEaDSKuro6HD9+HIcPH9aDdaJO1+XLl3Hv3j2cOnUKHR0dePToEcbHx/XZ6HA4rD++r68P4XAYwWAQwIsA2dLSEubm5vDkyRNMTExga2sLmqahsbERtbW1+nEEg0HU1NSgr68PNTU1ZTWt1MBVsVjE+vo6VlZWMDIygomJCaytrSGVSsHj8SAUCqG3txfd3d1ob29HIpF4S2cXvSp1F067MtrVTM0gtAI5Q9OoZpz6d7DqElyjAEQ1nEfV6mX/JnJm7U6PN8rEUoNe8u3iMepnUwSeFhcXMTMzg5GREeRyOVy6dAm9vb1YXV3F7Ows7t+/j8XFRbS0tMDv92NiYgKLi4twOBzw+/1oaGhAa2sr+vv70d7ergeRAGBzcxOPHz/G6OgoZmdnsby8jGKxqNflam5uxsDAADo7OxEMBvWgXKFQ0HcxfvToESYnJ7G2toatrS34fD7EYjH09PSgq6sL7e3tqK2tNexDiYhodwxWEVFF7DVYpS49E9lBpVIJbrdbr4chlhlomoatrS1MTk7izp07uH37NoaGhrCxsYGtrS3EYjE0NzdjfX0dbrcbHR0dCAQC+gXs1tYWlpaWcO/ePVy9ehVPnz7F7OwsnE4n/H4/ent7cfToUb2w+9LSEiYmJjA4OIjr168jk8mgUCjg+++/x7Nnz9DS0oLTp08jk8lgcXERt27dwnfffYfnz59jYWEB2WwWxWIR9fX1aG9vRzabRSQSQXNzM/x+PzRNw/r6Or755hv84Q9/wG9/+1ucP38e//jHP3Dz5k19Zjkej6O1tbXs8YFAAKVSCblcTr+wv3btGu7cuYNUKoVisYhDhw6hpaUFmUwGxWIRiUQCnZ2diMVierBK/puJL03TkMvlsLCwgNHRUVy7dg23bt3C3NwcVlZW4PP5EI/Hcf78eZw/fx4ejwfxeNxwppkqQw3cyDVqdrqfenulGQWe1GCV2fLcSjB6fvn4xH1ExojZ463y/huxykYStN3L/D1Ee6+2C+qycLkNkZ9DrYclkzOR1OdxOp0oFotYWFjA/fv3cfnyZaTTabS3t6OzsxMrKyt4/Pgx/vrXv+Lx48c4efIkotEoBgcHMTk5CafTiVAohPb2dgwMDOj9tZiYKhaLWF1dxd27d3H16lU8fvwYMzMzevZyIpHQd70NhUJIJBL6NUY2m8X8/DwePXqE7777Drdv38bc3BxSqRRCoRCamppw7tw5nDt3Ts8KE+/JbjsWExFROQariKhiRKBKZAepOwQBP1/0FotF5HI5PTg0NzenB5+6uroQiUT0nz979gw//PADbt++jVgshs8//1zfyS6VSiGdTmNsbAwzMzP49a9/jWg0qtfHunv3Lu7evYuRkRGkUikMDAzg/fffRz6f15ccDg4Owu/3I5PJIJFIoL+/H6urqwgEAnj8+DEWFxfxy1/+EpcuXcLZs2ehaRoePnyIu3fv4tGjR8hkMhgYGMBHH30EAMjlcpiZmcHa2hqGh4ehaRree+89RCIRPaPL4XAgl8vhyZMn8Hq96OzsxLFjx5DL5bC5uYmnT59iZWUFjx49gsfjwcWLF1FXV4d0Oo2FhQVcv34d165dQyAQwLvvvotwOAyv14u1tTWsrKxgZmYG6+vr8Pv9+gV1sVgsyzgTgTGxTHJtbQ3Xrl3D9evX4XK5cPjwYZw5cwZ+vx/ZbBaZTAbJZBJXrlzRl020traioaHh7Z9sVEZe/inXhVOXhQLlu9FZLUPALIBmlMkhMpUqHawSxyMTQXj5+Iw2M1D/tYqd6h3Jy7zkzBayJ03TsLm5ibW1NeRyOfh8Pv12dTmcWArn8XjKlujtx2dQ0zSk02ksLy9jdHQUra2tOHHiBN5//304nU5kMhlMTk5iZGQEgUAA6+vrOHv2LJqamjA9PY0HDx7g5s2bmJ6extGjR/HBBx/A5XLpj1tdXcWdO3egaRreffddhEIhZLNZTE9P46uvvsLQ0JC+KUwgEIDb7UYul0M6ncbi4iL+8Y9/6MfZ2NiIWCxmuc8tEZHVMVhFRBUhZlDFcjJx8ZrNZrGxsaHXgxD3FReBY2NjGB4exuLiIpxOJ2pra9HR0YFIJIJ8Po/Z2Vk8ePAAg4ODePjwIb744gt89NFHqKurQygUwvj4OB4/fozLly/j8ePHaGtrw/Hjx+F0OqFpGoaGhvD1118jl8vB7/djYGAA586dw+bmJubn5/GXv/wF9+/fh9/vBwB8+umnOHbsGDRN02dtvV4vPv/8c/z+978HACSTSTx9+hQ//vgjVldX4XA4MDAwgPfeew8ejwdbW1v45ptv8MMPP2BsbAwLCwtobW3VZ4TF8qBcLodnz54hEAjgt7/9LT7++GPkcjksLy/jyy+/xLVr1zA2NoatrS309PTg2LFjSKVSmJ2dxa1bt3Dt2jV8/vnnuHDhAjo7OxGJRHD9+nXcuHEDS0tLmJ2dRXd3tz6YlAfKal0RkYF269Yt/P3vf8f777+PkydPor+/H21tbVhZWcHU1BT++te/YnBwUF/W6Pf7uRzQAtRAjvjbisComikhmG0sUElGASujLA71q9Lk5VEiACzaITHYFwEAOTOl0gNes8wwdRmXuF2elJCDoZV+HfRq8vm8PsERDAbLglUiICUmWQKBAILBIEKhUNkywv0gluyvra3B4/EgFovh448/xrlz5+BwOPD8+XP86U9/wt27d/XriubmZtTU1GBiYgJ3797F/fv3kUwm8dlnn+GXv/wlAoEAlpeX8de//hVDQ0MYHx+H0+nE4cOHoWkaNjY2MDU1hStXrmBoaAi/+tWvcPbsWfT29iIej2N5eRnDw8P4n//5HwwPD6OmpgahUAjBYFDfrdgOmZFERFbBYBURVYRcgFtkPW1ubuLy5cuYmZmB1+st22VIDOZWVlaQSqUQjUbx6aef4vjx42hoaEAgEEA+n8fY2Bhu3boFr9eL8+fP48SJEzh8+DD8fr/+XJFIRM8kWlpaws2bN9Hf349oNIqpqSlMTEzgwoULOHfuHI4dO4a2tjbk83nU1dVhdXVVX3YoliPKM8giA0xki4mfNzU14cSJE3rR2OPHj6O1tRVutxvZbBaHDx9GMpnE6Ogo1tbWUCwW9WUHYgDg8XjQ09OD8+fPo7u7G7W1tSiVSgiFQnpgam5uDslkUi/IPjU1hUePHkHTNHR2dmJgYADvvPMOampq4PV6ceHCBUSjUSSTST0AqNaaEX8nUXQ9k8lgbGwM9+/fRy6XQ2dnJ06fPo1f/OIXqK+v1+uABYNBfWnF5uYmBgcH0dHRgf7+/rd/wlEZOWAjCgKLv7tZrST5/pUOVskZHEaBKXn5kcyoWHQlqO+t+BvIS6vE/YyWYVb6+OVjFAE1OetO3Ee8Hjlr1uj8IvtYW1vD5cuX8eTJk7LC5XIg2OF4sbNvR0cHent7cerUKQQCgX1rN+TnCofDuHDhAi5evIiTJ0+ira1Nf/5PPvkE8Xgc9+/fx5MnT/SJoGQyiUwmA7/fD7/fj7a2NrS3t8PlciEcDuOjjz5Cb28v8vk8YrEY4vG43u89efIEPp8PR48exZkzZ/DOO+8gFovB7/cjFArB6XRiYWEB0WhUX/rf1taGzs7OfXntREQHCYNVRFQxcqF0h8OBdDqNmzdvYnBwcNuSEnGRm8/nEQgE8MUXX+DMmTPo6upCPB6Hw+HQa1UNDg6ir68Phw8fLitwWiqVUFdXB6/Xi7a2NoyMjGBxcRGDg4OIRCJobW3FzMwMZmZm0NLSgk8++QR1dXWoqakB8KKelbh4nZmZQSaT0bOexAC+VCrpy+WA8mBVsVhEJBLRi6nX1NTA4XDoNTJaW1vx9OlTrK+v68EqefdAj8eDzs5OvPPOO3pdKZfLhWg0ir6+Pqyvr+tBp1wuh3w+rxenLZVK6OzsxJEjRzAwMKC/t3V1dUgkErh58ybu3LmzbemR+DuIQJ/D4UA2m8XExATu37+Pra0tNDY2orOzE729vfr9w+EwAKCzsxOLi4t4/Pgx5ubmcPHiRc4sW4DIdslkMlhfX9dvE0EHubaYnHklgrKVZHY88gBWDpJsbGxgc3NTX7JktLvX22RUMF18vtLpNNLpNDY2NpBMJvX7qHXFKhkwlM8Th8OhB8eNMtzkv4NYTmxWi4vsYXNzE3fu3MH9+/fLblcDkNFoFCdOnEAul0N3d7eeebwf5M95MBjE6dOn8cknn6C5uRnxeBwAEIvF9Myuhw8f6sXXRSmAQqGgB6vEBIuoTXn27FkcOXJEz4SOxWLIZDKYmJjA2NgYXC6XHoBqa2vTjykcDiORSKCvrw+pVAp37tzB6uoqPvjgA/0+4r0iIqLdMVhFRBUh15ARM+6BQADvvfceTp06Vbbts1zQe2ZmBouLi1hYWMCXX36JYDCIjo4OuN1u5PN5pNNprK6uYnh4GHNzcxgZGUEikSiryZPL5fDo0SNMT0+jVCohHo9jdXUVfr8f+XwePp8PNTU1qK2thd/vLxsgtrS0IBAI6LOura2tZdtfO51OfekeAH1ZYFNTE3w+HzY2NrC6uoqFhQXkcjmkUimsrq7quxItLCzA5XKVZYfIAbGamho0NTUhEomUvT9utxs+n09/rMhEE4PeYDCIeDyOUChUtkxHLNeoqalBQ0MDfD6fvixTLOERSzXlGlabm5tYXFzE7Ows1tbW8Mc//hG3b98ue6/y+Tymp6cxOzuL9fV1hEIh5HK5suenyllbW8Of//xnPHnyRD+PxN9enFtyxozV/25qnSTxlc1m8ezZM2xtbeH8+fNobm5GKBSq9OECgB64aWhoQCKRwI0bNzA+Po7h4WHU19cD+HkpHWCdwa6cZbe+vo4HDx4YZuKpfw+5vSd7qqurw69+9SucOnWqbKJGDVZ5vV7U1dWhqakJzc3NAMoDr69D/qy73W7U1taisbFR3wEXeHFuRqNR1NbWIhgM6v2WqDXZ1dWFsbExjI+P449//CMePHiARCKB+vp61NTUIBqNIhqNIhKJIBgMIplM6jWypqamsLW1hc3NTXz77bdlx5bJZDA7O4uFhQUkk0m0trZa5nNLRGQ3DFYRUUUYLdXx+Xw4d+4cfv/738Pr9epLDETgI5VK4eHDhxgaGsLVq1cxNDSEkydP6sVPC4WCXpsimUxiamoKDx48KMsWEhfV+XweLpdLL2osglwiWBWJRBCLxcoGvU6nE4lEAk1NTfrrKBQK+iytCFaJZY3Az0voampq4HQ6kUwmMT8/rwfcxL9Pnz7F3NwcfD4fWlpatgXzxFLDaDSKhoYGhEKhsuwEkZkhAlvAi4FwKpXC+vo6mpubDQfpIrMrEomgtrYWPp+vbImVGqwSMpkMVldXsby8jLm5OSwtLeHGjRt6sEN+nzVN099TdYkTVUapVEIqlcLVq1dx8+ZN/bxRM6vkwKX880qSAx7q8jPx2ZOzf8TnKJFI4L333kNLS0tFg1XyYF0EBhsaGtDU1ITNzU3cv38f9+7d048bMM7GqnTdLdG2AS+ybVpbW/WfqbXN5O/5ube3WCyGX//61/jd736nTyrJ/Y4gJkxKpRc79y4uLu5bzTg16zcWi6Gurq7sucWSPpFhBbzot7LZLBoaGlAsFhEOh7G6uoorV67g7t27OHToEHp6etDd3Y2uri50d3cjEonA4/HomajJZBILCwuYn5/H9PS0vjxe7nfz+TwcDgei0ahefJ2IiF4eW08iqgi5gLBY5uZwOPSUfFGMWyiVSnqdpZqaGkxOTmJychJra2uYmZlBW1ubvtNUMBjULzobGxtRV1e3bSt18Xx1dXWIxWIAXmSamA2ozGrdiFoz8mBfLHURstks7t27h6GhIUxNTWF+fh6xWAzRaFRfRtDW1ob5+Xk8f/5cv9CWs7PUGWzxnsgXyCLzSc64kmtoyQN49TWqzyF+p/h98tIqERQIh8Po6upCR0cHjh07hu7u7m2DEPEYt9uNSCSiz8ZzwFp5NTU1+Kd/+ie8++6724IKRgHFSgdHBHVgKAfTxOswKugdDAbR39+vb8hQaaKt8Xq9iMfjOHLkCP7lX/4FFy9e3Pa65NdrJU6nU9/gYW1tTb9d/YzzM1+d1L+rvFmKHFSWM3nfZMBSresmjkHu+0RwKxaL4Xe/+x1OnjyJxcVFrK+vQ9M0LCwsYGZmBj/++CM6OzvR19eHc+fOwefzweFwIBwOo6+vD8eOHcOxY8f0IK1aqw14EUirr69HT0/PG3m9RETVjsEqIqoI+SJSzL46HA49A0cU6JYzPRwOBxoaGlBfX4+///3ver2Uubk51NbWIh6Pw+Px6IPSDz/8EAMDA+jp6SkLVgFALpdDoVCA2+1GoVDA+Pg4VlZW9OOTLzjF8TocDj2DSvw+seRPXICLejrygH9rawtDQ0P46quvsLS0hGw2i1OnTqGtrU0vSC4yrn744Qc8f/68rAaWPGCVB+RyhoWcYWJ0PHLtK3lJjvp4EZwSj5WfTx5Ae71evf5WLBbDF198gffff7/s/RPPLTKyRCYGB63WEIlE8Ktf/Qr//u//Xna7XBPK7XbrQWX1fKgko2VxckAnl8tB0zR9owaj+1WSfDxiGW4kEsGhQ4f0oLdc60l+nNwmVOrY5eMXS6lu3Lih38fs2NS2h+xN7Y/kSRORDSy3F29qGah4XvEc6mdG7t/cbjfCFrACWgAAGKlJREFU4TDi8TgaGxtx7tw5jI6OYmxsDBMTE/qOwSsrK2hoaMDx48fR2NiInp6esmyt1tZW/PM//zNOnz5ddizimkZ8AS+yxtVAGhER7Y7BKiKqGHUAqc66qrtLif+7XC4EAgG9IGo2m9UvkEOhEGKxGLLZLObm5tDV1VX2HMCL4NGdO3cwOjqKlpYWJBIJFItF1NbWwuPx6EsJ19bW9AwvsaRtcnIS09PTWFhYQCaTwfnz5/UBpjh++eI9n89jY2MDk5OTePr0KU6ePKkH0Nrb2/XlfJOTk1hdXQXwooi8CPKIC195SZP8vskX6SIDSjwegF7MPZfLYW5uDplMZtt7LI5xbW0N2WzWMItMDDyEUCiEmpoaLC4uYn5+Hul0uuxv5HC8KHg/NjaGmZkZAC9qmHR3d6O1tdVw2Qi9XSIgqS5LE8EE+W9klllYSXLQQz0usexGXo5rNXK2ovh8qdkgctBcDVpXinh+o+WIu2XfyY8j+xL9k/icqVm36n3Fv3L/9brE7ykUClheXsb8/Dyi0ahet6pYLOo1IUX/FAwG4fP5MDMzg+npaXg8Hrjdbj0D+8iRI1hcXMTTp08xOjqK+/fvY2pqCisrK+jo6EAoFEIkEsHi4iLm5uaQTqfL+mOxvHp8fBzz8/MoFosIhULo6+vTywdYsS0iIrIqBquIqCLU2Xn1y6wgrxhE+3w+vQ6FWOYmCpDX19dja2sLz5490+tQyZlRyWQSt27dwnfffYezZ8/i1KlT+sWq3+9HsVjE2toa5ufn0dDQAK/XC+BFvYunT5/ip59+wtjYGDY3N9HQ0IBD/7+9O/1pKzv/AP71cu3rFRvjDWMDYUkyEAibhjTttDPVVFVb9V3/zUp9UVWqOlLVZlo1gRmGgWFYsrEEcBZsMDb29fJ7kd85c319jWEgExO+HylKYgzeDufe+5znPM/goOlrFIGg4+NjeXL829/+Fp9//rl8PIvFgkKhgJcvX9ZlQOkDVPqTfLPCxfraVmJbpXg/AoEAIpEIdnd3sbu7KzsNiov4k5MTWeNLBKv0n4n4rIwX0yIItrOzg4ODA2QyGRQKBVk3q1qt4vj4GGtra/jqq6+gKAoCgQA8Hg/i8XhbZOdcZ2YXTPrgiVlGxFl+xk/BeLFrzKIQ2ROtvr8dLhr123KN77fF8kP3PHGbMYD4PhgvzvW3iX+f9tza4X2nH08soGiaBkVR6rbyi0xMQT9+jRnHF30OgqZpSKfT2N7eRjKZlNv1isUiXr16hf39fZycnMit6KqqYnNzE+l0Gh6PB11dXRgeHkY8HofF8rZ+5dbWFubm5rC2tobd3V1ks1lUq1V0dHQgEAjg2bNnKBQKdcc9UeMvk8lgaWkJa2trsNlsiMVisibd+w40ExFdNQxWEdF7YQy26Fdm9dvQxH319NsNREceTdPgcDgwODiIN2/eyCLsopNPR0cHVFXF1tYWHj9+jPn5eWxtbeHjjz9GMplEIBCApmky0+rJkyf461//iomJCdy8eRPFYhEHBwf45ptvsLi4CFVVkUwmZe0b8Xw0TUOxWJTbDPWvCQDS6TQ2NjZkba3Dw0Ps7+/j4cOH+M9//oOtra264JOxHo9xC4V+q4WonyW2PjkcDiSTSWQyGWxvb2N9fR1LS0uIxWIyMCdWj58+fSq3Tul/vj74JT4Pp9OJ3t5enJycYHV1FTs7O5ibm4PL5UIqlUIkEsGbN2+wvb2NBw8eYHFxEZOTkxgeHobX62VWVRtoti3utEykdtu+dZYLv3YKTOmJ56PveqrPohK/58bf93Z6PWY1tYD2eG707lQqFeTzebm44XA4TBdSRLDVarXC7XbXZeZeVsCqVqvh8PAQ8/PzcDgcmJ2dxdDQEKrVKt68eYOHDx9iYWEB1WoVg4ODiEajcDqdyOfz2NzcRCaTgdvthqZpMkify+WwtraGjY0NFItFeL1euFwu+P1+3LhxAycnJ1hcXMTm5iYePXoEu90uzwUymQw2Njbw5ZdfYmtrCxMTE+jq6pLZ2UREdD4MVhHRT86YGWCso3TaRah+ZbZWq6FQKODw8BClUgmKouDGjRvQNA2Li4tYXl5Gd3c3Ojo6EI/H4fP5ZLBpbW0N2WwWqqqiu7sbbrcbJycnSCaTSKVSssOdKIB8fHyMdDqN5eVlPH78GOPj4+jv74ff76+7iBcFzY+OjnBwcCBXXFVVhaqqeP36NVZXV+HxeOByubC/v4/nz59jaWkJS0tLKJVK6OjokEEv4zYsY8BKBKhEkMFms8n/OxwO9PT0oFgs4l//+hf29/extraGrq4u9Pb2wu/3Y2FhAfPz83jx4kXDFkPx2egzuyyWt/WqRFFZv9+Po6MjLC8vo1qtYmJiAv39/dje3sbjx4/x9ddfY319HWNjY4hGozJYRe+fWYZSsyCV/t/tcNHV6nma3d4Oz1tPH8QG6jPbmm35a9Yg4afW7L1ut/eYLl+5XMbBwQF2dnagqiocDkdd/Ul9jUlRN667u7uh1uJlqNVqyOfzWF1dlZnEDocD5XIZOzs7ePDgAVZWVhCPx3H79m1Eo1GoqopyuYxXr15hZWUF1WpVdsJVFAVHR0f4/vvv8fTpU1gsFnR1dcHr9cqFr5OTE7jdbmSzWXz77beo1WoYGxtDOBzGixcvsLKygoWFBWQyGUxNTSEajcqtifrXz98VIqLWGKwiovdKBGAEfTDK2ElI3F8UOfX7/Xj9+jW+++47jI6OypPVvr4+3L9/XwZt/vvf/8oT50KhAE3TMDIygng8jpGREaiqCrvdDlVVMT09DVVV8e233+Lx48f45ptvsL6+jlKphFKphJOTEwwODuLu3buYnp5GLBaD3W5HKBRCKpVCZ2cnKpUKvvjiC+zt7eGzzz7DzZs3MT4+jsPDQ+TzeTx8+BAbGxsIBALyZD+VSiEcDmNhYQHb29v46quv4Ha7MTIyAp/P11CvSh/c02enie0Z4oLW6/UikUjg5z//ORwOB4rFIv79739jfn5ettQOBoPydQQCATidTvmZiGCY2OIhHk/c95NPPoGqqnj58iWeP3+OdDoNh8MBTdNQLpcRiURw48YNzMzMYGBgQHZepPerWWDKWB/pKjHLQBK3t+NrMdsKLerONft6O9SsEs8HqH+OesZC6vr76/9PV082m8UXX3whM4SNNRCN29Sj0Sh+//vfo6enR9avugxWqxVOpxOBQABDQ0NIJpNYW1vD6uoq8vk88vk8crkcBgYGMDMzg7t37yKRSMDtduOjjz6SP+fJkyeYm5vDd999J7ew53I5AMDk5CQGBwfR19cnM8ji8Th+85vfIBqNIp1OY2VlBc+fP4fdbkexWISmaUilUpiensbExARSqRS8Xi8Ajn8iovNisIpI56wrfjzRuDxWqxWKosjgk6gPZcw60LPZbDLAcnh4iL29PRwfH8NiscDn88ntAD6fD48ePcLCwgJevXqFo6MjRCIRJJNJjI6O4v79++ju7pYd/ex2O8bGxpBMJgEAr1+/xrNnz7C7u4tarQan04lbt27h9u3bGB8fx9jYmAyIBYNB9PT0IBaLwe12Y2lpCevr6+jr68PExATu3LkDq9WKBw8eYH5+HsvLy6jVarI19r1799DX14dSqSQf12KxIBgM4tatW1BVFX6/XwaSjGNQvwVQBN9ERldXVxemp6fh8Xjwz3/+E3NzcygWi1AUBVNTU+jr60M2m5W1qJxOp3zvnU4nvF4vNE2D2+2WtYBsNhs6OjowOzuL7u5u/P3vf8fm5iZWV1eRyWTg9/sRDocxPT2NqakpedJO7eO0ulXNtmq2W6Ck1e3t8HzN6LdN6bv+iWCVPssKgOkW4HZxWh0i42ch7tuur4UaiXHpcDhkU5Pl5WV5DDMy3jY4OIiRkRFEo1HZHEUcm8RxRvx8j8cDAHXHGafTCY/HA4ulvni7yB4WwapUKoVHjx5hdXUVR0dHsNvtGBoawq1bt/Czn/0MExMTcsFleHgYHo9H1mpcX1/H/v4+LJa3HYk7OzsxMDCAyclJzMzMyPMEAIhEIvjlL3+JeDyOv/3tb3j69CnS6TTy+Tzcbjfi8ThmZ2cxPT2NsbExJBKJhgU5jv2r66zXCWwkQXQ5GKwiOgeeZFwuEfAYGBjAn/70J9y7dw9TU1NwuVwNHYX0VFXFzMwMQqEQisUibDYbRkdH5YWpoihIJBJwOp3yxDGfz6NUKsHtdsPv96O3txeJRKKhhpLI2pqamkI4HEY2m5WrrDabDaFQCOFwGKlUSgaExNa4zs5O/PrXv5b1nGw2G6anp+FyuZBMJuF2uxGLxfCLX/xC1sjo6OhAMBhEIpFAR0cH/vCHP+Du3buyq+HAwACCwSD++Mc/YnR0FOPj4wgGg1BVFQBkBpU4mY7FYsjlcvjoo49QqVTkyXgul4PL5cKvfvUrzM7OyloisVgMNpsNu7u7WFtbk0XqnU4nVFXFyMgIOjs7ZWZVKpWqK3zv8/mQTCbx2WefYXh4GLlcTtYxEa9XFJil9mJ2Mt0sm9GYKdPu2v15GjOOjM9XX7MOQN3FbjvQjx2zwFOz/7dLZhidnaIoCIfDcnHm008/bRowNhMMBjE5OSkXTfr6+lCpVOByueRxOpFIQFEUdHV1QdM0DA8PN9xeLpdlMxP9GHI6nbhx4wZmZ2cxMDCA169fQ9M0uYgUjUbR29sLRVHqzhFCoRBmZ2fR09ODg4MDueBls9mgqiqCwSB6e3sRjUZlMxfg7XmAqF/1u9/9Dnfv3kU+n5cF571eL+LxOOLxODo7O1nP7QNkzJBjYIro3WGwiq61Zgcas4sy45YMujir1Qq/3w+/33+urBun04nx8XGMj4+bfl1RFBkkGR0dPddzstls8Hg8uHPnDu7cuXPm71MUBcFgEPfv38f9+/cbvp5IJJBIJDA2Nnbqz2n2Pnz++efy3/rxKgqiRyKRhteraRqy2Sz29vaQyWRQq9UwOTmJ/v7+ugK4u7u7cDqdyGazMmtNVVU4nU4MDQ1haGio7vHE44vAntfrRXd399neKGoLrWoOnVYzrl3mv2bPo12eXzOt3uNWX28Xp9XWApp3kGz310Vvic9JURR0dnais7MTt2/fvtDPDIVCprdHo1FEo9GGY67Z7fl8XgZIa7WabCQyMzPTUPuyGbvdLl/TxMTEuV6D6Cro8/nQ29t7ru8F2v/3ms7GbJuzuJ2ILg+DVXRt6QtRA401NoyuWmYBfdj0gVOxlcI4Pmu1GjRNQyaTwf/+9z9sbW0hl8vJlWFFUbCzsyPbcwOQtbdEl0P9Y4nH4wXn1SfmP2PtIc5/dBbGTCkxnoC3TSb0cwTHDL0rxi2oZwkecDzSRZnVUbXb7ajVapz/iC4Zg1V0bVmtVrn9S187BGh9cGGGFbUDYyFbs9R00TFxZWUFc3NzchtjJBKBy+XC999/j8XFRdnCOxwOo7u7uy4Apscxf/WJLWac/+gi9J+/zWaTc4bI9hTjzIjjhy5KjC2zWm7NavGJWmlEl4HzH9FPg8EqurYqlYpsswygYSXEeEDhgYXamVnmi91uRzgcxs2bN/Hxxx/DYrHg5cuX+POf/yyLsOdyOZRKJdy8eROffvopbt26VVfDyxj4MnYno6tHFO9uNf+x1gq1Uq1WUalUZPdPAPKijXMEvQsiCCBqXnk8Hng8HjmXGe9rzAIkuixi/iuXyyiXy3WZ7hxvRJeDwSq6tsRBRn+xdhoGrajdGbOgbDYbOjs7ZUF6i8WCubk5fP311yiXy7LAeyKRwL179/DJJ58gHA6fuvqs715GV1elUkGlUjl1ldesJgfnPxL0XQvFeAJ+KAbP4sP0LogC6T6fD319fcjlcvD5fHXncvq6iuI2osukn//K5TLnP6J3hMEqurZE2q6+ZhUzCeiqMNbkECt6xkwo4G2GVW9vLxwOBwYHB2W3pFqtBpfLBb/fj/7+foRCITidTpTL5bqtFcZCysbHp6tHzH/Gz1jg50ut6OcERVHgcDhgsVjqtsEQXTbRRbi/vx8ulwvlchnJZLJukUWMPRHAMutYSXQZrFYrFEWRHaxFh2YiuhwMVtG1Zby4b4WrI9Ru9PWG9PUR9Ct+Ypz39PQgkUjIMS+2gBmbDIhsQ2MtLAaqPiz6mlVnwfmPBGPGgL7AsAhW2Wy2lh0niX4Mu90Ov98vu/Gd1hRCZI/qj2cAxyD9eMZFHYvFArvdLuc/Y9H/076fiFpjsIquLf02QLMuV8aLdB5gqJ3ox63Z+BTBK7PbgR9Wmo0nXvoUdv3JPU/yPyyizkazLn+c/+gsxNgol8solUoNW4TNaqIRXZQxg1g/vsRCjVnGMccgXSYxnsrlssxW12dVcf4jujgGq+jaEsEqs7bH+swU0W1G3E7UDsSqsX4rq16rk6NmaepnObln4OrqM9bsA2B6sWfcKkhkPGZaLJa64KdZUwbWuKPLpN/mJwIE+uNRtVptyBzm8Youg9n8Jwqsi9vE/XiuRHRxDFbRtSW2LZhlmBC1O30AVdO0utbJesaTJeNKtDEAYRaYMF4EiNv4O3N1iflPBKP4WdJFiEUds0xNBjnpspl1pdUf18QijjjGcX6jd6nZ/MdxR3RxrABH15bNZoPD4ZD7zIH6lRC9VnvQiX5q+gtBkSF4lvErsmaaff20xzMWraWrSdTYcDgcTYvyGwv4c/6jZsR4UhSlIWPTGEwQf3M80UWJjCox5kSWFfBDTT797cY/RJdBP/8Zg1PGRjXib44/orNjZhVdS1arFR0dHYjFYvB4PAAgC07ru2TpV+bEH3aVoXagPylvtVXVWBy92TY/47/Nxr2+rhVdTTabDYFAANFoFG63GwAaCu6bFezn/EeCPqipKArC4TB6enqgqqrM9NRvvxIBbmN9IaIfw6wWo9mYMtbc089jRD+Wfv5zOp2IRqPQNA0Oh4PzH9ElY7CKriWLxQKPx4NgMAhVVWV2SrlcrruYFxfs+pU5HmioXTQLHphtkRCandCbESdZxlb0/B242qxWKzweDwKBAJxOp5z/KpVK3XYG4/wH/HCyTSSI4GdXVxccDoc8jhoDAs22HBOdx2nHMGPDCON9jUEDoouy2+0IBoMoFApQFAXlctk0GNqstAIRnY7BKrqWarUaMpkMXrx4gaOjI1kAVp86rj/pMdbdEIXXid4X4zatVifnZjWqznLCZKzpxpOsq69SqeDg4AB7e3vI5XJ1858xm8ps/uOFHulpmob9/X1sbm7KCzZj/TxjgJvjhy6Dcdtyq3HFYut02UqlEvb29rCzs4NisdhyOzQRnQ+DVXQtVatVHB4eIp1ON1ysAebdAI3dZ3jBRu+LMVBlvN24yiy2t+q/56wZVhzjH55KpYJsNot0Oo18Pm86/xm7AernPzEvcmwQ8HYL6atXr/DixQucnJzAbm88teRYoXelVcc1BknpXSqVSkin09jd3UWpVGo5/3EMEp0Pg1V0bYkLMn1tKjNmGSxcJaF20WocNqtRxfF7vemLvJ42/xkDm5z/CGg+fxi3+rF1O71LPJ7R+9CqKYnArX9EF8dgFV1b+q5oxm4dQqsMFqL36SyBKmZLkRmzGnzGOa5ZsX6i82DAit4FBqqoHRi3yBsXeHjtQHQxDFYR/T+zwpyiwLS+kLV+eyAPPER0FYn5q1qt1hXE1s9/xrpDAAMP9FazrfBnyVAmIrrKKpUKADQs9ohGJcbt8ywdQvTjMVhF15Yopl4sFpHJZBpqsYiDimjpbrPZYLPZUKlU6v5PRHSVHB0doVKpQFEUAJBdAIHGgvp64oS7WRdKuj70izgAZM2zQqGAbDYLoHGLDMcLEV111WoVlUpF1nQ8Pj6W1w5mi9likVs/H4rbiag1BqvoWrJarQiFQohEIvjyyy+xs7Mjv2ZM3zVulzHbPkNEdFUUCgU8e/YMsVgMPp8Pdru9oRaV2bwHsGYVvaW/MLNYLAiFQnC73fjHP/6BlZWVhgszIqIP0dHRETKZDFKpFPx+f12NUIDdc4kuisEqupasViuCwSBCoRDm5+fxl7/8paFtu1g5NgapiIiuMofDgVQqhTt37sDj8TR0LzJbBRYYqCLjFnkACAaDcLvdePDgAfb39+u+RkT0IREBqUqlAq/Xi4GBAYyMjMDn88kdF81q4DJ4RXQ+lhrPJuga0jQNGxsbePbsGXK5HI6Pj02zCoRmxYaJiK4aq9UKr9eLQCCAoaEhJJPJhvuctyYRXT9ijBwfH+PJkyfY3t7G8fExCoUCj5dE9MHSB+wVRYHP50M4HMbAwAAikQiAxmCV8fuJ6GwYrCIiIiIiIiIiorZhfd9PgIiIiIiIiIiISGCwioiIiIiIiIiI2gaDVURERERERERE1DYYrCIiIiIiIiIiorbBYBUREREREREREbUNBquIiIiIiIiIiKhtMFhFRERERERERERt4/8Ar/OZHV5uNnEAAAAASUVORK5CYII=;" vertex="1" parent="1">
          <mxGeometry x="-280" y="1130" width="845" height="535.28" as="geometry" />
        </mxCell>
        <mxCell id="shO-vSXFo0OsbeSrxH-g-2" value="&lt;font style=&quot;font-size: 18px;&quot;&gt;ShapesCreator&lt;/font&gt;" style="rounded=0;whiteSpace=wrap;html=1;" vertex="1" parent="1">
          <mxGeometry x="30" y="1730" width="220" height="50" as="geometry" />
        </mxCell>
        <mxCell id="shO-vSXFo0OsbeSrxH-g-6" style="edgeStyle=orthogonalEdgeStyle;rounded=0;orthogonalLoop=1;jettySize=auto;html=1;exitX=1;exitY=0.5;exitDx=0;exitDy=0;entryX=0.25;entryY=1;entryDx=0;entryDy=0;" edge="1" parent="1" source="shO-vSXFo0OsbeSrxH-g-5" target="shO-vSXFo0OsbeSrxH-g-2">
          <mxGeometry relative="1" as="geometry" />
        </mxCell>
        <mxCell id="shO-vSXFo0OsbeSrxH-g-5" value="&lt;font style=&quot;font-size: 18px;&quot;&gt;DotCreator&lt;/font&gt;" style="rounded=0;whiteSpace=wrap;html=1;" vertex="1" parent="1">
          <mxGeometry x="-260" y="1850" width="220" height="50" as="geometry" />
        </mxCell>
        <mxCell id="shO-vSXFo0OsbeSrxH-g-7" value="&lt;font style=&quot;font-size: 18px;&quot;&gt;RectCreator&lt;/font&gt;" style="rounded=0;whiteSpace=wrap;html=1;" vertex="1" parent="1">
          <mxGeometry x="-170" y="1990" width="220" height="50" as="geometry" />
        </mxCell>
        <mxCell id="shO-vSXFo0OsbeSrxH-g-9" style="edgeStyle=orthogonalEdgeStyle;rounded=0;orthogonalLoop=1;jettySize=auto;html=1;exitX=1;exitY=0.5;exitDx=0;exitDy=0;entryX=0.405;entryY=1;entryDx=0;entryDy=0;entryPerimeter=0;" edge="1" parent="1" source="shO-vSXFo0OsbeSrxH-g-7" target="shO-vSXFo0OsbeSrxH-g-2">
          <mxGeometry relative="1" as="geometry" />
        </mxCell>
        <mxCell id="shO-vSXFo0OsbeSrxH-g-10" value="&lt;font style=&quot;font-size: 18px;&quot;&gt;EllipseCreator&lt;/font&gt;" style="rounded=0;whiteSpace=wrap;html=1;" vertex="1" parent="1">
          <mxGeometry x="205" y="1990" width="220" height="50" as="geometry" />
        </mxCell>
        <mxCell id="shO-vSXFo0OsbeSrxH-g-12" style="edgeStyle=orthogonalEdgeStyle;rounded=0;orthogonalLoop=1;jettySize=auto;html=1;exitX=0;exitY=0.5;exitDx=0;exitDy=0;entryX=0.591;entryY=1;entryDx=0;entryDy=0;entryPerimeter=0;" edge="1" parent="1" source="shO-vSXFo0OsbeSrxH-g-10" target="shO-vSXFo0OsbeSrxH-g-2">
          <mxGeometry relative="1" as="geometry" />
        </mxCell>
        <mxCell id="shO-vSXFo0OsbeSrxH-g-14" style="edgeStyle=orthogonalEdgeStyle;rounded=0;orthogonalLoop=1;jettySize=auto;html=1;exitX=0;exitY=0.5;exitDx=0;exitDy=0;entryX=0.75;entryY=1;entryDx=0;entryDy=0;" edge="1" parent="1" source="shO-vSXFo0OsbeSrxH-g-13" target="shO-vSXFo0OsbeSrxH-g-2">
          <mxGeometry relative="1" as="geometry" />
        </mxCell>
        <mxCell id="shO-vSXFo0OsbeSrxH-g-13" value="&lt;font style=&quot;font-size: 18px;&quot;&gt;LineCreator&lt;/font&gt;" style="rounded=0;whiteSpace=wrap;html=1;" vertex="1" parent="1">
          <mxGeometry x="280" y="1850" width="220" height="50" as="geometry" />
        </mxCell>
      </root>
    </mxGraphModel>
  </diagram>
</mxfile>
